<svg xmlns="http://www.w3.org/2000/svg" width="64" height="92">
  <g fill="#2A406A" fill-rule="evenodd">
    <path d="M61.615 56.801c0 16.163-10.443 27.586-30.011 33-19.574-5.414-29.939-16.837-29.939-33V17.923h59.95v38.878zM0 16.301V56.81c0 8.27 2.59 15.425 7.697 21.236 5.357 6.095 13.396 10.62 23.901 13.455 10.514-2.834 18.552-7.36 23.907-13.455 5.11-5.811 7.7-12.966 7.7-21.236V16.302L0 16.301zm0-2.461h63.206V0H0v13.84zm31.088-9.195c-2.089 0-3.404 1.405-3.404 3.53 0 2.178 1.315 3.546 3.566 3.546.974 0 1.64-.163 2.107-.362l.54-1.546a6.975 6.975 0 0 1-2.412.43c-1.244 0-1.873-.557-1.98-1.44h4.86c.234-2.376-1.062-4.158-3.277-4.158zm17.049-2.376h-2.522l-3.527 9.255h2.177l.647-1.836h3.816l.613 1.836h2.252l-3.456-9.255zm-36.614 0v1.875h2.45v7.379h2.177v-7.38h2.215l.738-1.873-7.58-.001zM21.82 5.455V2.269h-2.017v9.254h2.017V7.201c.343-.305 1.007-.774 1.656-.774.52 0 .809.253.954.577.107.253.143.52.143.937v3.582h2.017V7.561c0-.702-.071-1.096-.2-1.44-.341-.934-1.151-1.476-2.322-1.476-.97 0-1.637.342-2.248.81zm16.919.737v-2.05h4.32l.703-1.873h-7.181v9.253h2.158V8.136h2.81l.739-1.944h-3.549zm6.803 1.676l1.246-3.492h.07l1.207 3.492h-2.523zm-16.037-.377c.07-.83.665-1.405 1.512-1.405.9 0 1.404.612 1.51 1.405h-3.022z"/>
    <path d="M30.67 66.985c.036-.114.042-.221-.014-.287-.04-.048-.106-.045-.18 0-.128.072-.28.265-.385.546a1.663 1.663 0 0 0-.045.13c-.126.385-.124.673-.124.673s.291-.288.465-.522c.026-.037.05-.072.07-.107a2.15 2.15 0 0 0 .213-.433"/>
    <path d="M29.081 65.118c-.204.15-.728.62-.42 1.36.36.859 1.176.9 1.385.896a1.55 1.55 0 0 1 .045-.129c.105-.28.257-.474.384-.547-.037-.255-.096-.588-.173-.79-.105-.26-.34-.594-.47-.774-.127.066-.363.094-.751-.016m2.462-1.175c-.082-.118-.143-.393-.172-.794-.002-.029-.002-.054-.002-.076-.223-.18-1.011-.724-1.76-.111-.774.626-.49 1.435-.363 1.713.15.022.5.088.641.2.175-.14.468-.364.743-.536.289-.165.595-.298.913-.396"/>
    <path d="M29.182 64.664c-.497-.077-.833.047-.833.047s.11.233.72.403c.005 0 .009.004.013.004.387.11.623.082.75.016.088-.05.124-.117.118-.168-.006-.035-.03-.063-.062-.091-.142-.112-.49-.178-.641-.2l-.065-.012m3.682 1.843c-.286-.008-.721 0-1.065.072-.4.085-.889.296-1.13.408a2.128 2.128 0 0 1-.213.432c-.018.035-.043.07-.07.108.127.16.668.747 1.577.632 1.04-.133 1.3-.847 1.346-1.024-.02-.025-.046-.05-.072-.08a2.691 2.691 0 0 1-.373-.548m1.223-1.956c-.088.05-.179.093-.272.132-.271.104-.506.192-.657.203a2.34 2.34 0 0 0-.137.653c-.018.253.026.538.067.724.12.095.276.256.448.48.02.022.031.045.048.066.04.058.073.115.103.168.308.009.99-.076 1.137-1.046.167-1.087-.588-1.34-.737-1.38m-.122-.261c.03-.126.23-1.182-.711-1.665-.664-.34-1.215.01-1.49.253.012.054.023.114.03.18.039.331.03.641-.03.812.079.06.366.278.681.427.284.13.633.233.726.259.133-.073.32-.133.51-.196.092-.026.189-.051.284-.07"/>
    <path d="M31.793 63.058a1.587 1.587 0 0 0-.029-.18c-.075-.354-.244-.405-.244-.405s-.17.1-.15.6c0 .022 0 .048.002.076.027.401.09.676.172.794.037.05.075.072.12.063.044-.003.073-.06.097-.13.003 0 .003-.003.003-.006.059-.17.069-.481.029-.812m2.294 1.491c.237-.123.501-.288.49-.31-.012-.015-.305-.006-.613.05-.095.02-.191.045-.283.07-.19.063-.378.123-.51.196-.136.073-.218.148-.188.244.02.069.082.091.175.085.151-.01.386-.098.657-.203a2.68 2.68 0 0 0 .272-.132m-.551 2.193a2.747 2.747 0 0 0-.448-.48.515.515 0 0 0-.136-.08c-.058-.02-.103-.02-.135.01-.03.035-.03.092-.01.164.01.044.03.094.057.15.077.16.21.356.373.548.026.029.051.054.073.08a.51.51 0 0 0 .054.053c.244.225.464.238.464.238s.005-.184-.14-.45a1.806 1.806 0 0 0-.105-.167c-.015-.021-.027-.044-.047-.066m-1.271-1.618c.084.326-.184.676-.601.784-.415.107-.82-.066-.905-.392-.085-.328.183-.676.6-.787.415-.107.822.07.906.395m20.637 1.861c.038-.114.045-.221-.011-.287-.042-.048-.107-.045-.183 0-.128.072-.28.265-.383.546-.02.048-.031.086-.047.13-.123.385-.121.673-.121.673s.289-.288.463-.522a2.24 2.24 0 0 0 .282-.54"/>
    <path d="M51.315 65.118c-.204.15-.729.62-.42 1.36.36.859 1.173.9 1.382.896.016-.043.028-.082.048-.129.102-.28.255-.474.383-.547-.035-.255-.095-.588-.174-.79-.106-.26-.339-.594-.47-.774-.125.066-.363.094-.749-.016m2.461-1.175c-.083-.118-.142-.393-.17-.794-.004-.029-.002-.054-.004-.076-.221-.18-1.01-.724-1.762-.111-.77.626-.49 1.435-.358 1.713.149.022.498.088.64.2.173-.14.467-.364.742-.536a4.6 4.6 0 0 1 .912-.396"/>
    <path d="M51.413 64.664c-.494-.077-.832.047-.832.047s.11.233.722.403c.005 0 .006.004.012.004.386.11.623.082.749.016.09-.05.124-.117.119-.168-.005-.035-.03-.063-.062-.091-.142-.112-.49-.178-.64-.2l-.068-.012m3.683 1.843c-.285-.008-.721 0-1.06.072-.402.085-.895.296-1.134.408a2.28 2.28 0 0 1-.283.54c.127.16.669.747 1.577.632 1.04-.133 1.297-.847 1.346-1.024-.02-.025-.047-.05-.07-.08a2.714 2.714 0 0 1-.376-.548m1.223-1.956a3.158 3.158 0 0 1-.269.132c-.273.104-.507.192-.658.203a2.51 2.51 0 0 0-.139.653c-.017.253.027.538.068.724.122.095.275.256.448.48.018.022.032.045.048.066.042.058.073.115.103.168.307.009.988-.076 1.137-1.046.167-1.087-.584-1.34-.738-1.38m-.12-.261c.028-.126.228-1.182-.714-1.665-.66-.34-1.211.01-1.49.253.013.054.022.114.03.18.039.331.03.641-.03.812.08.06.367.278.684.427.282.13.632.233.722.259.135-.073.321-.133.511-.196a4 4 0 0 1 .287-.07"/>
    <path d="M54.025 63.058a1.737 1.737 0 0 0-.03-.18c-.074-.354-.243-.405-.243-.405s-.167.1-.15.6c.002.022 0 .048.003.076.029.401.088.676.17.794.039.05.077.072.122.063.045-.003.073-.06.097-.13.002 0 .002-.003.002-.006.06-.17.068-.481.029-.812m2.294 1.491c.24-.123.5-.288.489-.31-.011-.015-.303-.006-.608.05a4 4 0 0 0-.287.07c-.19.063-.377.123-.511.196-.137.073-.216.148-.187.244.02.069.083.091.177.085.151-.01.385-.098.658-.203.066-.028.166-.075.269-.132m-.55 2.193a2.718 2.718 0 0 0-.448-.48.522.522 0 0 0-.135-.08c-.06-.02-.107-.02-.135.01-.03.035-.03.092-.01.164.01.044.03.094.055.15.077.16.212.356.376.548.023.029.05.054.07.08.02.018.035.038.054.053.245.225.468.238.468.238s.001-.184-.144-.45c-.03-.053-.06-.11-.103-.167-.015-.021-.03-.044-.048-.066m-1.271-1.618c.084.326-.184.677-.6.784-.415.108-.82-.066-.904-.392-.085-.328.182-.676.596-.787.418-.107.821.07.908.395m-46.23 1.861c.038-.114.046-.221-.013-.287-.039-.048-.106-.045-.18 0-.128.072-.28.265-.385.546l-.046.13c-.123.385-.12.673-.12.673s.287-.288.46-.522a1.996 1.996 0 0 0 .284-.54"/>
    <path d="M6.682 65.118c-.204.15-.729.62-.422 1.36.362.859 1.175.9 1.384.896.015-.043.028-.082.046-.129.106-.28.258-.474.386-.547-.037-.255-.094-.588-.173-.79-.105-.26-.34-.594-.472-.774-.126.066-.362.094-.749-.016m2.462-1.175c-.083-.118-.143-.393-.172-.794v-.076c-.225-.18-1.011-.724-1.76-.111-.775.626-.494 1.435-.362 1.713.149.022.496.088.637.2.175-.14.47-.364.745-.536.288-.176.667-.318.912-.396"/>
    <path d="M6.781 64.664c-.496-.077-.83.047-.83.047s.11.233.72.403c.003 0 .006.004.01.004.388.11.624.082.75.016.09-.05.125-.117.116-.168 0-.035-.026-.063-.06-.091-.142-.112-.489-.178-.638-.2-.036-.006-.061-.012-.068-.012m3.682 1.843c-.283-.008-.72 0-1.061.072-.4.085-.892.296-1.133.408a2.008 2.008 0 0 1-.284.54c.13.16.67.747 1.577.632 1.041-.133 1.301-.847 1.35-1.024a2.626 2.626 0 0 1-.45-.629m1.224-1.955c-.1.057-.201.103-.268.132-.274.104-.508.192-.66.203-.058.164-.12.392-.136.653-.017.253.027.538.066.724.123.095.275.256.45.48.017.022.03.045.044.066.043.058.077.115.106.168.308.009.99-.076 1.134-1.046.168-1.087-.584-1.34-.736-1.38m-.121-.261c.03-.126.23-1.182-.714-1.665-.66-.34-1.214.01-1.487.253.011.054.022.114.03.18.038.331.029.641-.03.812.077.06.366.278.681.427.281.13.632.233.725.259.133-.073.318-.133.51-.196.091-.026.19-.051.285-.07"/>
    <path d="M9.394 63.058a1.958 1.958 0 0 0-.03-.18c-.077-.354-.245-.405-.245-.405s-.168.1-.148.6v.076c.03.401.09.676.172.794.036.05.076.072.12.063.044-.003.075-.06.1-.13l.001-.006c.059-.17.068-.481.03-.812m2.292 1.491c.237-.123.503-.288.49-.31-.011-.015-.304-.006-.61.05-.096.02-.19.043-.284.07-.193.063-.378.123-.511.196-.137.073-.218.148-.188.244.022.069.084.091.174.085.153-.01.387-.098.66-.203.068-.028.168-.075.269-.132m-.549 2.193a2.774 2.774 0 0 0-.45-.48.55.55 0 0 0-.136-.08c-.057-.02-.103-.02-.134.01-.03.035-.029.092-.012.164.013.044.032.094.057.15a2.626 2.626 0 0 0 .5.681c.246.225.469.238.469.238s.001-.184-.144-.45a1.345 1.345 0 0 0-.106-.167c-.014-.021-.027-.044-.044-.066m-1.273-1.618c.083.326-.183.676-.6.784-.413.108-.82-.066-.904-.392-.084-.328.183-.676.598-.787.418-.107.822.07.906.395M30.67 46.268c.036-.117.042-.224-.014-.294-.04-.045-.106-.044-.18 0-.128.073-.28.268-.385.55a1.272 1.272 0 0 0-.045.13c-.126.379-.124.67-.124.67s.291-.285.465-.518a.89.89 0 0 0 .07-.11 2.11 2.11 0 0 0 .213-.428"/>
    <path d="M29.081 44.397c-.204.15-.728.62-.42 1.362.36.854 1.176.898 1.385.895.013-.044.028-.088.045-.13.105-.282.257-.477.384-.55-.037-.255-.096-.581-.173-.786-.105-.26-.34-.596-.47-.778-.127.068-.363.096-.751-.013m2.462-1.176c-.082-.117-.143-.391-.172-.793-.002-.03-.002-.052-.002-.08-.223-.18-1.011-.72-1.76-.11-.774.63-.49 1.436-.363 1.712.15.027.5.093.641.205a8.13 8.13 0 0 1 .743-.537c.287-.178.67-.317.913-.397"/>
    <path d="M29.182 43.942c-.497-.075-.833.05-.833.05s.11.228.72.402c.005 0 .009.003.013.003.387.109.623.08.75.013.088-.048.124-.114.118-.168-.006-.031-.03-.061-.062-.087-.142-.112-.49-.178-.641-.205a.744.744 0 0 0-.065-.008m3.682 1.842c-.286-.006-.721-.001-1.065.07-.4.088-.889.301-1.13.414-.055.15-.126.293-.213.427a.831.831 0 0 1-.07.11c.127.16.668.746 1.577.629 1.04-.133 1.3-.844 1.346-1.021-.02-.026-.046-.051-.072-.079a2.799 2.799 0 0 1-.373-.55m1.223-1.956a2.1 2.1 0 0 1-.272.13c-.271.103-.506.195-.657.205a2.33 2.33 0 0 0-.137.651c-.018.255.026.54.067.727.12.094.276.256.448.48.02.022.031.044.048.063.04.06.073.114.103.167.308.013.99-.073 1.137-1.042.167-1.087-.588-1.34-.737-1.381m-.122-.261c.03-.127.23-1.181-.711-1.663-.664-.345-1.215.01-1.49.256.012.048.023.108.03.175.039.33.03.64-.03.814.079.06.366.278.681.42.284.136.633.237.726.262.133-.07.32-.131.51-.19.092-.03.189-.053.284-.074"/>
    <path d="M31.793 42.335a1.292 1.292 0 0 0-.029-.176c-.075-.359-.244-.41-.244-.41s-.17.104-.15.598c0 .029 0 .051.002.081.027.401.09.676.172.794.037.05.075.069.12.062.044-.002.073-.06.097-.13.003 0 .003-.006.003-.006.059-.174.069-.483.029-.813m2.294 1.493c.237-.126.501-.288.49-.31-.012-.017-.305-.007-.613.05-.095.02-.19.044-.283.072-.175.05-.345.113-.51.19-.136.074-.218.152-.188.247.02.068.082.092.175.086.151-.01.386-.102.657-.205.07-.026.168-.073.272-.13m-.551 2.193a2.773 2.773 0 0 0-.448-.48.489.489 0 0 0-.136-.08c-.058-.022-.103-.022-.135.01-.03.032-.03.092-.01.164.01.046.03.093.057.149.077.158.21.357.373.55l.073.079a.278.278 0 0 0 .054.05c.244.231.464.24.464.24s.005-.183-.14-.452a2.156 2.156 0 0 0-.105-.167c-.015-.02-.027-.04-.047-.063m-1.272-1.617c.085.323-.184.676-.6.783-.415.108-.82-.068-.905-.395-.085-.327.183-.676.598-.783.417-.108.823.068.907.395M7.988 46.268c.035-.117.045-.224-.014-.294-.04-.045-.106-.044-.181 0-.127.073-.278.268-.383.55a1.512 1.512 0 0 0-.048.13c-.123.379-.121.67-.121.67s.289-.285.463-.518c.026-.037.053-.073.072-.11.077-.125.168-.285.212-.428"/>
    <path d="M6.401 44.397c-.205.15-.727.62-.42 1.362.36.854 1.173.898 1.382.895.014-.044.028-.086.047-.13.105-.282.256-.477.383-.55-.035-.255-.095-.581-.173-.786-.105-.26-.34-.596-.47-.778-.127.068-.362.096-.749-.013m2.462-1.176c-.083-.117-.145-.391-.174-.793-.003-.03 0-.052-.003-.08-.22-.18-1.008-.72-1.76-.11-.773.63-.49 1.436-.358 1.712.147.027.497.093.639.205.172-.14.468-.367.743-.537.288-.178.669-.317.913-.397"/>
    <path d="M6.498 43.942c-.494-.075-.833.05-.833.05s.114.228.721.402c.006 0 .01.003.014.003.386.109.622.08.75.013.089-.048.124-.114.117-.168a.155.155 0 0 0-.06-.087c-.142-.112-.493-.178-.64-.205a.697.697 0 0 0-.069-.008m3.684 1.842c-.285-.006-.72-.001-1.062.07-.401.088-.891.301-1.132.414-.054.15-.124.293-.211.427-.02.037-.047.073-.073.11.127.16.667.746 1.577.629 1.04-.133 1.298-.844 1.348-1.021l-.071-.079a2.763 2.763 0 0 1-.376-.55m1.223-1.956a2.02 2.02 0 0 1-.269.13c-.275.103-.509.195-.659.205-.058.164-.123.39-.136.651-.017.255.026.54.065.727.123.094.275.256.45.48.018.022.03.044.046.063.041.06.075.114.105.167.306.013.988-.073 1.136-1.042.166-1.087-.586-1.34-.738-1.381m-.12-.261c.029-.127.227-1.181-.714-1.663-.664-.345-1.214.01-1.487.256.011.048.02.108.028.175.04.33.03.64-.027.814.076.06.365.278.68.42.281.136.632.237.725.262.132-.07.317-.131.51-.19.09-.03.19-.053.285-.074"/>
    <path d="M9.112 42.335a1.61 1.61 0 0 0-.029-.176c-.077-.359-.244-.41-.244-.41s-.171.104-.152.598c.001.029 0 .051.003.081.028.401.09.676.173.794.035.05.073.069.118.062.045-.002.075-.06.101-.13 0 0 .001-.006.003-.006.057-.174.066-.483.027-.813m2.293 1.493c.238-.126.502-.288.488-.31-.011-.017-.302-.007-.608.05-.096.02-.195.042-.285.072-.193.06-.38.122-.51.19-.137.074-.22.152-.189.247.021.068.083.092.176.086.15-.01.384-.102.66-.205a2.24 2.24 0 0 0 .268-.13m-.55 2.193a2.774 2.774 0 0 0-.45-.48.507.507 0 0 0-.135-.08c-.057-.022-.105-.022-.135.01-.027.032-.026.092-.01.164a.856.856 0 0 0 .057.149c.077.158.21.357.376.55l.07.079c.018.019.034.038.053.05.247.231.468.24.468.24s.003-.183-.142-.452a2.386 2.386 0 0 0-.105-.167c-.015-.02-.028-.04-.047-.063m-1.271-1.617c.083.323-.186.675-.6.783-.416.107-.82-.068-.905-.395-.086-.327.183-.676.599-.784.417-.107.821.07.906.396m43.819 1.864c.04-.117.047-.224-.009-.294-.042-.045-.107-.044-.183 0-.127.073-.28.268-.384.55a1.11 1.11 0 0 0-.045.13c-.124.379-.123.67-.123.67s.29-.285.462-.518c.027-.037.054-.073.075-.11.074-.125.166-.285.207-.428"/>
    <path d="M51.818 44.397c-.204.15-.729.62-.42 1.362.36.854 1.176.898 1.385.895a.892.892 0 0 1 .045-.13c.104-.282.256-.477.384-.55-.037-.255-.094-.581-.175-.786-.103-.26-.338-.596-.468-.778-.127.068-.363.096-.751-.013m2.462-1.176c-.082-.117-.142-.391-.173-.793v-.08c-.224-.18-1.009-.72-1.76-.11-.773.63-.492 1.436-.361 1.712.149.027.498.093.638.205.176-.14.47-.367.745-.537.287-.178.666-.317.911-.397"/>
    <path d="M51.918 43.942c-.498-.075-.832.05-.832.05s.11.228.72.402c.005 0 .01.003.012.003.388.109.624.08.751.013.089-.048.123-.114.114-.168-.001-.031-.025-.061-.06-.087-.14-.112-.488-.178-.637-.205a.737.737 0 0 0-.068-.008m3.683 1.842c-.285-.006-.723-.001-1.064.07-.4.088-.89.301-1.134.414a2.01 2.01 0 0 1-.207.427c-.02.037-.048.073-.075.11.128.16.67.746 1.579.629 1.041-.133 1.298-.844 1.347-1.021-.025-.026-.046-.051-.074-.079a2.79 2.79 0 0 1-.372-.55m1.221-1.956c-.102.057-.2.104-.267.13-.275.103-.508.195-.662.205-.074.21-.12.429-.135.651-.016.255.025.54.067.727.122.094.273.256.447.48.021.022.033.044.047.063.043.06.076.114.104.167.309.013.991-.073 1.138-1.042.166-1.087-.584-1.34-.739-1.381m-.118-.261c.028-.127.224-1.181-.715-1.663-.663-.345-1.213.01-1.488.256.012.048.022.108.03.175.037.33.028.64-.029.814.079.06.365.278.68.42.281.136.633.237.725.262.133-.07.318-.131.51-.19a2.8 2.8 0 0 1 .287-.074"/>
    <path d="M54.532 42.335a1.562 1.562 0 0 0-.03-.176c-.076-.359-.243-.41-.243-.41s-.171.104-.151.598v.081c.03.401.09.676.172.794.04.05.075.069.122.062.043-.002.073-.06.097-.13.003 0 .003-.006.004-.006.057-.174.066-.483.029-.813m2.29 1.493c.239-.126.501-.288.488-.31-.01-.017-.3-.007-.606.05a2.815 2.815 0 0 0-.286.072c-.193.06-.378.122-.511.19-.135.074-.216.152-.187.247.021.068.083.092.173.086.154-.01.387-.102.662-.205.066-.026.165-.073.267-.13m-.55 2.193a2.747 2.747 0 0 0-.448-.48.522.522 0 0 0-.136-.08c-.055-.022-.103-.022-.135.01-.028.032-.028.092-.01.164.012.046.03.093.058.149.077.158.208.357.373.55l.073.079a.322.322 0 0 0 .051.05c.247.231.47.24.47.24s.001-.183-.145-.452a1.32 1.32 0 0 0-.104-.167c-.014-.02-.026-.04-.047-.063m-1.27-1.617c.084.324-.187.676-.6.783-.414.108-.82-.067-.904-.395-.086-.326.182-.676.599-.783.415-.108.818.069.905.395M30.67 25.544c.036-.113.042-.223-.014-.287-.04-.051-.106-.047-.18-.003-.128.072-.28.268-.385.55a1.656 1.656 0 0 0-.045.126c-.126.385-.124.677-.124.677s.291-.286.465-.522a3.11 3.11 0 0 0 .07-.108c.077-.129.167-.287.213-.432"/>
    <path d="M29.081 23.678c-.204.144-.728.615-.42 1.358.36.856 1.176.899 1.385.894a1.2 1.2 0 0 1 .045-.126c.105-.282.257-.477.384-.55-.037-.253-.096-.583-.173-.788-.105-.26-.34-.595-.47-.776-.127.067-.363.096-.751-.012m2.462-1.179c-.082-.118-.143-.392-.172-.791-.002-.032-.002-.054-.002-.08-.223-.179-1.011-.72-1.76-.11-.774.627-.49 1.437-.363 1.713.15.022.5.09.641.202.175-.139.468-.365.743-.537.287-.177.67-.318.913-.397"/>
    <path d="M29.182 23.22c-.497-.074-.833.05-.833.05s.11.23.72.401c.005.003.009.003.013.007.387.108.623.08.75.011.088-.047.124-.114.118-.169-.006-.031-.03-.06-.062-.087-.142-.112-.49-.18-.641-.202a.51.51 0 0 1-.065-.011m3.682 1.844c-.286-.007-.721-.002-1.065.073-.4.085-.889.296-1.13.408a2.204 2.204 0 0 1-.213.432 2.118 2.118 0 0 1-.07.108c.127.16.668.746 1.577.629 1.04-.133 1.3-.848 1.346-1.021-.02-.025-.046-.05-.072-.08a2.676 2.676 0 0 1-.373-.55m1.223-1.954a2.703 2.703 0 0 1-.272.129c-.271.103-.506.193-.657.203-.076.21-.123.43-.137.652-.018.254.026.541.067.728.12.094.276.256.448.478.02.023.031.043.048.068.04.057.073.112.103.164.308.01.99-.072 1.137-1.043.167-1.086-.588-1.337-.737-1.379m-.122-.26c.03-.13.23-1.182-.711-1.669-.664-.34-1.215.012-1.49.257.012.052.023.111.03.178.039.33.03.64-.03.812.079.062.366.278.681.425.284.13.633.233.726.259.253-.118.52-.206.794-.262"/>
    <path d="M31.793 21.614a1.487 1.487 0 0 0-.029-.178c-.075-.357-.244-.408-.244-.408s-.17.103-.15.6c0 .026 0 .048.002.08.027.4.09.673.172.791.037.052.075.068.12.065.044-.005.073-.06.097-.13.003-.005.003-.006.003-.008.059-.172.069-.482.029-.812m2.294 1.495c.237-.128.501-.288.49-.311-.012-.017-.305-.006-.613.05-.274.056-.54.144-.793.262-.136.072-.218.152-.188.247.02.07.082.092.175.084.151-.01.386-.1.657-.204.093-.038.184-.08.272-.128m-.551 2.19a2.854 2.854 0 0 0-.448-.48.533.533 0 0 0-.136-.081c-.058-.02-.103-.019-.135.013-.03.031-.03.091-.01.164a.648.648 0 0 0 .057.148c.077.162.21.358.373.55.026.029.051.054.073.08.016.019.035.034.054.052.244.226.464.235.464.235s.005-.18-.14-.449a1.781 1.781 0 0 0-.105-.164c-.015-.025-.027-.046-.047-.068m-1.271-1.618c.084.327-.184.678-.601.785-.414.108-.819-.069-.904-.394-.086-.326.183-.677.599-.788.415-.105.822.07.906.397M7.988 25.544c.035-.113.045-.223-.014-.287-.04-.051-.106-.047-.181-.003-.127.072-.278.268-.383.55-.02.044-.033.085-.048.126-.123.385-.121.677-.121.677s.289-.286.463-.522c.026-.038.053-.076.072-.108.077-.129.168-.287.212-.432"/>
    <path d="M6.401 23.678c-.205.144-.727.615-.42 1.358.36.856 1.173.899 1.382.894.014-.042.028-.082.047-.126.105-.282.256-.477.383-.55-.035-.253-.095-.583-.173-.788-.105-.26-.34-.595-.47-.776-.127.067-.362.096-.749-.012m2.462-1.179c-.083-.118-.145-.392-.174-.791-.003-.032 0-.054-.003-.08-.22-.179-1.008-.72-1.76-.11-.773.627-.49 1.437-.358 1.713.147.022.497.09.639.202.172-.139.468-.365.743-.537.288-.177.669-.318.913-.397"/>
    <path d="M6.498 23.22c-.494-.074-.833.05-.833.05s.114.23.721.401c.006.003.01.003.014.007.386.108.622.08.75.011.089-.047.124-.114.117-.169a.16.16 0 0 0-.06-.087c-.142-.112-.493-.18-.64-.202a.846.846 0 0 1-.069-.011m3.684 1.844c-.285-.007-.72-.002-1.062.073-.401.085-.891.296-1.132.408a2.157 2.157 0 0 1-.211.432c-.02.032-.047.07-.073.108.127.16.667.746 1.577.629 1.04-.133 1.298-.848 1.348-1.021a2.64 2.64 0 0 1-.447-.629m1.223-1.955c-.087.048-.177.09-.269.129-.275.103-.509.193-.659.203-.077.21-.122.43-.136.652-.017.254.026.541.065.728.123.094.275.256.45.478.018.023.03.043.046.068.041.057.075.112.105.164.306.01.988-.072 1.136-1.043.166-1.086-.586-1.337-.738-1.379m-.12-.26c.029-.13.227-1.182-.714-1.669-.664-.34-1.214.012-1.487.257.011.052.02.111.028.178.04.33.03.64-.027.812.076.062.365.278.68.425.281.13.632.233.725.259.253-.12.52-.208.795-.262"/>
    <path d="M9.112 21.614a1.875 1.875 0 0 0-.029-.178c-.077-.357-.244-.408-.244-.408s-.171.103-.152.6c.001.026 0 .048.003.08.028.4.09.673.173.791.035.052.073.068.118.065.045-.005.075-.06.101-.13 0-.005.001-.006.003-.008.057-.172.066-.482.027-.812m2.293 1.495c.238-.128.502-.288.488-.311-.011-.017-.302-.006-.608.05a3.315 3.315 0 0 0-.795.262c-.137.072-.22.152-.189.247.021.07.083.092.176.084.15-.01.384-.1.66-.204a2.74 2.74 0 0 0 .268-.128m-.55 2.19a2.854 2.854 0 0 0-.45-.48.553.553 0 0 0-.135-.081c-.057-.02-.105-.019-.135.013-.027.031-.026.091-.01.164.014.051.033.1.057.148.077.162.21.358.376.55l.07.08a.839.839 0 0 0 .053.052c.247.226.468.235.468.235s.003-.18-.142-.449a1.966 1.966 0 0 0-.105-.164.457.457 0 0 0-.047-.068m-1.272-1.618c.083.327-.186.678-.599.785-.416.108-.822-.07-.905-.395-.086-.325.182-.676.598-.788.418-.105.822.071.906.398m43.82 1.863c.04-.113.047-.223-.009-.287-.042-.051-.107-.047-.183-.003-.127.072-.28.268-.384.55a1.339 1.339 0 0 0-.045.126c-.124.385-.123.677-.123.677s.29-.286.462-.522c.027-.038.054-.076.075-.108.074-.129.166-.287.207-.432"/>
    <path d="M51.818 23.678c-.204.144-.729.615-.42 1.358.36.856 1.176.899 1.385.894a.983.983 0 0 1 .045-.126c.104-.282.256-.477.384-.55-.037-.253-.094-.583-.175-.788-.103-.26-.338-.595-.468-.776-.127.067-.363.096-.751-.012m2.462-1.179c-.082-.118-.142-.392-.173-.791v-.08c-.224-.179-1.009-.72-1.76-.11-.773.627-.492 1.437-.361 1.713.149.022.498.09.638.202a8.98 8.98 0 0 1 .745-.537c.287-.177.666-.318.911-.397"/>
    <path d="M51.918 23.22c-.498-.074-.832.05-.832.05s.11.23.72.401c.005.003.01.003.012.007.388.108.624.08.751.011.089-.047.123-.114.114-.169-.001-.031-.025-.06-.06-.087-.14-.112-.488-.18-.637-.202a.713.713 0 0 1-.068-.011m3.683 1.844c-.285-.007-.723-.002-1.064.073-.4.085-.89.296-1.134.408-.041.145-.133.303-.207.432-.02.032-.048.07-.075.108.128.16.67.746 1.579.629 1.041-.133 1.298-.848 1.347-1.021-.025-.025-.046-.05-.074-.08a2.668 2.668 0 0 1-.372-.55m1.221-1.954c-.102.055-.2.102-.267.129-.275.103-.508.193-.662.203a2.485 2.485 0 0 0-.135.652 2.79 2.79 0 0 0 .067.728 2.877 2.877 0 0 1 .598.71c.309.01.991-.072 1.138-1.043.166-1.086-.584-1.337-.739-1.379m-.118-.26c.028-.13.224-1.182-.715-1.669-.663-.34-1.213.012-1.488.257.013.059.023.118.03.178.037.33.028.64-.029.812.079.062.365.278.68.425.281.13.633.233.725.259a3.42 3.42 0 0 1 .797-.262"/>
    <path d="M54.532 21.614a1.847 1.847 0 0 0-.03-.178c-.076-.357-.243-.408-.243-.408s-.171.103-.151.6v.08c.03.4.09.673.172.791.04.052.075.068.122.065.043-.005.073-.06.097-.13l.004-.008c.057-.172.066-.482.029-.812m2.29 1.495c.239-.128.501-.288.488-.311-.01-.017-.3-.006-.606.05a3.42 3.42 0 0 0-.797.262c-.135.072-.216.152-.187.247.021.07.083.092.173.084.154-.01.387-.1.662-.204a2.98 2.98 0 0 0 .267-.128m-.55 2.19a2.823 2.823 0 0 0-.448-.48.567.567 0 0 0-.136-.081c-.055-.02-.103-.019-.135.013-.028.031-.028.091-.01.164.012.045.03.095.058.148.077.162.208.358.373.55l.073.08c.017.019.034.034.051.052.247.226.47.235.47.235s.001-.18-.145-.449a1.158 1.158 0 0 0-.104-.164.287.287 0 0 0-.047-.068m-1.27-1.617c.084.326-.187.677-.6.784-.415.108-.82-.069-.904-.394-.086-.326.182-.676.598-.788.416-.105.82.07.906.398M30.67 84.628c.036-.117.042-.221-.014-.288-.04-.05-.106-.047-.18-.003-.128.073-.28.268-.385.55a1.656 1.656 0 0 0-.045.126c-.126.386-.124.674-.124.674s.291-.285.465-.519c.026-.038.05-.072.07-.107a2.29 2.29 0 0 0 .213-.433"/>
    <path d="M29.081 82.76c-.204.146-.728.62-.42 1.359.36.86 1.176.9 1.385.895.012-.042.027-.083.045-.127.105-.281.257-.478.384-.55-.037-.256-.096-.585-.173-.787-.105-.259-.34-.598-.47-.778-.127.067-.363.099-.751-.012m2.462-1.179c-.082-.117-.143-.392-.172-.793-.002-.029-.002-.051-.002-.076-.223-.18-1.011-.724-1.76-.11-.774.628-.49 1.434-.363 1.71.15.028.5.09.641.205.175-.136.468-.367.743-.535.287-.18.67-.319.913-.4"/>
    <path d="M29.182 82.306c-.497-.076-.833.047-.833.047s.11.23.72.401c.005.007.009.007.013.007.387.11.623.078.75.011.088-.046.124-.113.118-.17a.154.154 0 0 0-.062-.084c-.142-.115-.49-.177-.641-.206l-.065-.006m3.682 1.838c-.286-.006-.721 0-1.065.076-.4.085-.889.297-1.13.408a2.252 2.252 0 0 1-.283.54c.127.159.668.746 1.577.63 1.04-.133 1.3-.848 1.346-1.022-.02-.025-.046-.05-.072-.082a2.508 2.508 0 0 1-.373-.55m1.223-1.952c-.087.05-.178.092-.272.128-.271.104-.506.197-.657.207a2.313 2.313 0 0 0-.137.647c-.018.256.026.543.067.73.189.16.356.343.496.546.04.055.073.114.103.165.308.012.99-.076 1.137-1.045.167-1.085-.588-1.337-.737-1.378m-.122-.26c.03-.13.23-1.184-.711-1.668-.664-.342-1.215.01-1.49.255.012.054.023.11.03.18.039.33.03.64-.03.813.079.057.366.278.681.423.284.133.633.235.726.26.133-.07.32-.13.51-.194.092-.028.189-.053.284-.07"/>
    <path d="M31.793 80.699a1.46 1.46 0 0 0-.029-.18c-.075-.353-.244-.407-.244-.407s-.17.105-.15.6c0 .025 0 .048.002.076.027.401.09.676.172.794.037.05.075.069.12.066.044-.006.073-.06.097-.13.003-.003.003-.003.003-.006.059-.174.069-.483.029-.813m2.294 1.493c.237-.127.501-.288.49-.313-.012-.016-.305-.007-.613.053a2.488 2.488 0 0 0-.283.07c-.19.063-.378.124-.51.193-.136.073-.218.151-.188.243.02.07.082.095.175.089.151-.01.386-.102.657-.207.094-.036.185-.079.272-.128m-.551 2.192a2.773 2.773 0 0 0-.448-.48.664.664 0 0 0-.136-.083c-.058-.021-.103-.018-.135.012-.03.033-.03.093-.01.165a.58.58 0 0 0 .057.145c.077.165.21.361.373.55.026.032.051.058.073.082a.67.67 0 0 0 .054.052c.244.227.464.233.464.233s.005-.176-.14-.445c-.03-.051-.063-.11-.105-.165a.416.416 0 0 0-.047-.065m-1.272-1.618c.085.321-.183.675-.6.783-.415.107-.82-.07-.905-.398-.085-.322.183-.673.599-.78.416-.108.823.065.906.395"/>
    <path d="M50.834 69.662s.881-1.246-2.218-2.494c-2.297-.922-5.456-.726-7.47-1.01-1.68-.232-1.867-.614-1.777-1.034.204-.932 1.774-.322 2.76.209 1.068.572 2.961.758 4.342-.525.492-.455 1.187-.62 1.187-.62s-.816-.52-1.493-.056c-.273.19-.493.384-1.058.427-.984.075-1.167-.24-1.167-.24s.504.337 1.741-.295c1.607-.824.635-2.62.635-2.62s.11.645-.565 1.085c-.947.625-1.738.057-1.738.057s.363.176.926-.033c.704-.268.934-.628.698-1.111-.103-.203-.438-.447-.438-.447s.775 1.018-2.276.806c-1.542-.11-2.077 1.445-2.077 1.445s-.707-.18-1.204-.013c.032-.236-.003-.641-.126-.88-.16.804-.777 1.314-1.055 1.658-.283.345-.897 1.239-.127 2.297.762.884 2.14 1.014 3.019 1.083 1.3.096 3.45.214 5.352.475 2.565.354 2.117 1.583 1.807 1.965-.33.392-.94.414-2.723-.212-1.782-.622-3.643-1.734-7.373-1.586-5.141.197-8.801 3.957-10.68 3.755 0 0 .1.449.061.754-.169 1.302-1.354 2.008-1.354 2.008s-.067-.275-.167-.257c-.117.025-.005.284-.43.6-.398.297-.61.636-.756 1.245 0 0-.212-.417-.335-.05-.163.484-.414.5-.548.557 0 0-.01-.241-.12-.238-.163.006-.23 1.04-2.023.87l-.133.034c-1.316.224-1.547-1.07-2.017-1.523-.303-.294-.674.24-.674.24s-.255-.278-.222-.777c.037-.528.132-.712-.082-1.072-.157-.272-.845-.856-.589-1.848-.313-.01-.936-.23-1.195-2.08-.019-.122.223.032.223.032-.046-.287-.295-.388-.343-.71-.068-.478-.126-1.397.133-1.72.397-.493 1.491-.667.97-1.637a.743.743 0 0 1-.17.275.338.338 0 0 1-.586-.23v-.01c.004-.126.083-.218.181-.322.008-.004.01-.013.016-.015a.956.956 0 0 0-.474.094c.028-.215.384-1.327-.563-1.58a.843.843 0 0 1-.063.441.333.333 0 0 1-.208.194.345.345 0 0 1-.428-.221c-.039-.12.007-.228.066-.361a.82.82 0 0 0 .044-.143c-.913.108-.727 1.3-.714 1.483-.023-.265-.58-1.021-1.11-.679a.287.287 0 0 0-.055.047c.07.05.13.11.174.176a.34.34 0 0 1-.354.528c-.122-.028-.192-.122-.275-.24-.007-.008-.016-.018-.022-.028-.193.25-.163.693.347 1.077.76.58 1.015 2.905.898 3.208-.16.414-.566-.173-.566-.173s-.069.53.314 1.077c.676.97.876 1.394.375 1.229-.154-.05-.317-.198-.317-.198s.027.479.643.984c.244.2.21.308.035.285a.745.745 0 0 1-.358-.152c-.104-.081.168.444.481.86.521.698.994.993.994.993s-.587-.054-1.432-.543c-1.266-.736-.735-1.252-1.112-2.127-.362-.835-.596-.971-.972-1.019-.014 0-.025.004-.036.004a.673.673 0 0 1 .055.237.339.339 0 0 1-.556.256c-.094-.079-.117-.196-.14-.338-.353.187-.344.566-.312.739-.241-.264-.7-.638-1.021-.695-.196-.034-.43.019-.645.13-.009.003-.018.01-.026.013.02.015.043.028.062.043a.337.337 0 0 1 .13.27c0 .178-.14.327-.317.337-.124.006-.221-.063-.332-.151-.015-.013-.033-.02-.047-.036-.223.399-.155 1.158 1.153 1.581 0 0-.629.092-.83.556.15-.01.315.003.436.067.085.037.158.11.188.209a.346.346 0 0 1-.223.429c-.118.035-.228-.013-.359-.07a.504.504 0 0 0-.061-.022c.15.661.682.755 1.132.753 1.951-.022 3.464.912 3.464.912s-.423.028-.656.33c-.243.313-.187.496-.187.496s.173-.162.66-.244c.52-.089.618.098.618.098s-.75.277-.462 1.058c0 0 .305-.331.771-.496.393-.135.84-.107 1.017.149.247.354-.796.698-.796.698.727.433 2.317.225 2.317.225s-1.111.2-1.105.922c0 0 .693-.527 2.046-.002 2.055.796 4.569 1.181 7.862-.155 4.148-1.682 4.26-5.262 10.027-7.17.188.281 1.487 1.49 3.113 2.098 1.307.48 3.154.808 3.712.945.813.196 2.256.504 1.386 2.072-.404.734-.782.948-1.132 1.217-.376-.1-.746-.22-1.11-.357-.362-.13-.626-.05-.735.193.092 0 .183.017.268.053a.305.305 0 0 1-.008.572c-.106.038-.209 0-.327-.047a.031.031 0 0 0-.024-.01c.046.44.415.49.415.49s-.427.159-.42.56a.539.539 0 0 1 .226-.06.31.31 0 0 1 .24.076.31.31 0 0 1 .018.432c-.075.082-.183.098-.31.108l.031.028c.253.316.993.076.993.076s-.17.379.057.654a.702.702 0 0 1 .158-.293.313.313 0 0 1 .229-.108c.167 0 .305.14.305.306 0 .11-.065.193-.152.292a.616.616 0 0 0-.038.053c.043.003.089.013.128.006.356-.053.865-.372 1.104-1.143.287-.892.572-1.081.572-1.081s.747-.701.463.55c.741-.193.652-1.003.652-1.003s.593.272.77.13c.25-.196.008-.78.295-1.194.316-.455.497.076.38.445 0 0 .453-.142.475-.727.025-.38-.129-.821.23-1.147.266-.227.337.101.257.409 0 0 .351.015.41-.598.037-.373-.052-.493.058-.541.132-.054.229.303.229.303s.316-.704-.331-1.124c-1.086-.71-3.84-.224-5.484-2.822-.6-.942-.159-1.384-.159-1.384s2.936 1.381 4.516 1.157c1.912-.272 1.918-1.302 1.918-1.302s.317.059.042.68c0 0 .347-.077.49-.554.277-.92-.301-1.485-.301-1.485.459-.042.474.518.474.518"/>
    <path d="M10.463 74.736c.18-.06.28-.248.224-.429a.341.341 0 0 0-.189-.208c-.12-.064-.285-.076-.435-.067h-.054c-.592.076-.756.515-.844.749 0 0 .364-.313.878-.136.02.006.04.013.06.022.132.057.242.105.36.07m-.344-2.655a.34.34 0 0 0 .187-.607l-.062-.043a1.03 1.03 0 0 0-.397-.14c-.593-.069-.856.31-1 .518 0 0 .433-.215.893.085.014.016.031.024.047.035.11.09.207.158.332.152m2.268-.499a.337.337 0 0 0 .551-.316.673.673 0 0 0-.05-.177 1.026 1.026 0 0 0-.163-.272c-.386-.455-.84-.353-1.084-.296 0 0 .496.144.606.724.023.141.045.258.14.337m4.991-5.372v.01a.34.34 0 0 0 .586.23.748.748 0 0 0 .171-.275c.022-.053.04-.11.054-.167.124-.585-.234-.882-.424-1.04 0 0 .18.468-.19.905-.005.002-.007.012-.015.015-.098.104-.177.196-.182.322m-1.539-1.409c.058.177.25.277.429.222a.334.334 0 0 0 .208-.194.858.858 0 0 0 .063-.441v-.048c-.079-.592-.517-.752-.752-.838 0 0 .283.326.163.796a.828.828 0 0 1-.044.142c-.059.133-.105.24-.067.36m-1.948 1.053a.342.342 0 0 0 .354-.528.98.98 0 0 0-.391-.306c-.547-.234-.908.054-1.103.214 0 0 .486-.085.843.351.006.01.015.02.022.03.083.116.154.21.275.238m28.354 13.16a.305.305 0 0 0 .008-.573.666.666 0 0 0-.269-.053c-.058 0-.115.004-.172.013-.529.082-.662.483-.731.695 0 0 .326-.303.814-.14.008 0 .017.004.023.01.119.048.221.085.327.048m.109 1.007a.313.313 0 0 0-.24-.076.547.547 0 0 0-.225.06.688.688 0 0 0-.186.11c-.426.323-.36.734-.323.958 0 0 .155-.439.68-.512h.003c.126-.01.235-.025.31-.108a.31.31 0 0 0-.019-.432m1.482 1.204a.31.31 0 0 0-.305-.306.317.317 0 0 0-.228.108.7.7 0 0 0-.158.294.772.772 0 0 0-.027.113c-.091.528.242.78.415.92 0 0-.168-.392.114-.784a.605.605 0 0 1 .037-.053c.087-.099.152-.18.152-.292m-1.414-5.653c-3.341-.638-4.039-1.059-5.394-2.364-.14.06-.67 1.005.753 2.364.561.535 1.107.692 1.107.692s-.982-.175-2.247-.047c-.585-.168-1.015-.921-1.803-1.221-.261-.101-.477-.101-.652-.015a.666.666 0 0 1 .23.148c.063.06.102.143.098.234a.31.31 0 0 1-.32.294c-.11-.003-.19-.076-.28-.167-.026-.019-.051-.041-.076-.057-.045.209.022.468.287.73-.36-.01-.71.18-.799.59a.762.762 0 0 1 .335-.063.303.303 0 0 1 .186.538c-.086.072-.193.072-.322.07a.972.972 0 0 0-.167.011c.009.016.015.036.025.048.25.74 1.379.19 1.379.19s-.576.426-.258.929a.623.623 0 0 1 .126-.2.305.305 0 0 1 .536.2c0 .11-.07.192-.156.288a.844.844 0 0 0-.072.104c.794.307 1.428-.895 1.428-.936-.027.871.657 1.068.657 1.068s-.095-.373.262-.616c.401-.269 1.004-.197 1.057-.199-.109.436.05.636.293.712.06-.924 1.787-.955 1.787-.955.096.36.486.483.486.483s-.015-.499.349-.78c.377-.285.996-.303 1.653-.667.77-.427.61-1.258-.488-1.406"/>
    <path d="M35.165 78.475a.306.306 0 0 0-.536-.199.818.818 0 0 0-.185.405c-.091.524.237.783.417.92 0 0-.156-.36.076-.734a.93.93 0 0 1 .072-.104c.088-.096.156-.177.156-.288zm-1.318-1.248a.302.302 0 0 0-.186-.537.75.75 0 0 0-.335.063l-.095.047c-.468.263-.453.683-.45.907 0 0 .168-.325.577-.398a.898.898 0 0 1 .167-.012c.129.003.237.003.322-.07zm.348-1.571a.311.311 0 0 0 .32-.294.307.307 0 0 0-.098-.234.84.84 0 0 0-.395-.2c-.525-.115-.794.203-.939.378 0 0 .383-.145.755.126.025.016.05.037.076.057.092.091.17.164.281.167zm-8.4-6.567l-.022.048c-.027.07-.296.667-.894.733l-.04.003c-.382.032-.753-.225-.753-.225s-.063-.025-.114.43c-.035.37-.262.383-.262.383s-.057-.546.069-.935c.164-.5.63-.483.63-.483h.005a.372.372 0 0 0-.066.236.396.396 0 0 0 .42.358.396.396 0 0 0 .358-.42.462.462 0 0 0-.057-.168h.697l.049-.006-.02.046zm-2.133 3.615c-.47.405-.388 1.012-.49 1.429-.126.511-.588.76-1.096.654-.44-.07-.857-.335-.891-.796-.039-.534.84-1.236.281-1.9-.462-.546-.435-.802-.435-.802s.122.17.422.328c.107.054 1.005.471 1.18-.215.047-.176-.086-.275-.2-.356-.064-.048-.158-.096-.209-.155-.14-.155-.027-.344-.027-.344s.248.325.682.394c.448.074.83-.126.83-.126s.102.316-.256.36c-.193.025-.483.04-.515.281-.112.8 1.041.625 1.392.569.28-.041.41-.082.41-.082-.233.339-.654.398-1.078.761zm-2.745-4.503v-.103l.044.021.64.27a.387.387 0 1 0 .609.245l.003.004s.437.167.394.689c-.032.41-.29.887-.29.887s-.21-.095-.102-.448c.13-.442.064-.442.064-.442s-.444.09-.785-.086l-.035-.018c-.524-.292-.545-.943-.542-1.019zm7.08.876c.143-1.207-.691-1.116-.691-1.116s.331-.24.441-.666c.201-.743-.24-1.723-.24-1.723s-.45.812-.998.24c0 0 .308-.325.253-1.05-.058.207-1.736 1.484-2.212-.798-.95.208-.869 1.132-1.456 1.065-.31-.038-.623-.29-.386-.888 0 0-.86.047-.986.938-.156 1.11-.702-.372-1.429-.316-.012 0-.546.585-.518 1.814-.657.032-.957.55-1.02 1.375-.184 2.354-.808 1.577-.8 1.624.208 1.439 1.021.676 1.021.676-.139 1.009-1.05.458-1.05.458.266 1.543.911 1.038.911 1.038-.294 1.285.195 1.62.373 1.867.222.315.329.442.243.998-.076.49-.041.67-.041.67s.385-.391.663-.098c.432.449.686 1.823 1.672 1.65 0 0-.117-.598.098-.598.193 0 .269.521.269.521.265.032 1.01.143 1.424-.385.244-.312.305-.76.565-.74.194.014.217.383.217.383.173-.104.206-.206.285-.629.098-.53.365.029.365.029.07-.376.274-.74.645-.974.462-.294.33-1.105.604-1.301.294-.22.366.647.366.647s1.008-.78.658-2.123c-.159-.597-.33-1.106-.136-1.153.178-.047.142.534.54.768.287.164.714-.07.714-.07-.512-.573-.43-1.539-.363-2.133h-.001z"/>
    <path d="M21.975 74.497c.995.262 1.012-.775 1.025-.967.062-1.053.79-1.135.913-1.255-.336.066-1.022.041-1.24-.354-.23.126-.622.2-1.081 0 .135.14.23.341.26.426.094.262.01.569-.095.815-.1.232-.685 1.103.218 1.335M48.233 56.93c-8.019-.268-10.044-2.551-10.044-2.551s-.919 1.52 2.76 3.132c0 0-1.246-.205-1.935-.237-.817-.041-1.694.124-1.694.124s-.926-.85-1.573-1.085c-.213-.075-.558-.17-.863.007.098.038.19.089.255.153a.334.334 0 0 1-.22.586c-.124 0-.214-.076-.32-.17a.698.698 0 0 0-.107-.076c-.161.44.128.742.325.862-.93.202-1.207.433-1.213.91a.702.702 0 0 1 .3-.075.326.326 0 0 1 .26.097.33.33 0 0 1-.004.471c-.088.09-.205.098-.346.105-.026.003-.053.003-.075.012.193.339.611.506 1.196.306.118-.035.233-.079.344-.131.111-.052-.51.578-.297 1.13a.758.758 0 0 1 .178-.196.342.342 0 0 1 .27-.07c.181.036.302.21.268.393-.02.12-.11.196-.223.281-.025.021-.05.044-.073.067.068.027.146.056.237.082.515.148.942-.285 1.295-.714.698-.857 1.391-.594 1.391-.594-.47.467-.031 1.035-.031 1.035s.386-.906 1.025-.654c-.13.554.421.866.421.866s.33-.894.757-.894c.565 0 .28.863.28.863s.31-.042.795-.525c.318-.318.59-.666 1.247-.622-.02.11.086.724.657.998-.016-2.126 2.977-2.408 3.472-2.502 1.433-.281 1.285-1.384 1.285-1.384"/>
    <path d="M34.918 57.061a.335.335 0 1 0 .22-.588.752.752 0 0 0-.255-.153.762.762 0 0 0-.186-.053c-.578-.104-.863.255-1.014.452 0 0 .398-.168.81.095a.702.702 0 0 1 .106.075c.106.095.196.172.319.172m-.758 2.018a.329.329 0 0 0 .003-.471.323.323 0 0 0-.258-.098.703.703 0 0 0-.3.076c-.058.025-.112.05-.16.081-.486.336-.434.791-.405 1.037 0 0 .175-.43.699-.509.023-.009.048-.009.075-.012.14-.007.258-.016.346-.104m1.538 1.548a.338.338 0 0 0-.267-.392.34.34 0 0 0-.27.07.74.74 0 0 0-.179.195 1.03 1.03 0 0 0-.103.203c-.207.55.096.894.26 1.077 0 0-.1-.442.264-.805a.789.789 0 0 1 .072-.067c.113-.085.202-.161.223-.281m-15.367-6.444c1.109.387 1.223-.787 1.255-1.008.169-1.191 1.004-1.22 1.156-1.343-.393.046-1.167-.042-1.379-.513-.273.122-.726.166-1.23-.103.138.172.23.411.255.509.084.308-.043.65-.182.92-.134.255-.88 1.19.125 1.538"/>
    <path d="M25.171 48.382l-.026.05c-.037.082-.398.734-1.087.752l-.045.004c-.436 0-.837-.326-.837-.326s-.066-.035-.165.48c-.075.418-.337.405-.337.405s-.013-.621.167-1.054c.23-.551.758-.494.758-.494h.005a.459.459 0 0 0-.093.266v.004c0 .243.2.444.444.444a.446.446 0 0 0 .396-.645l.791.063h.057l-.028.051zm-2.76 3.917c-.57.415-.531 1.114-.682 1.578-.192.569-.739.813-1.307.645-.495-.123-.942-.462-.939-.991.003-.609 1.066-1.325.49-2.131-.472-.66-.418-.951-.418-.951s.122.205.448.41c.118.073 1.1.63 1.362-.135.068-.195-.073-.323-.196-.427-.067-.057-.172-.119-.224-.19-.142-.192.003-.395.003-.395s.253.389.74.512c.504.12.952-.07.952-.07s.09.368-.32.386c-.225.013-.555 0-.614.27-.2.902 1.129.811 1.533.78.32-.029.47-.058.47-.058-.296.364-.78.394-1.298.767zm-2.705-5.377l.007-.056.003-.056.044.028.708.365a.44.44 0 0 0 0 .753c.207.127.48.064.609-.143a.454.454 0 0 0 .06-.275l.004.003s.48.228.384.819c-.075.464-.413.982-.413.982s-.227-.128-.073-.518c.187-.49.11-.499.11-.499s-.51.066-.88-.165l-.037-.024c-.573-.38-.537-1.126-.526-1.214zm8.072.062c.333-.82-.077-2.31-.077-2.31s-.671 1.061-1.24.494c-.521-.526.037-1.368.037-1.368-.646-.21-1.186.673-1.989.234-.556-.307.096-1.315.096-1.315s-.728-.025-1.303.259c-.563.277-.815.506-1.203.492-.538-.019-.351-.902-.351-.902s-.634-.016-1.013.64c-.376.647-.792.816-.792.816-.172-.278-.556-.281-.846-.362-.32-.093-.538-.24-.538-.24s-.597 1.14-.326 2.081c-.448.121-.569.62-.64.873-.52 1.884-1.297 1.042-1.29 1.099.148 1.662 1.11 1.612 1.024 1.997-.114.528-1.008-.188-1.008-.188.025 1.168.552 1.247.764 1.942.187.604-.193 1.01.114 1.937.316.96.082 1.317.082 1.317.653.01 1.075-.457 1.075-.457-.127 1.23.453 1.809.453 1.809s.362-.751.515-.246c.41 1.333 1.082 1.815 1.082 1.815s.607-.026 1.679-1.154c.747-.788.41.231.41.231s.526.04 1.608-1.943c.35-.646.933-1.018 1.143.027 1.24-1.34.809-2.787.809-3.292 0-.452.22-.506.24-.297.125 1.229 1.42.815 1.42.815s-.524-.537.014-2.423c.27-.942-.255-1.855-.255-1.855s.24-.37.306-.526z"/>
    <path d="M57.727 56.051s.073-1.138-.757-1.44c-1.086-.393-2.493.12-5.278-.142-6.765-.636-5.933-3.08-5.933-3.08s4.253 1.888 6.056 1.006c.994-.487.926-1.343.926-1.343.28.324-.022.967-.022.967s1.745-1.28-.332-3.28c-.75-.723-2.132-1.254-3.162-1.39-2.978-.389-4.116-.228-6.212-.52-1.76-.241-2.155-.868-2.062-1.357.268-1.454 3.538.61 5.337-.183.484-.216.88-.551 1.295-.652.434-.101.876.036.876.036s-.427-.766-1.814-.468c-1.143.24-1.23-.15-1.23-.15s.533.051 1.23-.354c.445-.26.566-.828 1.05-1.039.601-.257 1.2-.015 1.2-.015s-.776-1.328-2.28-.55c-1.022.663-1.395.18-1.395.18s.792 0 1.23-.877c.378-.757.865-.879.865-.879s-.768-.368-1.42.274c-.42.409-1.034.527-2.087.511-1.332-.018-1.865 1.567-1.865 1.567s-.527.033-.986.263c-.401.206-.86.651-.86.651l.167-.515s-.986.493-1.015 2.014c-.05 2.565 2.735 2.769 3.648 2.842 1.352.105 3.931.175 5.91.444 2.677.37 2.751 1.603 2.398 2.18-.39.637-1.498.313-3.351-.341-1.865-.651-3.433-1.732-7.193-1.612-5.941.185-12.227 4.424-14.046 3.34.092.689-.07 2.108-1.632 3.372-.057-1.056-.382-.92-.74-.28-.995 1.793-2.03 1.97-2.03 1.97s.191-.61-.477-.024c-.412.36-.913.6-1.451.695-.538.096-.946-.685-1.17-1.75-.03-.136-.193.337-.193.337-.792-.386-.977-1.642-.977-1.642s-.377.245-1.248.107c0 0 .49-.539-.061-1.932-1.092 0-5.395-.752-5.933-2.973-.202-.83-.448-1.23-.97-1.264a.876.876 0 0 1 .107.158.358.358 0 0 1-.443.509c-.123-.048-.185-.157-.255-.292a.952.952 0 0 0-.082-.119c-.424.328-.288 1.02-.288 1.02-.487-.404-1.483-1.079-2.069-.662.108.04.211.1.283.17a.385.385 0 0 1-.252.676H6.73c-.143 0-.244-.09-.365-.196a1.39 1.39 0 0 0-.17-.12c-.511.834 1.16 1.744 1.16 1.744-.636-.041-1.54.46-1.52 1.034a.762.762 0 0 1 .284-.087.355.355 0 0 1 .285.08.36.36 0 0 1 .031.509c-.087.098-.211.12-.36.136-.023.003-.047.01-.07.012.168.345.462.575 1.28.343 1.982-.557 3.322-.197 3.322-.197s-.059.66-.955.49c-.041-.01.351.508 1.157.508 1.059 0 1.62-.422 1.64-.433 0 0 .052.25-.25.405-.635.324-.222 1.021-.222 1.021.346-.775.985-.475.985-.475-.115.156-.261.611.116.957 0 0 .04-.45.745-.63a1.54 1.54 0 0 1 .904.053s-.409.577.082 1.23c0 0 .21-.94.864-.662.273.116.24.409.157.536-.126.19-.42.239-.42.239 1.018.483 1.275-.313 2.06.41-1.01.465-2.27.557-3.434.497-2.45-.215-2.952-.697-3.53-1.22-.784-.752-1.404-.834-1.778-.718a.6.6 0 0 1 .125.096.385.385 0 0 1-.252.676h-.003c-.142-.002-.244-.089-.365-.2-.028-.021-.058-.047-.088-.066-.216.377.184.709.304.873a8.486 8.486 0 0 1-.457-.088c-.514-.115-.954.076-1.082.464a.886.886 0 0 1 .415.025.384.384 0 0 1 .059.717c-.127.063-.258.029-.413-.019l-.143-.028c.151.664.915.748 1.507.774-.285.17-.582.42-.516.815a.782.782 0 0 1 .278-.167.337.337 0 0 1 .282.016c.163.094.225.3.132.464-.06.107-.171.152-.306.199-.035.017-.07.029-.101.048.474.502 1.637-.158 1.96-.342.925-.527 1.723-.432 2.181-.206.864.428-.3.782-.3.782.283.233.747.125 1.028 0 .263-.118.513-.317.634-.136.073.114.036.31-.16.483-.145.127-.372.177-.372.177 1.077.414 2.08-.581 2.08-.581s.084.133-.015.392c-.163.42-.564.577-.564.577 1.17.348 1.768-1.041 1.768-1.041s.558.43-.131 1.041c.96.026 1.085-.76 1.56-.457.273.176.125.568-.271.65 1.106.38 1.015-.612 2.3-.395 1.884.323 4.045.601 7.357-.679 5.078-1.947 5.602-6.424 11.164-7.048 0 0 .474.974 4.282 2.005 4.04 1.087 10.243.247 9.964 2.17-.142.977-2.904-.432-3.25.547a.5.5 0 0 0-.016.048.766.766 0 0 1 .308-.004.318.318 0 0 1 .227.153c.1.157.05.365-.108.463-.104.064-.222.045-.36.02-.014-.003-.028-.003-.045-.003.11.208.33.325.564.366-.333.174-.526.307-.551.746-.002.04 0 .081.004.123a.613.613 0 0 1 .196-.107.319.319 0 0 1 .275.013c.167.085.228.29.143.455-.058.107-.168.15-.3.202l-.039.018c.208.196.498.285.766.193.296-.095.431-.199.486-.262-.088.155-.275.519-.18.812.022.1.075.192.152.26a.744.744 0 0 1 .122-.31.337.337 0 0 1 .28-.154c.168 0 .311.126.333.293.016.12-.045.22-.126.338-.009.012-.017.032-.024.044.706.025 1.335-.92 1.46-1.738.156-1.053.487-.89.487-.89s.006.208.195.4c.19.19.422.199.422.199-.032-.714.494-.935.721-.736.236.2.043.63.043.63s.365.128.788-.599c.24-.385.22-.88.507-.915.38-.014.223.47.223.47.894-.484.34-1.908.69-2.064.271-.076.163.446.163.446s.562-.303.399-.92c-.241-.9.202-.158.202-.158"/>
    <path d="M6.437 53.179a.364.364 0 0 0-.032-.51.355.355 0 0 0-.284-.08.76.76 0 0 0-.284.088c-.07.034-.136.076-.193.12-.493.39-.402.873-.354 1.13 0 0 .16-.474.717-.6.022-.003.046-.01.07-.013.148-.015.273-.037.36-.135m.295-2.965c.214 0 .384-.17.385-.385a.388.388 0 0 0-.13-.29.853.853 0 0 0-.284-.17 1.237 1.237 0 0 0-.225-.07c-.664-.119-.99.295-1.168.518 0 0 .43-.18.885.082.058.034.114.072.17.12.122.108.224.195.367.195m2.665-.792a.362.362 0 0 0 .443-.51.879.879 0 0 0-.108-.157 1.126 1.126 0 0 0-.26-.215c-.54-.325-.963-.07-1.19.07 0 0 .461-.02.778.401.03.038.058.078.082.12.069.134.132.243.255.291m-.884 10.612a.345.345 0 0 0-.132-.465.336.336 0 0 0-.281-.016.779.779 0 0 0-.279.168 1.19 1.19 0 0 0-.122.123c-.374.461-.189.89-.091 1.121 0 0 .043-.451.498-.685.031-.02.066-.031.101-.047.135-.048.246-.092.306-.2m.087-3.58h.003a.385.385 0 1 0 .252-.676.574.574 0 0 0-.126-.096 1.159 1.159 0 0 0-.381-.142c-.666-.122-.991.293-1.168.517 0 0 .48-.205.967.132.03.018.06.044.088.066.12.11.223.197.365.199m-1.215 1.725a.383.383 0 0 0-.059-.717.873.873 0 0 0-.414-.026.919.919 0 0 0-.147.028c-.653.178-.77.69-.832.968 0 0 .333-.373.895-.3l.145.028c.154.047.286.082.412.019m42.346.701a.335.335 0 0 0 .108-.464.316.316 0 0 0-.227-.152.779.779 0 0 0-.308.004 1.41 1.41 0 0 0-.178.05c-.547.215-.6.67-.626.916 0 0 .28-.394.826-.338.017 0 .03 0 .044.004.14.025.257.044.361-.02m.226 1.613a.34.34 0 0 0-.143-.455.324.324 0 0 0-.275-.013.619.619 0 0 0-.197.107c-.07.054-.14.12-.193.187-.36.464-.172.882-.072 1.11 0 0 .04-.484.541-.716.015-.005.026-.012.039-.018.132-.05.243-.094.3-.202m1.621 1.052a.339.339 0 0 0-.377-.29.346.346 0 0 0-.236.151.762.762 0 0 0-.123.31c-.01.05-.017.104-.022.153-.026.59.373.823.587.946 0 0-.245-.41.02-.888.008-.012.016-.031.025-.044.08-.117.142-.218.126-.337M6.501 29.596a.385.385 0 0 0 .406-.598.628.628 0 0 0-.084-.108 1.148 1.148 0 0 0-.355-.244c-.616-.273-1.03.053-1.255.23 0 0 .582-.097.98.442.003.006.01.012.013.018.085.124.164.225.295.26m41.261 7.528c-6.992-.21-9.3-2.744-9.3-2.744s-1.179 1.795 1.72 2.97c0 0-.54-.152-1.229-.211-.817-.064-1.176-.073-1.176-.073s-.612-.935-1.7-1.118a2.74 2.74 0 0 0-.84-.029c.016.016.033.029.048.043a.336.336 0 0 1-.269.569c-.123-.012-.205-.094-.302-.194a1.034 1.034 0 0 0-.13-.111.785.785 0 0 1-.037.036c-.179.21-.255.5-.1.848-.999.136-1.324.446-1.406.853h.002c.153-.052.342-.076.486-.034a.336.336 0 0 1 .092.623c-.107.06-.222.035-.358.002a1.116 1.116 0 0 0-.222-.018c.1.525.73.906 1.734.485.244-.103-.615.303-.279 1.181a.749.749 0 0 1 .078-.166.335.335 0 0 1 .616.115c.022.121-.038.224-.11.344a.948.948 0 0 0-.105.247c.006 0 .006 0 .01.002.85.37 1.744-.652 1.852-1.134 0 0 .083.616.457.879.006.003.054-.263.253-.477.368-.404.335.08.335.08-.002.732.462.854.462.854s-.07-.843.581-.979c.266.904 1.267-.48 1.166-.067-.227.92.175 1.2.175 1.2s.086-1.105 2.286-1.229c-.018.107.061.725.623 1.019.155-2.12 3.166-2.147 3.667-2.228 1.438-.23.92-1.539.92-1.539"/>
    <path d="M35.016 36.53l.026.001a.339.339 0 0 0 .243-.57l-.048-.042a.952.952 0 0 0-.377-.198c-.568-.15-.88.188-1.047.371 0 0 .388-.132.77.133.046.032.087.068.131.11.097.102.179.185.302.195zm-1.753 2.024c.135.031.25.057.358-.003a.334.334 0 0 0-.092-.622.868.868 0 0 0-.486.034h-.002c-.552.187-.627.642-.666.885 0 0 .234-.303.666-.313.07 0 .142.003.222.019zm1.927 1.596a.336.336 0 0 0-.616-.114.752.752 0 0 0-.077.166c-.03.1-.05.207-.05.305 0 .591.405.805.623.92 0 0-.191-.296-.095-.686a.953.953 0 0 1 .105-.247c.072-.12.133-.222.11-.344zM24.847 28.462l-.025.052c-.037.083-.386.739-1.073.772l-.046.003c-.436.006-.84-.313-.84-.313s-.071-.032-.16.483c-.068.417-.33.41-.33.41s-.024-.622.148-1.057c.225-.553.753-.505.753-.505h.003a.443.443 0 0 0-.089.266c.004.24.203.437.444.437.244 0 .444-.2.444-.444v-.007a.435.435 0 0 0-.053-.197l.796.051.056-.003-.028.052zm-2.692 3.964c-.566.424-.516 1.122-.66 1.59-.179.572-.724.82-1.293.663-.498-.113-.952-.442-.958-.972-.006-.61 1.045-1.346.457-2.142-.484-.652-.435-.945-.435-.945s.129.206.456.406c.12.07 1.109.61 1.358-.16.063-.197-.077-.32-.202-.423-.067-.058-.172-.119-.227-.188-.144-.188-.005-.394-.005-.394s.26.387.748.499c.508.116.952-.086.952-.086s.096.367-.316.395c-.222.015-.551.01-.606.278-.186.907 1.142.79 1.543.754.322-.032.47-.065.47-.065-.289.37-.772.407-1.282.79zm-2.797-5.332l.005-.056.005-.055.044.025.714.357a.38.38 0 0 0-.142.142.444.444 0 0 0 .763.455.455.455 0 0 0 .052-.275h.003s.486.222.402.816c-.067.464-.399.992-.399.992s-.229-.13-.081-.523c.18-.492.107-.498.107-.498s-.515.074-.89-.15l-.036-.027c-.579-.37-.556-1.115-.547-1.203zm7.894 1.308c.245-1.14-.65-1.166-.65-1.166s.384-.26.531-.743c.255-.847-.213-1.985-.213-1.985s-.3.841-1.235.435c0 0 .465-.545.098-1.55-.073.237-.262.471-.538.632-.475.276-1.03.218-1.232-.133-.177-.303-.03-.73.325-1.017-.133-.038-.72-.185-1.263-.026-.571.168-1.445.746-1.445.746s-.595-.465-.296-1.14c0 0-.898-.095-1.2.941-.133.452-.515.496-.515.496s-.068-.72-.719-.922c-.012-.006-1.207.85-1.194 2.464-.443.13-.62.642-.664.901-.553 3.291-1.4 1.732-1.392 1.785.184 1.66 1.316 1.423 1.316 1.423-.2 1.15-1.398.538-1.398.538.44 1.678 1.452.98 1.452.98-.716 1.233-.176 2.178.208 3.13.407.875.392 1.616.392 1.616s.481-.256.74-.251c.368.003.251.398.262.899.012.7.3.906.3.906s.038-.132.156-.31c.188-.286.291-.248.291-.248s-.098.88.476 1.316c0 0 .809-1.179 1.26-1.094.295.054.478.768.478.768 2.332-1.476 2.651-4.708 3.089-3.561.116.285.13.553.13.553s1.429-.85 1.275-3.997c0 0 .254.256.697.378.44.123.691-.019.691-.019s-.624-.839-.213-2.745z"/>
    <path d="M20.108 34.342c1.112.367 1.208-.805 1.235-1.025.15-1.196.983-1.238 1.134-1.364-.391.054-1.169-.022-1.386-.49-.272.126-.725.177-1.233-.082.143.17.237.408.263.505.09.307-.033.649-.167.923-.13.255-.86 1.202.154 1.533M6.396 32.624a.366.366 0 0 0-.03-.51.354.354 0 0 0-.286-.083.871.871 0 0 0-.407.157c-.025.018-.05.033-.07.05-.493.388-.404.872-.356 1.13 0 0 .142-.43.634-.577.048-.013.097-.027.154-.036.15-.017.273-.034.361-.132m2.942-3.928c.171.098.393.04.494-.13a.348.348 0 0 0 .027-.297c-.006-.028-.02-.057-.033-.084a.99.99 0 0 0-.263-.347c-.482-.41-.94-.229-1.187-.13 0 0 .504.064.73.593l.03.063c.046.146.088.262.202.332m-.819 7.034a.36.36 0 0 0 .524-.427.81.81 0 0 0-.126-.243 1.096 1.096 0 0 0-.176-.186c-.48-.413-.94-.228-1.184-.13 0 0 .545.066.76.654l.02.066c.04.114.084.21.182.266m-1.555 1.867a.388.388 0 0 0 .234-.495.404.404 0 0 0-.224-.226 1.013 1.013 0 0 0-.476-.06l-.084.01c-.666.114-.83.616-.92.885 0 0 .342-.32.867-.225.061.011.126.03.193.053.152.061.278.107.41.058m1.542 1.654a.376.376 0 0 0-.31-.07.89.89 0 0 0-.376.164c-.042.03-.083.062-.122.095-.498.455-.364.967-.295 1.242 0 0 .146-.572.8-.72l.014-.002c.153-.03.28-.062.363-.168a.386.386 0 0 0-.074-.541"/>
    <path d="M56.619 34.709c-.485-.235-1.269-.135-2.207-.035-.735.075-1.563.155-2.406.068-5.648-.566-6.104-2.645-5.882-2.506 0 0 1.222.617 3.07.978 5.04.983 5.075-1.773 5.075-1.773s.167.119.217.424c.056.35-.185.834-.185.834s.63-.468.63-1.168c0-1.047-.687-1.414-.687-1.414s.142-.016.393.202c.253.217.4.751.4.751s.261-.872-.704-1.68c-2.705-2.263-8.55-1.82-10.803-2.143-1.973-.282-2.488-1.093-2.345-1.93.24-1.375 2.086-1.412 2.086-1.412-.1 1.5 1.765 2.483 3.539 2.088.986-.22 1.583-.556 2.283-1.12.528-.425.95-.621.95-.621-.91-.175-1.494.186-1.86.338-.387.172-.8.282-1.222.323-1.103.094-1.206-.642-1.206-.642s.818.392 1.883.142c3.065-.714 2.06-3.58 2.06-3.58s-.267 1.087-1.223 1.486c-.91.378-1.659-.216-1.659-.216s1.481.152 1.797-1.011c.18-.657-.442-.998-.442-.998s.133 1.474-3.412 1.254c-1.548-.095-1.542 1.228-1.542 1.228s-.253.004-.882.189c-.578.169-.97.44-.97.44.154-.426.782-.63.782-.63-.823 0-1.502.63-1.502.63-.007-.16.12-.384.12-.384-.028.045-.912.787-1.115 2.354a2.859 2.859 0 0 0 .652 2.205c.85.999 2.476 1.129 3.46 1.208 1.455.109 3.865.236 5.99.53 2.879.398 3.05 1.36 2.672 1.97-.421.686-1.7.704-3.694 0-1.999-.699-6.006-2.15-8.89-2.137-7.617.032-11.03 3.258-13.305 2.657.067 2.92-2.026 4.086-2.026 4.086-.312-1.611-.094 1.315-3.188 2.837 0 0-.025-.726-.343-.789-.421-.085-1.019 1.053-1.019 1.053a2.325 2.325 0 0 1-.87-1.129l-.157.33s-.515-.328-.628-.876c-.115-.563.056-.98-.192-.992-.282-.013-.894.396-.894.396s.106-.957-.334-1.964c-.247-.64-.606-1.228-.664-1.921-2.447-.458-5.434-1.445-5.502-2.387-.066-.888.093-1.785-.892-2.07.013.03.027.058.034.086a.349.349 0 0 1-.028.297.366.366 0 0 1-.493.13c-.115-.07-.157-.186-.203-.332a1.04 1.04 0 0 0-.028-.063c-.573.332-.335 1.346-.335 1.346-.449-.453-1.385-1.286-1.95-.756a.57.57 0 0 1 .085.109.386.386 0 0 1-.406.597c-.132-.035-.21-.136-.295-.26-.598.844.631 1.852.631 1.852-.178.092-1.162.288-1.165 1a.87.87 0 0 1 .407-.157.35.35 0 0 1 .285.083c.148.133.16.359.031.51-.089.097-.212.114-.361.131-.057.009-.106.023-.154.036.344.494.885.487 1.223.342 1.57-.668 1.975-.289 2.661-.14.486.106.926-.013.932.272.006.24-.224.414-.953.325 0 0 .174.466.975.553 1.207.134 1.577-.162 1.738.044.3.389-.864.534-.864.534.943.718 2.194.165 2.194.165.067.421-.83.512-.83.512s.36.395 1.06.22c.268-.069.5-.187.5-.187s-.208.693.411 1.05c0 0 .345-1.19.841-.884.243.148.276.4.167.54-.154.2-.39.175-.39.175.147.356.777.356.777.356s-.766.477-2.908.445c-2.84-.233-2.675-.55-3.369-1.39-.554-.733-.875-.774-1.128-.664a.81.81 0 0 1 .125.244.361.361 0 0 1-.524.426c-.098-.057-.141-.151-.181-.265-.35.347-.281.665-.119.954-.142-.025-1.483-.217-1.72.399a.993.993 0 0 1 .475.06.4.4 0 0 1 .225.224.388.388 0 0 1-.234.496c-.133.049-.259.003-.41-.058a1.316 1.316 0 0 0-.194-.053.767.767 0 0 0-.01.064c-.018.92 1.321.941 1.985.97-.287.17-.587.425-.515.824a.89.89 0 0 1 .376-.164.386.386 0 0 1 .384.611c-.083.106-.21.138-.363.168.877.58 1.53-.226 1.848-.406.925-.525 2.34-.468 2.706-.074.265.282-.328.617-.328.617.654.085 1.137-.317 1.137-.317s-.128.145-.18.45a.72.72 0 0 0 .224.67c.537-1.043.953-.973 1.161-.777.253.237-.254.596-.254.596.627.314 1.442-.33 1.442-.33s-.06.533.243.825c.415-.751 1.319-.68 1.914-.611 0 0-.854.587-.516 1.324.532-.521 1.2-.713 2.114-.604 1.895.235 5.48 1.309 11.633-4.405 4.157-3.858 6.935-3.36 6.935-3.36 3.697 3 10.792 3.054 12.608 3.19.88.066.893.61.507 1.078-.24.29-.557.36-.58.364 0 0-1.749-.725-2.39.251a.79.79 0 0 1 .336 0 .329.329 0 0 1 .26.32.328.328 0 0 1-.166.285c-.106.06-.217.037-.351.006a.779.779 0 0 0-.146-.016c.073.32.322.417.497.463.078.014.066.024.046.052-.363.351-.359.722-.345.842a.739.739 0 0 1 .26-.125.324.324 0 0 1 .412.313c0 .066-.02.13-.057.184-.065.1-.175.13-.308.163-.035.013-.067.023-.095.036.187.287.516.464 1.023.272.392-.146.494-.232.525-.27-.045.08-.175.367-.033.595a.402.402 0 0 0 .06.075.841.841 0 0 1 .207-.38.323.323 0 0 1 .249-.102c.18.009.32.16.312.341-.004.12-.082.205-.178.302a.738.738 0 0 0-.08.103c.18.024.359.015.443 0 .545-.11.965-.577 1.09-1.721.044-.393.128-.606.221-.713.186-.21.6-.36.6-.36s.173.456-.125.792c1.076.178 1.22-1.516 1.22-1.516s.11.329.354.55c.242.216.577.268.577.268-.199-1.208.277-1.621.506-1.678.454-.114.44.439.44.439s.393-.267.31-.802c-.048-.307-.21-.6-.21-.6s.385-.19.589.326c0 0 .402-.659.03-1.018 0 0 .083-.06.198-.023.077.03.142.084.184.155.042.071.184-.87-.678-1.29"/>
    <path d="M48.871 39.044a.327.327 0 0 0-.093-.603.777.777 0 0 0-.336 0c-.047.01-.093.022-.138.034-.538.187-.609.63-.645.865a.91.91 0 0 1 .861-.29c.134.032.245.054.351-.005m.316 1.719a.325.325 0 0 0-.355-.497.735.735 0 0 0-.26.124 1.06 1.06 0 0 0-.145.123c-.4.41-.259.835-.183 1.063 0 0 .08-.428.54-.615.028-.012.06-.022.096-.034.132-.034.242-.064.307-.165m1.941.731a.33.33 0 0 0-.313-.341.323.323 0 0 0-.248.101.84.84 0 0 0-.207.38c-.004.014-.01.03-.011.043-.126.558.213.846.396 1 0 0-.146-.392.124-.778a.796.796 0 0 1 .081-.103c.096-.098.173-.184.178-.302"/>
  </g>
</svg>
