<svg xmlns="http://www.w3.org/2000/svg" width="120" height="120">
  <defs>
    <linearGradient id="4-a" x1="37.883%" x2="99.876%" y1="49.952%" y2="49.952%">
      <stop offset="0%" stop-color="#A0C2E8"/>
      <stop offset="100%" stop-color="#4A69BF"/>
    </linearGradient>
  </defs>
  <g fill="none" fill-rule="evenodd">
    <path fill="url(#4-a)" fill-rule="nonzero" d="M.077.5v.113c.075 7.776 3.088 14.882 8 20.165.186.186.334.372.52.521 4.688 4.949 11.088 8.297 18.752 8.967.744.074 1.526.111 2.307.111 16.557.224 30.137-13.022 30.36-29.541l-.074 6.288c-.223 16.556-13.804 29.802-30.398 29.578C13.024 36.48-.22 22.862.003 6.305L.077.501z" transform="scale(-1 1) rotate(89.226 -49.75 -14.485)"/>
    <path fill="#4B5CBD" fill-rule="nonzero" d="M93.546 65.51c0 16.56-13.426 29.97-29.971 29.97-23.166 0-35.83-24.072-27.284-42.534 1.155.5 2.425.908 3.826 1.224 2.34.53 5.42.4 8.792.077-9.023 11.548-1.147 29.748 14.666 29.748 10.208 0 18.485-8.277 18.485-18.485 0-14.882-16.552-23.242-28.41-15.597.98-4.897.41-8.954-1.184-12.287h.007a29.17 29.17 0 0 1 11.572-2.08h-.47c.208 0 .415 0 .615.008 7.43.216 14.628 3.203 20.04 8.261.185.17.354.34.532.508 4.919 4.92 8.137 11.525 8.699 18.885.054.755.085 1.525.085 2.302"/>
    <path fill="#FEFEFE" fill-rule="nonzero" d="M63.582 74.135c-7.98 0-11.63-9.905-5.692-15.107l.027-.027c5.547-4.82 14.291-.88 14.291 6.51 0 4.766-3.868 8.624-8.626 8.624M54.11 45.867a23.949 23.949 0 0 1-.46 4.046 31.194 31.194 0 0 1-1.06 3.934c-1.248.146-2.48.285-3.68.392v.009a58.3 58.3 0 0 1-4.18.269c-8.044 13.602 1.21 32.792 18.843 32.792 12.04 0 21.799-9.76 21.799-21.799 0-16.632-17.528-26.344-31.262-19.643"/>
    <path fill="#4B5CBD" fill-rule="nonzero" d="M54.28 54.821c9.11-7.917 23.468-1.445 23.468 10.69 0 7.828-6.351 14.165-14.164 14.164-13.105 0-19.099-16.267-9.348-24.809l.045-.045"/>
    <path fill="#FFF" fill-rule="nonzero" d="M59.405 60.71c4.09-3.554 10.538-.648 10.538 4.801a6.363 6.363 0 0 1-6.36 6.36c-5.885 0-8.577-7.304-4.198-11.14l.02-.02"/>
    <polyline stroke="#23263C" stroke-width=".833" points="33.158 33.158 27.932 27.931 21.764 21.764 0 0" transform="translate(30.824 32.083)"/>
    <path stroke="#23263C" stroke-width=".833" d="M52.588 53.847c-1.247.146-2.479.285-3.68.392v.008c-3.372.323-6.451.454-8.792-.077a21.466 21.466 0 0 1-3.826-1.224C22.956 47.133 25.642 29.78 20 24.384c6.828-1.47 26.59.939 32.466 13.242 1.593 3.333 2.162 7.39 1.184 12.287a30.925 30.925 0 0 1-1.062 3.934z"/>
    <polyline stroke="#23263C" stroke-width=".833" points="8.831 .667 8.822 .667 0 .167" transform="translate(36.66 46.074)"/>
    <line x2="7.229" y1=".417" y2=".417" stroke="#23263C" stroke-width=".833" transform="scale(-1 1) rotate(-86.332 1.851 44.62)"/>
    <line x2="5.103" y1=".417" y2=".417" stroke="#23263C" stroke-width=".833" transform="scale(-1 1) rotate(-2.771 778.588 799.754)"/>
    <path stroke="#23263C" stroke-width=".833" d="M52.588 53.847c-1.247.146-2.479.285-3.68.392v.008c-3.372.323-6.451.454-8.792-.077a21.466 21.466 0 0 1-3.826-1.224C22.956 47.133 25.642 29.78 20 24.384c6.828-1.47 26.59.939 32.466 13.242 1.593 3.333 2.162 7.39 1.184 12.287a30.925 30.925 0 0 1-1.062 3.934z"/>
  </g>
</svg>
