<svg xmlns="http://www.w3.org/2000/svg" width="100" height="42">
  <path fill="#2A406A" fill-rule="evenodd" d="M21.918 0v2.74h27.793A10.915 10.915 0 0 0 42.466 0H21.918zM100 0H84.475l-.913 2.74H100V0zM56.164 0v2.74h16.439L71.689 0H56.164zM0 0h19.178v2.74H0V0zm21.918 8.219H53.08a10.94 10.94 0 0 0-1.125-2.74H21.918v2.74zm78.082 0v-2.74H82.649l-.913 2.74H100zm-43.836-2.74v2.74h18.265l-.913-2.74H56.164zM0 5.479h19.178v2.74H0v-2.74zm43.835 8.22h9.245a11 11 0 0 0 .345-2.74h-9.59v2.74zm-38.355 0h8.218v-2.74H5.48v2.74zm21.917 0h8.219v-2.74h-8.219v2.74zm67.123 0v-2.74H80.822l-.913 2.74H94.52zm-19.178-2.74c.406 1.217.599 1.793.913 2.74H61.643v-2.74h13.7-.001zm-47.945 8.22h22.314a11.022 11.022 0 0 0 2.244-2.74H27.398v2.74h-.001zm-21.917 0h8.218v-2.74H5.48v2.74zm80.822 0h8.218v-2.74h-8.218v2.74zm-24.659 0h8.219v-2.74h-8.219v2.74zm23.745 0l.914-2.74h-7.307l-.913 2.74h7.306zm-7.306 0h-7.306l-.913-2.74h7.306l.913 2.74zm-28.371 2.739H27.397v2.74h24.558a11.022 11.022 0 0 0-2.244-2.74zM5.48 24.658h8.218v-2.74H5.48v2.74zm80.822 0h8.218v-2.74h-8.218v2.74zm-24.659 0h8.219v-2.74h-8.219v2.74zm10.046-2.74h12.786l-.913 2.74h-10.96l-.913-2.74zm-27.853 8.22h9.589c0-.947-.12-1.866-.345-2.741h-9.244v2.741zm30.593 0h7.307l.913-2.741h-9.133l.913 2.74v.001zm-68.95-.001h8.22v-2.74h-8.22v2.74zm21.918 0h8.219v-2.74h-8.219v2.74zm58.905 0h8.218v-2.74h-8.218v2.74zm-24.659-2.74h8.219v2.74h-8.219v-2.74zm-39.725 8.22h30.037c.491-.849.874-1.768 1.125-2.74H21.918v2.74zm54.337 0h3.654l.913-2.74h-5.48c.406 1.217.599 1.793.913 2.74zm10.047 0H100v-2.74H86.302v2.74zM0 35.617h19.178v-2.74H0v2.74zm56.164-2.74h13.7v2.74h-13.7v-2.74zm-34.246 8.219h20.548c2.779 0 5.313-1.036 7.245-2.74H21.918v2.74zm56.164 0l.913-2.74h-1.826l.913 2.74zm8.22 0H100v-2.74H86.302v2.74zM0 41.096h19.178v-2.74H0v2.74zm56.164-2.74h13.7v2.74h-13.7v-2.74z"/>
</svg>
