<svg xmlns="http://www.w3.org/2000/svg" width="120" height="120">
  <defs>
    <linearGradient id="1-a" x1="64.603%" x2="96.207%" y1="49.996%" y2="49.996%">
      <stop offset="0%" stop-color="#F1ADB3"/>
      <stop offset="100%" stop-color="#D4858D"/>
    </linearGradient>
  </defs>
  <g fill="none" fill-rule="evenodd">
    <path stroke="#23263C" stroke-width=".833" d="M43.434 79.54a5.489 5.489 0 0 0 5.472-5.505l-.016-5.545c-.009-2.836 1.775-5.04 3.774-7.051 5.497-5.53 8.511-11.439 8.49-18.699-.034-11.154-8.08-18.68-18.895-18.647-10.818.032-18.817 7.607-18.784 18.76.021 7.26 3.071 13.15 8.602 18.648 2.01 1.999 3.807 4.192 3.816 7.028l.017 5.544a5.488 5.488 0 0 0 5.505 5.472l2.019-.005z"/>
    <line x2="13.728" y1=".417" y2=".417" stroke="#23263C" stroke-width=".833" transform="scale(1 -1) rotate(.17 22398.52 11927.008)"/>
    <line x2="12.998" y1=".417" y2=".417" stroke="#23263C" stroke-width=".833" transform="matrix(1 -.00295 -.00295 -1 35.898 70.125)"/>
    <line x2="12.997" y1=".417" y2=".417" stroke="#23263C" stroke-width=".833" transform="matrix(1 -.00295 -.00295 -1 35.909 73.78)"/>
    <path stroke="#23263C" stroke-linecap="round" stroke-linejoin="round" stroke-width=".833" d="M45.465 46.812c-1.565.005-1.582-5.261-3.148-5.256-1.567.004-1.55 5.271-3.118 5.276-1.57.005-1.584-5.263-3.154-5.258-1.57.005-1.554 5.272-3.123 5.276"/>
    <line x2="3.858" y1=".417" y2=".417" stroke="#23263C" stroke-linecap="round" stroke-linejoin="round" stroke-width=".833" transform="matrix(1 -.00302 -.00302 -1 14.195 44.172)"/>
    <line x2="3.867" y1=".417" y2=".417" stroke="#23263C" stroke-linecap="round" stroke-linejoin="round" stroke-width=".833" transform="scale(1 -1) rotate(30.172 116.998 4.702)"/>
    <line x2="3.83" y1=".417" y2=".417" stroke="#23263C" stroke-linecap="round" stroke-linejoin="round" stroke-width=".833" transform="scale(1 -1) rotate(60.172 47.06 35.86)"/>
    <line x2="3.83" y1=".417" y2=".417" stroke="#23263C" stroke-linecap="round" stroke-linejoin="round" stroke-width=".833" transform="matrix(-.00305 -1 -1 .00305 42.66 19.377)"/>
    <line x2="3.83" y1=".417" y2=".417" stroke="#23263C" stroke-linecap="round" stroke-linejoin="round" stroke-width=".833" transform="scale(-1 1) rotate(-59.825 4.286 37.708)"/>
    <line x2="3.84" y1=".417" y2=".417" stroke="#23263C" stroke-linecap="round" stroke-linejoin="round" stroke-width=".833" transform="scale(-1 1) rotate(-29.825 47.907 55.903)"/>
    <path fill="url(#1-a)" fill-rule="nonzero" d="M16.83 2.307c6.84-5.142 15.233-.85 21.905 4.674 2.315-4.206 9.072-3.59 8.86 6.374l19.63 14.575-14.277 22.224c-.446-.17-.892-.298-1.338-.446-1.487-.447-2.89-.787-4.058-.893-.978-.106-1.934.064-2.677.68C32.063 60.033 8.16 37.555 2.19 31.648c-3.548-3.505-2.592-9.39 1.466-15.7 2.932-4.569 7.5-9.37 13.173-13.64z" transform="scale(-1 1) rotate(57.265 -49.124 -47.03)"/>
    <path fill="#63375B" fill-rule="nonzero" d="M45.676 37.08c-1.45 4.393-1.441 10.504 1.373 19.005 5.535-1.566 9.334-7.047 10.91-11.826a.144.144 0 0 0 .006-.018c.306-.93 1.19-1.536 2.162-1.432 9.295.995 29.377.359 32.896-10.311 1.369-4.145.894-9.75-5.536-11.87-13.109-4.325-17.039 4.512-25.774 5.263-3.345.287-12.966 1.88-16.037 11.19m37.745 21.033c0 1.103-.703 1.998-1.57 1.998-.866 0-1.57-.895-1.57-1.998s.704-1.997 1.57-1.997c.867 0 1.57.894 1.57 1.997m-18.955.036c0 1.103-.703 1.997-1.57 1.997-.867 0-1.57-.894-1.57-1.997 0-1.103.703-1.998 1.57-1.998.867 0 1.57.895 1.57 1.998"/>
    <path stroke="#63375B" stroke-linecap="round" stroke-linejoin="round" stroke-width=".833" d="M73.651 52.891c-4.877 6.783 2.377 12.769 2.39 14.07.017 1.571-4.394 2.648-4.394 2.648m-8.229 3.331c1.514 2.424 4.191 3.18 7.02 2.828"/>
  </g>
</svg>
