<svg xmlns="http://www.w3.org/2000/svg" width="120" height="120">
  <defs>
    <linearGradient id="2-a" x1="81.99%" x2="103.927%" y1="49.999%" y2="49.999%">
      <stop offset="0%" stop-color="#F1ADB3"/>
      <stop offset="100%" stop-color="#D4858D"/>
    </linearGradient>
  </defs>
  <g fill="none" fill-rule="evenodd">
    <path fill="#63375B" fill-rule="nonzero" d="M101.236 69.01c2.982 3.77 2.883 8.89 2.237 12.891H85.147c2.253-5.592 3.389-11.789 3.281-17.539-5.344 3.77-14.49 2.982-22.816 5.08-.531-6.413-.365-12.478-.208-15.585a6.412 6.412 0 0 1 1.375-3.662c1.168-1.466 2.751-3.711 2.876-5.211.19-2.411-1.36-7.25-7.88-2.925-6.52 4.333-20.397-6.677-23.993-12.394-4.73 2.626-8.243 6.654-7.762 20.489.488 13.835 8.037 20.05 13.768 21.002.39 4.018.424 7.63.208 10.745H21.942c-2.411-11.027 3.488-13.67 3.488-21.432 0-14.607-4.897-27.332 9.27-38.16 10.705-8.186 25.244-3.108 30.083 2.062 5.907 6.305 4.374 9.86 10.049 15.435 5.286 5.203 10.77 2.253 13.977 7.298 3.214 5.071-1.309 9.603 2.178 14.765 2.809 4.159 6.952 2.974 10.249 7.141"/>
    <path fill="url(#2-a)" fill-rule="nonzero" d="M11.46 8.803C22.605.58 32.16 2.62 36.476 6.517c1.127-.73 2.19-1.46 3.2-2.19A61.66 61.66 0 0 0 45.02 0l3.918 4.928c-1.481 2.78-2.244 5.421-2.501 7.923-.44 4.262.612 8.17 2.265 11.82-5.357 3.575-9.995 7.472-12.335 9.533a6.387 6.387 0 0 0-2.008 3.36c-.43 1.825-1.202 4.456-2.297 5.486-1.761 1.643-6.517 3.446-7.183-4.348-.665-7.805-17.918-11.83-24.627-11.09-.891-5.335.075-10.585 11.208-18.809z" transform="scale(1 -1) rotate(-51.546 -40.301 -39.89)"/>
    <path stroke="#63375B" stroke-width=".833" d="M40.757 44.76c.832 1.662-.271 6.226-1.639 8.732a1.121 1.121 0 0 0 .414 1.487c1.435.874 2.52.923 2.52.923m10.404-8.775c-.548-.6-1.455-.99-2.482-.99-.91 0-1.727.307-2.282.796m-13.257 0c-.595-.554-1.53-.87-2.553-.788-.74.06-1.401.32-1.899.701m12.1 15.092c.448.118.919.18 1.403.18a5.452 5.452 0 0 0 3.02-.907"/>
    <path stroke="#23263C" stroke-width=".833" d="M85.147 81.901c-5.791 14.324-18.989 24.664-37.83 13.173.432-5.46 1.475-9.768 2.975-13.173 3.405-7.77 9.139-10.91 15.32-12.46 8.325-2.097 17.471-1.309 22.816-5.079.107 5.75-1.028 11.947-3.281 17.54zM31.904 95.375c36.144 2.615 31.222-18.148 50.601-22.147"/>
    <line x2="11.397" y1=".417" y2=".417" stroke="#23263C" stroke-width=".833" transform="scale(1 -1) rotate(74.564 88.98 -7.643)"/>
    <line x2="9.163" y1=".417" y2=".417" stroke="#23263C" stroke-width=".833" transform="translate(64.456 85.434)"/>
    <line x2="6.514" y1=".417" y2=".417" stroke="#23263C" stroke-width=".833" transform="scale(1 -1) rotate(74.197 88.112 7.852)"/>
    <path fill="#4B5CBD" fill-rule="nonzero" d="M54.945 75.017c-1.809 1.758-3.391 4-4.65 6.883h-6.3a61.86 61.86 0 0 0 .066-6.883h10.884z"/>
  </g>
</svg>
