<svg xmlns="http://www.w3.org/2000/svg" width="120" height="120">
  <defs>
    <linearGradient id="5-a" x1="60.889%" x2="93.7%" y1="50%" y2="50%">
      <stop offset="0%" stop-color="#915872"/>
      <stop offset="33%" stop-color="#915872"/>
      <stop offset="100%" stop-color="#7A4A60"/>
    </linearGradient>
    <linearGradient id="5-b" x1="0%" x2="100%" y1="50.016%" y2="50.016%">
      <stop offset="0%" stop-color="#A0C2E8"/>
      <stop offset="100%" stop-color="#7EA9D9"/>
    </linearGradient>
    <linearGradient id="5-c" x1="82.032%" x2="97.376%" y1="49.998%" y2="49.998%">
      <stop offset="0%" stop-color="#F2B079"/>
      <stop offset="100%" stop-color="#D48F55"/>
    </linearGradient>
    <linearGradient id="5-d" x1="51.94%" x2="89.842%" y1="50.004%" y2="50.004%">
      <stop offset="0%" stop-color="#915872"/>
      <stop offset="33%" stop-color="#915872"/>
      <stop offset="100%" stop-color="#7A4A60"/>
    </linearGradient>
    <linearGradient id="5-e" x1="1.61%" x2="96.307%" y1="50.001%" y2="50.001%">
      <stop offset="0%" stop-color="#A0C2E8"/>
      <stop offset="100%" stop-color="#1A5197"/>
    </linearGradient>
    <linearGradient id="5-f" x1="51.827%" x2="94.458%" y1="50.01%" y2="50.01%">
      <stop offset="0%" stop-color="#915872"/>
      <stop offset="33%" stop-color="#915872"/>
      <stop offset="100%" stop-color="#7A4A60"/>
    </linearGradient>
  </defs>
  <g fill="none" fill-rule="evenodd">
    <path fill="#F2B079" fill-rule="nonzero" d="M110.157 40.392a5.673 5.673 0 0 1-1.742 6.775c-7.775 5.975-14.408 9.967-22.475 12.492-.475 4.667-1.517 9.275-3.025 14.242-5.608-4.409-8.875-10.184-11.15-19.659l-.358-2.408c5.458-.975 6.391-2.25 7.075-5.225 6.8-4.283 10.758-5.558 18.333-4.033l-2.317-10.409 9.842-3.55c2.075 3.675 3.9 7.392 5.817 11.775"/>
    <path fill="url(#5-a)" fill-rule="nonzero" d="M1.9 11.738a2.124 2.124 0 0 1-1.337-1.733L.01 5.402a1.61 1.61 0 0 1 .474-1.338c.344-.357.844-.52 1.337-.448 2 .266 4.039.805 6.389 1.442.097.025.195.064.273.103l.006-.006 3-5.155 8.297 6.375a128.617 128.617 0 0 1-5.506 4.811 9.236 9.236 0 0 1-7.869 1.903 30.411 30.411 0 0 1-2.824-.754 24.735 24.735 0 0 1-1.688-.597z" transform="scale(1 -1) rotate(-17.7 -50.302 -282.64)"/>
    <path fill="url(#5-b)" fill-rule="nonzero" d="M15.132 15.868c-.05-.026-.102-.026-.153-.026a9.704 9.704 0 0 0-2.573-.254c-2.42.101-4.56-.153-6.343-.535C2.165 14.237 0 12.76 0 12.76c4.407-.535 6.14-3.72 11.744-4 .994-.05 2.089 0 3.337.153 1.274.153 2.37.331 3.312.484 5.477.994 6.394 2.267 7.082 5.222-.917 1.605-2.548 2.115-4.484 2.115-1.808 0-3.872-.433-5.859-.866z" transform="matrix(1 0 0 -1 53.007 61.24)"/>
    <path fill="url(#5-c)" fill-rule="nonzero" d="M15.726 48.964l-10.054.876A244.84 244.84 0 0 1 .167 30.048 6.174 6.174 0 0 1 4.62 22.65c4.496-1.183 8.643-1.762 12.754-1.718 3.111.035 6.188.43 9.387 1.192 2.428-4.926 5.154-6.75 9.642-9.248l-.955-10.991L57.125 0c-3.892 10.098-5.847 19.196-5.943 31.249L50.2 34.01v.009c-5.566.745-7.021 4.067-11.36 4.996-7.126 2.375-14.507.447-23.588-4.032l.474 13.98z" transform="scale(1 -1) rotate(4.97 1053.92 158.506)"/>
    <path fill="url(#5-d)" fill-rule="nonzero" d="M2.839 16.435c-1.295-3.055-.177-4.06 1.47-6.76-1.647.346-3.45-1.28-3.45-1.28C.298 7.856.03 7.297.002 6.788-.09 5.17 2.18 4.045 4.69 5.68L12.824.007V0a26.01 26.01 0 0 0 4.116 4.851c.63.587 1.174 1.26 1.64 1.98.029.043.05.092.078.135l-3.995 2.468.297 1.584a7.718 7.718 0 0 1-4.894 8.691L4.6 21.725s-.466-2.235-1.76-5.29z" transform="scale(1 -1) rotate(-45 -19.782 -78.924)"/>
    <path fill="#10132B" fill-rule="nonzero" d="M67.798 16.426c2.667 3.158.834 8.566.834 8.566s-1.917 1.25-4.992 2.5c-3.075 1.242-2.992 2.742-3.74 5.817-.918-1.408-3.343-1.533-3.343-1.533-.775-.017-1.359.191-1.742.533 0 0-2.15-5.483 1.008-8.233 3.159-2.742 9.067.25 11.975-7.65"/>
    <path fill="url(#5-e)" fill-rule="nonzero" d="M22.196 29.728C15.212 24.134 8.812 21.062 0 19.088l34.994-12.25 3.62 10.385c-3.73 3.547-5.924 5.96-7.057 11.335-3.291.073-6.363.44-9.361 1.17z" transform="scale(1 -1) rotate(19.29 316.262 13.09)"/>
    <path fill="url(#5-f)" fill-rule="nonzero" d="M5.3 24.288c-1.588-1.744-2.807-3.176-4.051-4.826a6.352 6.352 0 0 1-.663-6.446A302.86 302.86 0 0 1 7.019 0l7.646 6.59-5.608 5.845a1.176 1.176 0 0 0-.325.863c.019.325.169.625.406.831l2.557 2.207a2.32 2.32 0 0 1 .382 3.095c-1.3 1.844-2.6 3.438-4.245 4.97a1.79 1.79 0 0 1-2.376.037c-.056-.043-.106-.1-.156-.15z" transform="scale(1 -1) rotate(-40.732 -41.61 -36.446)"/>
    <line x2="2.435" y1=".417" y2=".417" stroke="#23263C" stroke-width=".833" transform="scale(-1 1) rotate(-81.537 -4.668 68.946)"/>
    <line x2="2.932" y1=".417" y2=".417" stroke="#23263C" stroke-width=".833" transform="scale(1 -1) rotate(-65.475 -8.757 -76.39)"/>
    <path stroke="#23263C" stroke-width=".833" d="M65.973 55.142c1.142 12 3.884 20.892 8.634 30.617a133.24 133.24 0 0 0 2.566 5.017L90.4 89.209V78.451c-2.883-1.4-5.35-2.875-7.484-4.55-5.608-4.409-8.874-10.184-11.15-19.659"/>
  </g>
</svg>
