<svg xmlns="http://www.w3.org/2000/svg" width="150" height="48">
  <g fill="#2A406A" fill-rule="evenodd">
    <path d="M46.894 35.627c-.647.646-1.432 1.257-2.36 1.833-.928.576-1.996 1.06-3.203 1.454-1.208.393-2.543.59-4.004.59-2.08 0-3.976-.366-5.69-1.095a13.091 13.091 0 0 1-4.426-3.056c-1.235-1.307-2.197-2.852-2.886-4.636-.69-1.785-1.033-3.73-1.033-5.838 0-2.05.344-3.975 1.033-5.774.689-1.797 1.651-3.37 2.886-4.72a13.376 13.376 0 0 1 4.447-3.183c1.728-.772 3.646-1.159 5.754-1.159 1.488 0 2.823.184 4.003.55 1.181.364 2.213.82 3.098 1.368a12.01 12.01 0 0 1 2.276 1.791c.632.647 1.145 1.265 1.538 1.855l-2.865 2.445c-.372-.52-.774-1.02-1.202-1.496a8.304 8.304 0 0 0-1.664-1.413 9.694 9.694 0 0 0-2.234-1.053c-.844-.281-1.813-.422-2.908-.422-1.546 0-2.929.295-4.152.885a9.387 9.387 0 0 0-3.119 2.403c-.856 1.012-1.51 2.191-1.96 3.54a13.521 13.521 0 0 0-.674 4.299c0 1.518.232 2.944.696 4.278.464 1.335 1.117 2.494 1.96 3.476a8.99 8.99 0 0 0 3.076 2.319c1.208.563 2.557.842 4.046.842 1.264 0 2.353-.16 3.267-.484.912-.322 1.685-.708 2.318-1.158.631-.45 1.151-.907 1.559-1.37.407-.464.75-.85 1.032-1.16l2.824 2.36c-.309.507-.787 1.083-1.433 1.73v-.001zM28.137 0L10.07 47.1h37.342L65.479 0H28.137zM14.983 22.877H4.313v-9.168h14.189l1.478-3.865L0 9.848v29.97h4.313v-13.12h9.203l1.467-3.82v-.001zm57.695 4.938L68.066 14.65l-4.639 13.165h9.251zM66 9.843h4.145l11.743 29.968h-4.807l-3.1-8.356H62.169l-3.1 8.356h-4.537L66 9.843zm24.352-.008h4.5v1.158h-3.185v1.806h2.38v1.17h-2.38v2.83h-1.315V9.835z"/>
    <polygon points="96.573 9.836 97.889 9.836 97.889 16.799 96.574 16.799"/>
    <path d="M99.922 9.835h1.325l3.372 4.948V9.835h1.285v6.963h-1.295l-3.404-5.011v5.011h-1.283V9.835zm11.671 4.113l-.919-2.704-.929 2.704h1.848zm-1.555-4.113h1.357l2.64 6.963h-1.46l-.607-1.764h-2.589l-.605 1.764h-1.378l2.642-6.963zm5.421 0h1.326l3.372 4.948V9.835h1.284v6.963h-1.294l-3.404-5.011v5.011h-1.284V9.835zm13.938 5.689c-.104.16-.248.324-.432.49a3.952 3.952 0 0 1-1.478.815c-.3.09-.616.135-.95.135-.522 0-1-.09-1.43-.271a3.31 3.31 0 0 1-1.117-.757 3.451 3.451 0 0 1-.731-1.142 3.858 3.858 0 0 1-.261-1.441c0-.508.087-.985.26-1.43a3.5 3.5 0 0 1 3.32-2.255c.317-.003.632.034.94.109.286.073.545.172.778.298.233.125.44.273.622.443.18.171.34.353.48.549l-.93.823a2.873 2.873 0 0 0-.777-.772c-.296-.194-.666-.291-1.112-.291-.342 0-.647.068-.919.203a2.17 2.17 0 0 0-.694.542 2.378 2.378 0 0 0-.439.794 2.98 2.98 0 0 0-.151.955c0 .335.05.648.151.94.101.293.246.546.434.762.187.216.412.385.673.512.261.125.555.188.883.188.298 0 .554-.035.766-.105a2.01 2.01 0 0 0 .92-.59c.1-.114.192-.213.276-.297l.918.793z"/>
    <polygon points="130.938 16.799 132.253 16.799 132.253 9.836 130.938 9.836"/>
    <path d="M137.876 13.948l-.918-2.704-.93 2.704h1.848zm-1.556-4.113h1.358l2.641 6.963h-1.461l-.606-1.764h-2.589l-.606 1.764h-1.378l2.641-6.963zm5.139 0h1.315v5.794h3.435v1.17h-4.75V9.835zM96.261 27.1c-.104.16-.248.323-.433.49-.2.179-.419.335-.653.465-.25.142-.525.259-.824.35-.3.09-.616.135-.95.135-.522 0-1-.09-1.43-.272-.42-.172-.8-.43-1.117-.756a3.444 3.444 0 0 1-.731-1.144 3.861 3.861 0 0 1-.261-1.44c0-.508.086-.985.26-1.43a3.5 3.5 0 0 1 3.32-2.255c.317-.003.633.034.94.11.286.073.545.172.778.297.233.125.44.273.621.444.182.17.341.353.48.548l-.929.824a2.87 2.87 0 0 0-.777-.772c-.296-.196-.667-.292-1.112-.292-.342 0-.647.068-.919.203a2.168 2.168 0 0 0-.694.542 2.385 2.385 0 0 0-.439.794 2.995 2.995 0 0 0-.151.956c0 .334.05.648.151.94.101.292.245.545.434.762.187.215.412.385.673.511.26.124.555.188.883.188.298 0 .554-.035.766-.105.355-.108.673-.312.919-.59.1-.114.193-.213.277-.297l.918.794zm4.547.22a2.13 2.13 0 0 0 1.64-.737 2.44 2.44 0 0 0 .449-.788c.104-.3.156-.613.156-.94a2.84 2.84 0 0 0-.156-.945 2.371 2.371 0 0 0-.45-.778 2.116 2.116 0 0 0-1.639-.719c-.348 0-.659.064-.934.192-.275.129-.51.305-.705.527-.198.228-.35.492-.449.778a2.83 2.83 0 0 0-.156.945c0 .327.052.64.156.94.104.298.254.561.45.788a2.117 2.117 0 0 0 1.638.737zm0 1.24c-.508 0-.981-.095-1.42-.286a3.651 3.651 0 0 1-1.92-1.958 3.646 3.646 0 0 1-.283-1.43 3.702 3.702 0 0 1 1.05-2.593 3.57 3.57 0 0 1 2.573-1.071c.508 0 .982.096 1.42.287a3.64 3.64 0 0 1 2.202 3.377c0 .509-.092.985-.28 1.43a3.652 3.652 0 0 1-1.921 1.959 3.54 3.54 0 0 1-1.42.286l-.001-.001zm5.023-7.15h1.325l3.372 4.948V21.41h1.285v6.963h-1.295l-3.404-5.011v5.01h-1.283V21.41zm10.41 5.794c.793 0 1.399-.19 1.817-.574.417-.383.626-.943.626-1.68 0-.732-.193-1.309-.58-1.734-.386-.424-1.007-.637-1.863-.637h-1.16v4.625h1.16zm-2.475-5.794h2.6c.543 0 1.04.07 1.493.209.453.14.842.351 1.17.637.326.285.581.65.761 1.096.182.445.272.97.272 1.577 0 .577-.093 1.08-.277 1.507a2.97 2.97 0 0 1-.772 1.076 3.227 3.227 0 0 1-1.175.647c-.48.147-.98.219-1.482.214h-2.59V21.41zm7.783 0h1.316v4.165c0 .265.025.503.078.715.052.213.137.394.255.544.119.15.274.264.47.345.195.08.435.119.72.119.286 0 .526-.04.72-.12.184-.072.346-.19.47-.344.12-.15.204-.331.257-.544.051-.212.078-.45.078-.715V21.41h1.315v4.395c0 .39-.062.752-.188 1.086-.125.334-.31.624-.553.872a2.638 2.638 0 0 1-.893.584 3.197 3.197 0 0 1-1.206.214c-.452 0-.854-.072-1.205-.214a2.641 2.641 0 0 1-.893-.584 2.468 2.468 0 0 1-.554-.872 3.07 3.07 0 0 1-.187-1.086V21.41zm13.572 5.69c-.104.16-.248.323-.433.49a3.65 3.65 0 0 1-.652.465c-.25.142-.526.259-.825.35-.3.09-.616.135-.95.135a3.661 3.661 0 0 1-1.43-.272 3.307 3.307 0 0 1-1.117-.756 3.441 3.441 0 0 1-.731-1.144 3.853 3.853 0 0 1-.261-1.44c0-.508.087-.985.26-1.43.175-.445.42-.835.736-1.17a3.507 3.507 0 0 1 2.585-1.085c.34 0 .654.037.94.11.285.073.544.172.777.297.233.125.44.273.622.444.18.17.34.353.48.548l-.93.824a2.898 2.898 0 0 0-.777-.772c-.296-.196-.667-.292-1.112-.292-.341 0-.647.068-.92.203a2.183 2.183 0 0 0-.694.542c-.19.227-.337.492-.437.794a2.968 2.968 0 0 0-.152.956c0 .334.05.648.152.94.1.292.245.545.433.762.187.215.412.385.673.511.261.124.554.188.882.188.3 0 .555-.035.767-.105a2.01 2.01 0 0 0 .92-.59c.1-.114.192-.213.276-.297l.918.794zm3.552-4.531h-2.36V21.41h6.034v1.159h-2.358v5.804h-1.316v-5.804zM93.651 36.938l-.918-2.704-.93 2.704h1.848zm-1.556-4.114h1.358l2.641 6.964h-1.461l-.606-1.765h-2.59l-.604 1.765h-1.378l2.64-6.964zm4.916.001h1.316v4.165c0 .264.026.503.078.715.053.212.138.393.256.543.118.15.274.265.47.345.194.08.434.12.72.12.285 0 .525-.04.72-.12.184-.072.346-.191.47-.345.119-.15.204-.33.255-.543.053-.212.08-.45.08-.715v-4.165h1.314v4.394c0 .39-.062.752-.187 1.087-.125.333-.31.624-.553.871a2.634 2.634 0 0 1-.894.585 3.22 3.22 0 0 1-1.205.214c-.453 0-.855-.072-1.206-.214a2.634 2.634 0 0 1-.893-.585 2.466 2.466 0 0 1-.553-.871 3.074 3.074 0 0 1-.188-1.087v-4.394zm9.385 1.158h-2.36v-1.158h6.035v1.158h-2.36v5.804h-1.315v-5.804zm4.841-1.158h1.316v2.797h3.455v-2.797h1.316v6.962h-1.316v-2.995h-3.455v2.995h-1.316v-6.962zm11.209 5.909a2.116 2.116 0 0 0 1.64-.737c.194-.226.344-.49.448-.788.105-.3.157-.612.157-.94a2.815 2.815 0 0 0-.157-.945 2.346 2.346 0 0 0-.449-.777 2.116 2.116 0 0 0-.71-.527 2.186 2.186 0 0 0-.929-.193 2.106 2.106 0 0 0-1.639.72c-.198.228-.35.492-.448.777a2.82 2.82 0 0 0-.157.946c0 .327.052.64.157.94.104.298.254.561.448.787.195.226.43.406.705.538.275.132.586.199.934.199zm0 1.242a3.52 3.52 0 0 1-1.42-.287 3.626 3.626 0 0 1-1.148-.788 3.751 3.751 0 0 1-.773-1.17 3.656 3.656 0 0 1-.281-1.43 3.672 3.672 0 0 1 1.049-2.594 3.57 3.57 0 0 1 2.573-1.07c.509 0 .982.096 1.42.286a3.66 3.66 0 0 1 2.203 3.378c0 .508-.094.985-.282 1.43a3.637 3.637 0 0 1-1.921 1.958 3.53 3.53 0 0 1-1.42.287zm7.42-4.02c.334 0 .593-.097.777-.291a1 1 0 0 0 .277-.71.975.975 0 0 0-.292-.732c-.196-.188-.45-.282-.762-.282h-1.054v2.015h1.054zm-2.318-3.13h2.307c.44 0 .811.065 1.117.197.306.132.553.301.741.507.189.205.326.43.413.672.086.245.13.477.13.7 0 .439-.095.826-.287 1.164-.19.337-.485.607-.882.81l1.608 2.912h-1.482l-1.41-2.745h-.991v2.745h-1.264v-6.963.001z"/>
    <polygon points="134.22 39.787 135.535 39.787 135.535 32.825 134.22 32.825"/>
    <path d="M139.347 33.983h-2.36v-1.158h6.035v1.158h-2.359v5.804h-1.316v-5.804zm6.907 2.746l-2.412-3.904h1.441l1.67 2.777 1.67-2.777h1.379l-2.412 3.904v3.059h-1.336v-3.06.001z"/>
  </g>
</svg>
