<svg xmlns="http://www.w3.org/2000/svg" width="130" height="61">
  <g fill="#2A406A" fill-rule="evenodd">
    <path d="M29.643 30.957l-2.493.061c-.122 0-.243-.211-.243-.661 0-.421.12-.632.243-.632h6.504c.123 0 .244.21.244.632 0 .45-.121.661-.244.661l-2.31-.06-5.988 20.328a.269.269 0 0 1-.275.212h-2.552c-.121 0-.244-.06-.304-.241l-5.777-16.848-5.535 16.878c-.03.12-.091.212-.274.212H8.088a.3.3 0 0 1-.307-.241l-5.591-20.3-1.947.061c-.122 0-.243-.211-.243-.661 0-.421.12-.632.243-.632h9.333c.123 0 .245.21.245.632 0 .45-.122.661-.245.661l-2.28-.06 3.74 15.674 5.26-16.696a.293.293 0 0 1 .273-.211h2.766c.152 0 .274.092.302.24l5.687 16.817 4.317-15.824.002-.002zm11.072 5.495c-.06 2.673-.089 5.106-.089 7.298 0 2.19.029 4.084.09 6.365l2.313-.06c.148 0 .24.21.24.662 0 .42-.092.63-.24.63h-9.161c-.149 0-.24-.21-.24-.63 0-.452.091-.662.24-.662l2.613.06c.09-2.28.12-4.174.12-6.276 0-2.103-.03-4.325-.12-6.426l-2.613.06c-.149 0-.24-.211-.24-.631 0-.45.091-.662.24-.662h6.578c.18 0 .27.092.27.272h-.001zm21.353 3.004c1.5-2.644 3.692-3.694 6.064-3.694 2.733 0 4.445 1.26 4.445 4.774 0 3.633 0 6.757.06 9.58l2.343-.06c.15 0 .24.21.24.66 0 .42-.09.632-.24.632h-8.798c-.151 0-.24-.212-.24-.632 0-.45.089-.66.24-.66l2.221.06c.06-2.823.091-5.616.091-9.04 0-2.552-.54-3.273-1.953-3.273-2.101 0-4.443 2.042-4.443 5.946 0 3.634 0 3.544.06 6.366l1.8-.06c.15 0 .241.21.241.661 0 .42-.09.632-.24.632H55.7c-.148 0-.24-.212-.24-.632 0-.45.092-.66.24-.66l2.224.06c.058-2.823.09-5.616.09-9.04 0-2.611-.602-3.273-1.923-3.273-2.072 0-4.474 2.042-4.474 5.946 0 2.703.03 4.174.06 6.366l1.833-.06c.15 0 .239.21.239.661 0 .42-.09.632-.24.632h-8.676c-.152 0-.242-.212-.242-.632 0-.45.09-.66.242-.66l2.612.06c.059-2.013.12-4.234.12-6.637 0-2.102-.061-4.084-.12-6.065l-2.612.059c-.152 0-.242-.21-.242-.63 0-.45.09-.662.242-.662h6.546c.179 0 .27.09.27.272-.06.81-.091 2.012-.121 2.972l.06.03c1.532-2.613 3.633-3.693 6.066-3.693 2.612 0 4.054 1.14 4.354 3.663l.06.03v.001z"/>
    <path d="M81.599 43.809c0 4.444 2.043 6.395 4.506 6.395 2.311 0 3.694-1.892 3.694-6.395 0-4.534-1.383-6.487-3.694-6.487-2.463 0-4.506 2.223-4.506 6.487zm.033 5.556c-.033 2.792-.091 5.015.027 9.279l2.674-.06c.15 0 .24.209.24.66 0 .42-.09.63-.24.63h-9.519c-.15 0-.24-.21-.24-.63 0-.451.09-.66.24-.66l2.612.06c.12-2.192.15-5.377.15-8.499 0-3.574-.06-8.078-.15-12.732l-2.913.06c-.15 0-.24-.211-.24-.63 0-.45.09-.663.24-.663h6.786c.181 0 .27.091.27.273l-.06 2.07.06.03c1.292-1.98 3.424-2.791 5.556-2.791 4.174 0 7.177 2.881 7.177 8.047 0 5.225-3.393 7.957-7.507 7.957-2.732 0-4.204-1.14-5.105-2.432l-.058.03v.001zm25.361-7.478c.15-3.122-.932-4.895-2.855-4.895-1.98 0-3.12 1.621-3.39 5.045l6.244-.15h.001zm-6.308 1.352v.45c0 4.384 1.953 6.757 4.595 6.757 2.102 0 4.024-1.05 5.166-3.063.12-.24 1.14.419 1.021.63-1.501 2.705-4.085 3.753-6.876 3.753-5.436 0-8.439-2.822-8.439-8.048 0-5.134 3.093-7.956 8.407-7.956 4.745 0 7.087 2.912 7.087 7.207 0 .18-.088.27-.27.27h-10.691zm19.675 9.309c-1.652-4.174-4.683-11.41-6.427-15.134l-1.77.059c-.151 0-.24-.21-.24-.63 0-.45.089-.662.24-.662h8.528c.15 0 .24.211.24.661 0 .42-.09.63-.24.63l-2.221-.058c1.2 3.273 2.521 6.576 4.083 10.059l3.783-10.06-1.712.06c-.15 0-.238-.21-.238-.63 0-.45.088-.662.238-.662h5.137c.149 0 .24.211.24.661 0 .42-.091.63-.24.63l-1.683-.058-7.447 18.017c-.961 2.371-2.102 4.863-5.436 4.863-2.071 0-3.542-1.14-3.542-2.912 0-1.32.84-2.251 2.22-2.251 1.322 0 2.194.871 2.194 2.19 0 .572-.21.932-.39 1.202a.323.323 0 0 0 .03.332.529.529 0 0 0 .39.148c.991 0 1.952-.598 3.032-3.362l1.23-3.093h.001zM39.896 34.264c3.335 0 4.474-2.493 5.436-4.865l7.448-18.017 1.68.06c.15 0 .24-.21.24-.631 0-.45-.09-.661-.24-.661h-5.134c-.15 0-.24.21-.24.66 0 .422.09.632.24.632l1.711-.06-3.784 10.06a153.976 153.976 0 0 1-4.082-10.06l2.22.06c.15 0 .241-.21.241-.631 0-.45-.09-.661-.24-.661h-8.529c-.152 0-.24.21-.24.66 0 .422.088.632.24.632l1.772-.06c1.742 3.723 4.772 10.96 6.426 15.134l-1.231 3.092c-1.082 2.763-2.042 3.365-3.033 3.365a.55.55 0 0 1-.301-.082c.452-.429.72-1.039.72-1.762 0-1.412-1.053-2.403-2.553-2.403-1.502 0-2.524.99-2.524 2.403 0 0-.202 3.135 3.756 3.135h.001zM94.64 9.73c-1.953 0-3.965.93-5.375 3.904l-.06-.031.148-3.182c0-.18-.088-.271-.269-.271h-6.547c-.15 0-.24.21-.24.66 0 .422.09.632.24.632l2.613-.06c.09 2.101.12 4.054.12 6.155 0 2.312-.03 4.445-.12 6.547l-2.613-.06c-.15 0-.24.21-.24.66 0 .422.09.63.24.63h9.52c.15 0 .24-.208.24-.63 0-.45-.09-.66-.24-.66l-2.674.06c-.03-2.252-.06-3.814-.06-5.856 0-3.454 2.104-6.277 3.514-6.696.24-.09.303.06.24.27-.028.15-.06.33-.06.6 0 1.2.812 2.193 2.193 2.193 1.322 0 2.222-.871 2.222-2.253 0-1.412-1.021-2.612-2.792-2.612zM63.497 24.024l-2.342.06c-.03-2.043-.06-7.99-.06-10.45 0-4.925.03-9.19.09-13.364 0-.18-.09-.27-.27-.27h-6.637c-.12 0-.24.212-.24.63 0 .451.12.662.24.662l2.614-.06c.12 4.744.09 9.009.09 12.823 0 3.812-.031 6.935-.09 10.03l-2.614-.061c-.12 0-.24.21-.24.66 0 .422.12.63.24.63h9.219c.12 0 .24-.208.24-.63 0-.45-.12-.66-.24-.66zM20.529 3.694h-20c-.36 0-.42.3-.42.54v6.007c0 .12.36.18.601.18.24 0 .57-.06.63-.18l1.982-5.227 4.775-.059c.09 3.094.149 6.216.149 9.55 0 3.362-.029 6.485-.149 9.58l-3.663-.061c-.151 0-.24.21-.24.66 0 .422.089.63.24.63h12.191c.121 0 .24-.208.24-.63 0-.45-.119-.66-.24-.66l-3.693.06c-.12-3.094-.152-6.246-.152-9.609 0-3.334.032-6.426.152-9.52l4.804.06 1.952 5.226c.06.12.388.18.63.18.24 0 .63-.06.63-.18V4.234c0-.24-.058-.54-.419-.54zm10.54 16.155c0 2.342-2.01 3.843-3.691 3.843-1.382 0-2.253-.57-2.253-2.43 0-2.193 1.321-3.305 3.934-3.305.63 0 1.291.06 2.01.151v1.741zm6.518 4.325c-1.862.45-2.462-.482-2.462-1.86 0-3.245.15-4.927.15-7.72 0-3.694-2.433-4.864-6.755-4.864-3.996 0-6.578.93-6.578 3.032 0 1.293.962 2.072 2.282 2.072 1.322 0 2.254-.87 2.254-2.04 0-.661-.182-.993-.392-1.293-.15-.18-.03-.33.12-.39.3-.12.93-.24 1.712-.24 1.98 0 3.183.84 3.183 2.973v2.853c-.84-.03-1.5-.06-2.372-.06-5.255 0-7.717 2.101-7.717 5.165 0 2.642 2.07 3.935 4.684 3.935 2.853 0 4.324-1.384 5.495-2.795.721 2.132 2.251 2.823 3.963 2.823.962 0 2.103-.119 2.734-.42.3-.09-.06-1.26-.3-1.171h-.001zm35.073.33c-2.342 0-3.995-2.042-3.995-6.787 0-4.685 1.653-6.787 3.995-6.787 2.283 0 3.934 2.102 3.934 6.787 0 4.777-1.62 6.787-3.934 6.787zm0-14.774c-5.014 0-8.528 2.852-8.528 7.987 0 5.195 3.514 8.02 8.528 8.02 4.925 0 8.47-2.825 8.47-8.02 0-5.135-3.545-7.987-8.47-7.987z"/>
  </g>
</svg>
