<svg xmlns="http://www.w3.org/2000/svg" width="130" height="81">
  <g fill="#2A406A" fill-rule="evenodd">
    <path d="M69.449 44.992c-6.375 0-9.617-3.12-11.214-5.738-2.934-4.808-2.71-12.035.57-18.412 1.452-2.822 3.078-5.457 4.65-8.005 1.503-2.437 3.052-4.953 4.425-7.599A93.83 93.83 0 0 1 65.018 0h-.05c-3.65 7.267-8.222 13.404-11.945 20.64-6.419 12.478-3.294 28.101 11.97 28.101 6.15 0 10.306-2.424 12.695-6.123-1.887 1.357-4.535 2.374-8.239 2.374"/>
    <path d="M76.894 20.51c-1.04-1.896-2.15-3.725-3.25-5.511-.4.68-.808 1.34-1.21 1.991-.809 1.312-1.573 2.55-2.27 3.905-1.312 2.55-1.459 5.467-.365 7.26.768 1.26 2.075 1.899 3.884 1.899 1.847 0 3.17-.633 3.932-1.882.836-1.37.922-3.433.303-5.493a30.498 30.498 0 0 0-.955-2.039l-.069-.13"/>
    <path d="M73.683 32.906c-2.79 0-5.034-1.16-6.319-3.265-1.617-2.652-1.514-6.597.264-10.051.748-1.453 1.577-2.797 2.38-4.097.68-1.104 1.33-2.162 1.931-3.271a110.913 110.913 0 0 1-2.49-4.262c-1.2 2.179-2.479 4.253-3.727 6.276-1.545 2.505-3.143 5.095-4.547 7.825-2.865 5.569-3.127 11.773-.666 15.805 1.78 2.92 4.872 4.462 8.94 4.462 4.145 0 7.27-1.532 9.039-4.43 1.067-1.75 1.608-3.93 1.634-6.301a25.462 25.462 0 0 0-.19-1.76c-1.296 1.979-3.504 3.069-6.249 3.069M2.955 63.305h3.344c.265 0 .39.18.39.432v1.031c0 .25-.125.432-.39.432H.39c-.265 0-.39-.181-.39-.432v-9.087c0-.25.125-.432.39-.432h2.174c.265 0 .39.181.39.432v7.624h.001zm10.465-7.624c0-.25.126-.432.39-.432h1.561c.265 0 .39.181.39.432v6.077c0 2.076-1.407 3.637-4.11 3.637-2.16 0-4.265-.962-4.265-3.498v-6.216c0-.25.125-.432.39-.432H9.95c.265 0 .39.181.39.432v6.272c0 1.087.558 1.56 1.533 1.56 1.115 0 1.547-.473 1.547-1.56V55.68v.001zm9.044-.627c1.505 0 2.342.335 2.746.53.195.097.39.237.39.571v1.561c0 .14-.07.223-.181.223-.112 0-.195-.056-.28-.125-.515-.474-1.435-.892-2.438-.892-1.463 0-2.62.808-2.62 3.303 0 2.494 1.157 3.303 2.62 3.303 1.003 0 1.923-.418 2.439-.892.084-.07.167-.126.279-.126.111 0 .18.084.18.223v1.561c0 .335-.194.474-.39.572-.403.195-1.24.53-2.745.53-2.968 0-5.49-1.785-5.49-5.171 0-3.387 2.522-5.17 5.49-5.17v-.001zm8.375 8.557c.209.056.418.098.683.098.265 0 .474-.042.683-.098.905-.25 1.337-1.1 1.337-3.386s-.432-3.136-1.337-3.387a2.525 2.525 0 0 0-.683-.097 2.51 2.51 0 0 0-.683.097c-.906.251-1.338 1.101-1.338 3.387 0 2.285.432 3.136 1.338 3.386zm5.797-3.386c0 3.373-2.16 5.17-5.128 5.17-2.969 0-5.115-1.797-5.115-5.17 0-3.387 2.146-5.17 5.115-5.17 2.968 0 5.128 1.783 5.128 5.17zm4.334 3.08h3.763c.264 0 .39.18.39.432v1.031c0 .25-.126.432-.39.432h-7.192c-.265 0-.39-.181-.39-.432v-.348c0-.335.46-1.087.585-1.283l3.708-5.978h-3.763c-.265 0-.39-.182-.39-.432v-1.032c0-.25.125-.432.39-.432h7.052c.264 0 .39.181.39.432v.39c0 .572-.32 1.046-.446 1.241l-3.707 5.979zm8.779-5.505l-.934 3.442h1.91l-.948-3.442h-.028zm-1.784-1.282c.237-.823.78-1.269 1.686-1.269h1.84c.25 0 .46.14.53.377l2.828 8.933c.042.153.084.21.084.348 0 .14-.111.293-.32.293h-2.3c-.376 0-.557-.237-.641-.557l-.502-1.826h-2.787l-.488 1.826c-.084.32-.25.557-.627.557h-1.676a.29.29 0 0 1-.289-.288v-.005c0-.139.028-.195.07-.348l2.592-8.041zm10.828 6.662c0 .236.222.334.362.361.195.043.278.057.53.057 1.755 0 2.536-1.088 2.536-3.36 0-2.299-.78-3.386-2.537-3.386-.25 0-.334.014-.53.056-.139.027-.362.125-.362.362v5.91h.001zm-2.955-7.499c0-.25.125-.432.39-.432h3.526c3.693 0 5.533 2.467 5.533 4.976 0 2.508-1.84 4.975-5.533 4.975h-3.526c-.265 0-.39-.181-.39-.432v-9.087zm10.841 0c0-.25.126-.432.39-.432 2.217 0 2.258 0 5.63.014.266 0 .391.181.391.432v1.032c0 .25-.125.432-.39.432h-3.066v1.895h2.648c.265 0 .39.181.39.432v1.031c0 .251-.125.432-.39.432h-2.648v2.356H72.7c.265 0 .39.18.39.432v1.031c0 .25-.125.432-.39.432h-5.63c-.265 0-.39-.181-.39-.432v-9.087h-.001zM84.6 65.2c-.613 0-.892-.083-1.087-.543l-1.296-3.094c-.111-.28-.25-.53-.25-.976 0-.474.278-.613.57-.794.516-.32.934-.613.934-1.742 0-1.116-.515-1.366-1.31-1.366-.223 0-.516.014-.696.125-.182.098-.265.223-.265.418v7.54c0 .265-.112.432-.377.432h-2.188c-.265 0-.39-.181-.39-.432v-8.306c0-.53.25-.739.655-.934.488-.237 1.77-.474 3.261-.474 2.788 0 4.07 1.101 4.07 2.997 0 1.421-1.032 2.076-2.021 2.425v.041c.46.126.92.586 1.115.962l1.31 2.606c.153.307.279.446.279.683 0 .376-.279.432-.544.432H84.6zm3.427-9.519c0-.25.126-.432.39-.432h2.175c.265 0 .39.181.39.432v9.087c0 .25-.125.432-.39.432h-2.174c-.265 0-.39-.181-.39-.432v-9.087h-.001zm7.721 7.582c0 .25.153.32.237.348.139.042.404.084.641.084 1.045 0 1.463-.516 1.463-1.268 0-.864-.515-1.255-.947-1.59-.251-.194-.46-.347-.46-.793 0-.32.264-.6.53-.837.376-.348.668-.682.668-1.31 0-.794-.376-1.156-1.17-1.156-.224 0-.516.014-.697.125-.182.098-.265.223-.265.418v5.979zm3.414-3.331v.042c1.143.237 1.938 1.031 1.938 2.16 0 1.881-1.38 3.066-3.805 3.066h-4.112c-.264 0-.39-.181-.39-.432v-8.306c0-.53.251-.739.655-.934.488-.237 1.617-.474 3.108-.474 2.899 0 4.07 1.129 4.07 2.746 0 1.212-.78 1.825-1.464 2.132zm3.469-4.251c0-.25.126-.432.39-.432 2.216 0 2.258 0 5.63.014.266 0 .391.181.391.432v1.032c0 .25-.125.432-.39.432h-3.066v1.895h2.648c.265 0 .39.181.39.432v1.031c0 .251-.125.432-.39.432h-2.648v2.356h3.066c.265 0 .39.18.39.432v1.031c0 .25-.125.432-.39.432h-5.63c-.265 0-.39-.181-.39-.432v-9.087h-.001zm14.563 6.69v-6.69c0-.25.125-.432.39-.432h1.561c.265 0 .39.181.39.432v9.087c0 .25-.125.432-.39.432h-1.77c-.975 0-1.547-.446-1.895-1.324l-2.397-6.104h-.028v6.996c0 .25-.126.432-.39.432h-1.561c-.265 0-.39-.181-.39-.432v-9.087c0-.25.125-.432.39-.432h1.881c.976 0 1.547.349 1.812 1.045l2.355 6.077h.042zm7.622-4.571l-.934 3.442h1.91l-.948-3.442h-.028zm-1.784-1.282c.237-.823.78-1.269 1.686-1.269h1.84c.25 0 .46.14.53.377l2.829 8.933c.042.153.083.21.083.348 0 .14-.111.293-.32.293h-2.3c-.376 0-.557-.237-.64-.557l-.503-1.826h-2.787l-.488 1.826c-.083.32-.25.557-.627.557h-1.658a.29.29 0 0 1-.307-.288v-.005c0-.139.028-.195.07-.348l2.592-8.041zm-84.247 14.24l-.761 1.322a4.648 4.648 0 0 0-2.177-.52c-1.104 0-1.656.369-1.656 1.108 0 .311.112.579.334.801.24.24.721.494 1.442.761 1.122.428 1.852.9 2.19 1.416.303.463.455.98.455 1.549 0 .863-.294 1.554-.882 2.07-.64.56-1.536.841-2.684.841a6.554 6.554 0 0 1-3.018-.721l.708-1.322c.756.338 1.469.508 2.136.508 1.149 0 1.723-.401 1.723-1.203 0-.32-.107-.583-.32-.787-.232-.232-.704-.481-1.416-.748-1.13-.428-1.87-.9-2.217-1.416-.302-.46-.46-1-.454-1.549 0-.703.25-1.304.748-1.803.659-.668 1.576-1.001 2.751-1.001 1.095 0 2.128.231 3.098.694zm9.989-.548l-.027 6.264c-.009 1.13-.382 2.02-1.121 2.67-.74.642-1.719.962-2.938.962-1.31 0-2.302-.378-2.978-1.135-.588-.64-.877-1.509-.868-2.604l.04-6.156h1.923l-.04 6.263c-.01 1.46.699 2.19 2.123 2.19.677 0 1.206-.214 1.59-.641.364-.41.547-.962.547-1.656l.026-6.156h1.723v-.001zm10.964 0l-.093 9.469-2.217.52-3.486-6.13c-.4-.702-.694-1.339-.881-1.909v.054c.08.899.12 1.549.12 1.95l-.013 5.782h-1.736l.066-9.415 2.23-.494 3.46 6.09c.347.614.65 1.25.908 1.91a18.954 18.954 0 0 1-.12-2.004l.013-5.822h1.75l-.001-.001zm8.774 1.51h-2.537l-.054 8.226h-1.936l.053-8.226h-2.537v-1.51h7.011v1.51zm6.116-.214c-.766 0-1.407.258-1.923.774-.66.66-.988 1.612-.988 2.858 0 2.342.935 3.513 2.804 3.513 1.237 0 2.1-.593 2.59-1.777.232-.543.348-1.153.348-1.829 0-.917-.174-1.678-.521-2.284-.49-.836-1.26-1.255-2.31-1.255zm.027-1.442c1.585 0 2.822.494 3.712 1.482.793.881 1.189 2.025 1.189 3.432 0 1.487-.485 2.716-1.456 3.686-.961.961-2.159 1.442-3.592 1.442-1.594 0-2.827-.485-3.7-1.455-.783-.864-1.174-2.026-1.174-3.486 0-1.487.485-2.715 1.455-3.686.935-.943 2.124-1.415 3.566-1.415zm14.396 9.321l-1.79.801-3.045-4.62.481-.868c1.318-.098 1.976-.641 1.976-1.63 0-1.015-.623-1.522-1.87-1.522-.426 0-.791.013-1.094.04l-.053 8.36h-1.937l.067-9.735h.093c1.505-.09 2.529-.134 3.072-.134 2.466 0 3.7.908 3.7 2.724 0 1.443-.758 2.386-2.271 2.831.213.187.405.405.574.655l2.097 3.098zm8.92-8.574l-3.258 4.741-.027 4.394H92.75l.026-4.3-3.111-4.781 1.722-.855 1.924 3.072c.169.276.338.628.507 1.055l.013.026c.134-.356.32-.716.561-1.081l2.03-3.072 1.55.801h-.001z"/>
  </g>
</svg>
