<svg xmlns="http://www.w3.org/2000/svg" width="100" height="41">
  <path fill="#2A406A" fill-rule="evenodd" d="M100 40.27V0H0v40.27h100zM40.205 3.886l-6.902 32.413H22.469l-6.81-22.428h-.093l-4.53 22.428H2.82L9.778 3.885h10.87l6.677 22.476h.09L31.99 3.885h8.215v.001zm30.986 0l-6.77 32.413h-8.722l2.894-13.883h-10.32l-2.894 13.883h-8.724l6.77-32.413h8.723l-2.563 12.4h10.312l2.569-12.4h8.725zm25.063.885l-2.104 6.453c-1.679-.787-3.966-1.483-7.185-1.483-3.452 0-6.253.506-6.253 3.111 0 4.593 12.648 2.878 12.648 12.723 0 8.96-8.357 11.285-15.916 11.285-3.36 0-7.235-.794-10.079-1.678l2.053-6.594c1.723 1.117 5.18 1.86 8.026 1.86 2.71 0 6.953-.512 6.953-3.853 0-5.204-12.65-3.252-12.65-12.395 0-8.363 7.376-10.87 14.52-10.87 4.015 0 7.792.422 9.987 1.44v.001z"/>
</svg>
