<svg viewBox="0 0 285 207" xmlns="http://www.w3.org/2000/svg" fill-rule="evenodd" clip-rule="evenodd" stroke-miterlimit="10">
  <path d="M9.88 206.58h240.177c18.476-85.389-23.562-128.021-36.607-106.718 0-65.178-157.72-64.987-153.276 51.547C31.69 153.051 4.812 180.296 9.88 206.58" fill="#c8dcf2" fill-rule="nonzero"/>
  <path d="M117.784 89.062h48.194c-.463-6.053-4.347-11.047-9.409-5.76.736-5.491-4.432-6.25-8.64-2.112 7.336-10.824-3.745-20.576-17.09-.385-.217-4.944-11.388-3.615-13.055 8.257" fill="#fff" fill-rule="nonzero"/>
  <path d="M28.365 109.15c15.265 32.515 20.852 53.074 26.933 90.115l13.268.063c-8.433-39.181-18.979-66.09-40.201-90.178" fill="#4c7cb3" fill-rule="nonzero"/>
  <path d="M.215.519A1.235 1.235 0 010 .045c.092.126.205.227.267.268C.451.099.592-.166.74-.519L1-.518C.737.032.532.28.215.519z" fill="url(#_Linear1)" fill-rule="nonzero" transform="matrix(62.7334 0 0 -62.7334 3.34 160.783)"/>
  <path d="M238.626 102.952a22.494 22.494 0 01-.493 6.26 9.869 9.869 0 00-.062-.589 22.624 22.624 0 00-1.255-4.777c-5.279 2.76-9.82 6.27-15.283 11.866l2.893 23.1.566 4.417 2.362 18.842c14.76-6.608 22.22-22.825 23.263-39.936-.842.198-1.71.377-2.6.489a22.54 22.54 0 01-8.227-.47c.2-.002.395-.025.592-.05a22.785 22.785 0 0010.36-4.017c.015-6.424-.85-12.866-2.556-18.9-3.61 1.215-6.708 2.4-9.56 3.765" fill="#76a5db" fill-rule="nonzero"/>
  <path d="M228.51 143.525a57.296 57.296 0 01-3.517-.296l.191 1.522a51.388 51.388 0 003.32-.064c3.857-.18 7.703-.908 11.254-2.314-3.68 1.036-7.493 1.361-11.247 1.152M244.988 106.21c-4.355 8.082-9.262 15.868-14.955 23.004-.364.455-.74.913-1.116 1.37a96.395 96.395 0 01-1.96 2.32c-.941 1.092-1.898 2.16-2.868 3.208l.339 2.7a154.599 154.599 0 003.875-4.799c.876-1.141 1.74-2.292 2.58-3.453.375 0 .76-.012 1.132-.036 3.856-.19 7.691-.904 11.241-2.311-3.678 1.035-7.484 1.347-11.246 1.152-.082-.002-.177-.014-.26-.015a133.907 133.907 0 005.683-8.799c2.757-4.657 5.247-9.47 7.555-14.341" fill="#a0c2e8" fill-rule="nonzero"/>
  <path d="M230.654 207.02s11.526-62.51 36.723-70.014c-12.343 13.514-18.221 34.893-19.908 70.015h-16.815z" fill="#f3bdc3" fill-rule="nonzero"/>
  <path d="M238.794 207.02c11.01-20.793 20.744-33.265 38.768-42.674 2.986 7.413 4.563 16.867 5.36 28.145l-11.258-17.154c-7.315 4.828-14.374 18.098-20.103 31.684h-12.767z" fill="#e6a5ac" fill-rule="nonzero"/>
  <path d="M215.375 207.02c14.776-18.418 48.498-34.985 40.54-8.514 9.474-6.9 12.124 8.515 12.124 8.515h-52.664z" fill="#5488c4" fill-rule="nonzero"/>
  <path d="M64.775 122.603c-14.756-9.02-21.796-37.73-24.154-49.718" fill="none" stroke="#1a5197" stroke-width=".5073888000000001"/>
  <path d="M45.5 91.065a.241.241 0 00.417.179c2.041-2.17 10.26-11.372 5.487-14.133-4.804-2.775-5.748 10.803-5.904 13.954M41.517 78.263a.24.24 0 00.436-.124c.217-2.971.794-15.297-4.65-14.428-5.478.873 2.348 12.01 4.214 14.552M56.191 113.892c-.01.225.262.343.415.179 2.043-2.17 10.261-11.372 5.489-14.132-4.804-2.776-5.748 10.802-5.904 13.953M50.321 103.432c-.01.225.263.343.417.179 2.041-2.17 10.26-11.372 5.487-14.133-4.804-2.775-5.749 10.803-5.904 13.954M55.725 114.207c.206-.093.178-.403-.043-.473-2.93-.933-15.135-4.471-15.26 1.28-.126 5.784 12.424.483 15.303-.807M46.152 94.906c.171.038.3-.144.209-.291-1.416-2.273-8.766-13.54-12.378-8.56-3.614 4.982 9.547 8.255 12.169 8.85M51.448 106.988a.193.193 0 00.14-.33c-1.868-1.917-11.452-11.358-13.917-5.721-2.47 5.64 11.088 6.029 13.777 6.051" fill="#81a4e3" fill-rule="nonzero"/>
  <path d="M.206.795c.266-.302.565-.562.969-.854l-1.464-1.32a5.674 5.674 0 01-.75 1.051l.666-1.127-.347-.329L-1.942.268a.267.267 0 00.057.305l.222.23.266.273.091.088c.032.028.064.055.097.081l.268.212.001.001.118.092.163.13a.27.27 0 00.309.025L1.705.404 1.343.093.206.795z" fill="url(#_Linear2)" fill-rule="nonzero" transform="scale(40.02538 -40.02538) rotate(-42.049 -4.446 -5.252)"/>
  <path d="M119.383 123.56l-24.032 47.538-1.598 3.165-2.471-3.737 1.1-11.286.24-.964 13.472-53.491h.045l5.981.392 4.053 11.737-6.69-.271 9.9 6.917z" fill="#ffdaa5" fill-rule="nonzero"/>
  <path d="M108.327 67.883c.27-21.28-11-21.12-16.98-20.5-13.538-2.087-26.285 11.45-21.885 28.032-9.024 7.672-1.804 24.48 11.73 15.733l27.135-23.265z" fill="#383a44" fill-rule="nonzero"/>
  <path d="M97.128 179.4l-3.375-5.137-2.472-3.737-29.637-45.053 9.039-8.002-6.614 1.04 3.03-13.635 5.303-.346 20.13 53.325.09.42L95.35 171.1l1.777 8.302z" fill="#ffdaa5" fill-rule="nonzero"/>
  <path d="M.741-1.572c.028.358.043.701.042 1.04L.324-.581.18.003c.199.069.359.235.429.499.022.083.035.176.037.278a1.99 1.99 0 01-.07.54 1.83 1.83 0 01-.741.466c-.128-.364-.332-.644-.748-.913-.339-.219-.145-.486.113-.4l.292-1.189-.387-.093c.167-.34.333-.658.513-.976.398.06.725.119 1.123.213z" fill="url(#_Linear3)" fill-rule="nonzero" transform="matrix(19.5482 3.37037 3.37037 -19.5482 92.623 91.74)"/>
  <path d="M101.82 124.958c-8.1.515-14.7.552-22.684.395 3.597 10.074 7.796 20.321 13.395 32.5 3.582-12.034 6.735-22.738 9.29-32.895" fill="#fff" fill-rule="nonzero"/>
  <path d="M87.379 72.6a1.653 1.653 0 11-3.307 0 1.653 1.653 0 013.307 0M104.212 72.6a1.656 1.656 0 11-3.311-.004 1.656 1.656 0 013.31.004" fill="#383a44" fill-rule="nonzero"/>
  <path d="M94.087 69.979c-.38 2.265-.105 6.84 2.537 8.43.383.231.453.776.113 1.067-.598.512-1.249.82-2.147 1.201" fill="none" stroke="#63375b" stroke-width=".5073888000000001" stroke-linecap="round" stroke-linejoin="round" stroke-miterlimit="4"/>
  <path d="M88.31 81.682c0 1.672-1.304 3.028-2.91 3.028-1.607 0-2.908-1.356-2.908-3.028 0-1.671 1.301-3.026 2.909-3.026 1.605 0 2.908 1.355 2.908 3.026M107.887 78.672c-.393 1.99-.964 3.752-1.673 5.304a3.139 3.139 0 01-.994-2.29c0-1.583 1.174-2.893 2.667-3.014" fill="#a36380" fill-rule="nonzero"/>
  <path d="M119.415 109.01c.08 2.63.295 5.45.967 7.962-1.081.41-2.146.808-4.343.809-2.288 0-5.37-.468-5.37-2.528 0-3.088 4.56-1.585 8.746-6.242" fill="#8b546d" fill-rule="nonzero"/>
  <path d="M154.196 73.114s-6.215-23.685 1.643-30.487c7.856-6.803 16-5.557 21.461-5.27 5.464.287 11.499-.766 14.373-1.34 2.876-.577 6.421.286 7.761 2.394 1.342 2.108.193 8.27-1.723 12.169-1.916 3.898-5.52 22.534-5.52 22.534h-37.995z" fill="#383a44" fill-rule="nonzero"/>
  <path d="M.738.894L.179-1.047c-.466.173-.862.367-1.11.531a.335.335 0 00-.148.341c.021.106.043.204.066.299l.014.052c.013.053.028.104.043.155l.045.153.017.052c.03.092.064.187.103.288a.333.333 0 00.306.21c.298.007.736-.039 1.223-.14z" fill="url(#_Linear4)" fill-rule="nonzero" transform="scale(70.82419 -70.82419) rotate(-73.94 -.438 -2.82)"/>
  <path d="M138.82 207.02h-8.408c1.25-22.253 3.872-42.23 7.263-57.954-1.297 15.222-.996 35.316 1.144 57.955" fill="#124687" fill-rule="nonzero"/>
  <path d="M.236-1.27c-.127.313-.257.618-.39.918-.129.303-.264.606-.405.911l1.365.519a.61.61 0 00.776-.326l.255-.588a.61.61 0 00-.29-.791L.236-1.27z" fill="url(#_Linear5)" fill-rule="nonzero" transform="scale(11.37505 -11.37505) rotate(66.501 14.154 7.037)"/>
  <path d="M156.382 63.725s-6.516-3.598-6.9 2.767c-.384 6.364 7.284 7.333 7.284 7.333l-.384-10.1zM189.997 63.725s6.517-3.598 6.9 2.767c.384 6.364-7.284 7.333-7.284 7.333l.384-10.1z" fill="#f0adb4" fill-rule="nonzero"/>
  <path d="M192.327 68.185v.03a94.367 94.367 0 01-.769 11.739c-.843 6.66-6.238 11.798-12.928 12.37-1.839.165-3.63.241-5.44.226a54.704 54.704 0 01-5.424-.227c-6.705-.571-12.085-5.71-12.943-12.37-.497-3.827-.707-7.383-.769-10.878 0 0 2.11-5.62 2.11-9.327s-.784-7.866 1.914-10.217c2.696-2.365 11.344 0 17.855 0 6.525 0 14.51-.89 14.616 4.837.105 5.365 1.58 12.898 1.778 13.817" fill="#f0adb4" fill-rule="nonzero"/>
  <path d="M167 102.727l5.785 14.591h5.287l7.28-14.59H167z" fill="#124687" fill-rule="nonzero"/>
  <path d="M164.015 102.727l5.786 14.591 6.78.001 5.787-14.591h-18.353z" fill="#fff" fill-rule="nonzero"/>
  <path d="M173.19 102.721l-12.174 9.69-2.998-9.478c1.28-.047 2.56-.092 3.826-.122 3.828-.09 7.594-.12 11.345-.09M188.364 102.932l-3 9.477-12.174-9.69c3.737-.029 7.504 0 11.348.092 1.263.03 2.546.076 3.826.121" fill="#7697c1" fill-rule="nonzero"/>
  <path d="M174.193 60.054s-.8 5.02.654 7.493c1.092 1.601 1.82 1.601 1.82 2.474 0 .873-2.983 2.255-2.983 2.255M165.596 61.616a7.646 7.646 0 00-2.66-.236 7.652 7.652 0 00-2.694.739M181.079 61.616a7.646 7.646 0 012.66-.236c.965.082 1.872.34 2.694.739" fill="none" stroke="#63375b" stroke-width=".5073888000000001" stroke-linecap="round" stroke-linejoin="round"/>
  <path d="M178.072 117.319h-5.287c-3.961 31.206-9.89 52.068-21.803 83.41l6.833 6.29h27.812c.769-36.636.002-55.6-7.555-89.7" fill="#124687" fill-rule="nonzero"/>
  <path d="M176.58 117.319h-6.78c-3.822 30.12-9.497 50.633-20.6 80.205l11.115 9.495h10.325l9.261-1.926c4.333-34.679 4.1-54.292-3.321-87.774" fill="#fff" fill-rule="nonzero"/>
  <path d="M171.128 135.703c-.3.329-.541.685-.74 1.085l-2.445 4.841c-1.928 0-5.054-.371-5.168-2.813-.157-3.142 3.813-4.57 8.353-3.113" fill="#f0adb4" fill-rule="nonzero"/>
  <path d="M211.582 159.178v.015c-3.17 10.952-14.323 18.093-15.452 18.75-.726.428-2.354 1.085-3.783.885a166.302 166.302 0 00-4.156-8.083c-.213-.4-.398-.771-.571-1.143 1.556 1.543 4.57.487 5.599-.1.257-.156 1.056-.641 2.156-1.456 3.227-2.355 9.083-7.353 12.137-14.18l.014-.014a177.038 177.038 0 014.056 5.326" fill="#2f61a0" fill-rule="nonzero"/>
  <path d="M238.794 207.02h-35.017c-3.541-9.914-7.066-19.135-11.437-28.192 1.433.197 3.06-.45 3.798-.888 1.115-.648 12.28-7.792 15.445-18.745 10.502 14.3 18.789 29.698 27.211 47.826" fill="#416fa9" fill-rule="nonzero"/>
  <path d="M207.514 153.867c-3.056 6.826-8.912 11.824-12.139 14.18-1.856-2.684-3.511-4.77-5.44-7.11-.014.013-.266-.332-.28-.318-.456-.57-.762-.91-1.276-1.54a2.135 2.135 0 01-.671.114 62.36 62.36 0 01-5.926-.213c-1.815-.128-3.256-1.272-3.913-2.785l-5.726-2.413-3.371-1.428a5.221 5.221 0 01-2.628-7.17l1.8-3.554 2.442-4.84c.2-.4.442-.757.742-1.086a5.68 5.68 0 015.513-1.971c5.797 1.141 15.65 3.356 18.106 5.498 4.556 4.726 8.91 9.767 12.767 14.636" fill="#f0adb4" fill-rule="nonzero"/>
  <path d="M195.375 168.047c-1.098.814-1.898 1.3-2.155 1.457-1.03.586-4.042 1.643-5.599.1-1.414-3.356-.385-5.698 2.27-8.61.015-.014.03-.044.043-.058 1.928 2.342 3.585 4.427 5.441 7.111" fill="#124687" fill-rule="nonzero"/>
  <path d="M188.378 159.078a2.112 2.112 0 001.456-1.856l.029-.413c.1-1.2-.7-2.285-1.887-2.528l-2.654-.557 3.27-6.798M177.867 156.195a4.626 4.626 0 01-.128-3.528c1.028-2.798 2.155-5.254 3.598-8.282M174.219 144.15l-2.224 5.855a4.827 4.827 0 00.142 3.776" fill="none" stroke="#63375b" stroke-width=".5073888000000001" stroke-linecap="round" stroke-linejoin="round"/>
  <path d="M137.833 99.278c-4.258-.045-11.285.273-17.04 2.425-1.516.564-2.454 2.066-2.433 3.682.065 4.917.565 9.888 1.437 15.283.227 1.417 1.756 2.202 3.068 1.617 4.352-1.935 7.396-5.06 8.888-10.579 5.547 1.27 7.284-5.372 7.807-10.513a1.743 1.743 0 00-1.727-1.915" fill="#8b546d" fill-rule="nonzero"/>
  <path d="M124.498 106.585l1.467 13.946M131.753 111.707v-7.491" fill="none" stroke="#63375b" stroke-width=".5073888000000001" stroke-linecap="round" stroke-linejoin="round"/>
  <path d="M224.956 79.64s-3.202-13.242 2.4-13.533c5.602-.29-2.4 13.533-2.4 13.533" fill="#f0adb4" fill-rule="nonzero"/>
  <path d="M225.175 80.513s-10.113-7.057-5.312-11.714c4.802-4.656 5.53 7.786 5.312 11.714" fill="#f3bdc3" fill-rule="nonzero"/>
  <path d="M231.703 79.606l-11.175 2.097c-.506.095-.982-.172-1.06-.597-.084-.446.3-.879.837-.95 3.62-.487 7.439-1.796 11.064-2.438.613-.108 1.18.223 1.277.736.097.521-.325 1.036-.943 1.152" fill="#596489" fill-rule="nonzero"/>
  <path d="M72.464 207.007c3.388-6.873 5.83-14.878 6.744-23.913-2.544.16-5.014.608-7.353 1.352a30.467 30.467 0 017.559-3.698 82.615 82.615 0 00-.173-13.662c-5.043 1.416-13.282 4.885-20.632 10.506-.034.63-.055 1.257-.06 1.894a31.064 31.064 0 001.889 10.561c-2.196-2.94-3.85-6.306-4.89-9.925-5.3 4.714-10.202 10.779-12.066 18.034.738 2.92 1.485 5.864 2.241 8.851h26.741z" fill="#4c7cb3" fill-rule="nonzero"/>
  <path d="M.267-.461C.245-.495.225-.529.204-.564h.084l.001.002.056.103C.543-.107.764.234 1 .563.758.262.53-.05.321-.377l-.025.091a1.76 1.76 0 00-.052.575 1.8 1.8 0 01-.006-.586c.008-.055.018-.11.029-.164z" fill="url(#_Linear6)" fill-rule="nonzero" transform="matrix(22.5615 0 0 -22.5615 47.946 194.294)"/>
  <path d="M30.453 190.611a33.21 33.21 0 01-15.915-4.711 172.463 172.463 0 004.11 21.107h49.395a173.953 173.953 0 00-29.236-40.201 33.345 33.345 0 01-4.454 6.985c.18-.365.334-.743.486-1.119 1.039-2.558 1.706-5.17 2.087-7.784a174.335 174.335 0 00-22.973-19.254 175.74 175.74 0 00-.888 17.659c0 5.184.239 10.312.685 15.381a33.472 33.472 0 0016.703 11.937" fill="#76a5db" fill-rule="nonzero"/>
  <path d="M39.554 200.437a219.924 219.924 0 012.809 6.57h2.398a241 241 0 00-4.228-8.62c.966-2.095 1.78-4.25 2.35-6.464.453-1.748.754-3.541.845-5.334a20.06 20.06 0 00-.016-2.696c-.075-.89-.21-1.764-.316-2.639-.015.89-.015 1.764-.06 2.639-.076.873-.18 1.746-.361 2.59a25.665 25.665 0 01-1.524 4.973 34.078 34.078 0 01-2.23 4.4c-4.972-9.493-10.455-18.715-16.12-27.785 5.363 9.642 10.53 19.406 15.113 29.412.45.98.903 1.958 1.34 2.954M39.268 206.946c-4.416-1.628-9.026-3.06-13.728-3.21 3.637.506 7.06 1.768 10.372 3.273h3.515c-.054-.021-.106-.044-.159-.063M119.146 52.134a2.013 2.013 0 10-4.026 0 2.013 2.013 0 004.026 0M3.409 175.007a2.013 2.013 0 10-4.027 0 2.013 2.013 0 004.027 0M270.558 156.774a2.013 2.013 0 10-4.026 0 2.013 2.013 0 004.026 0" fill="#a0c2e8" fill-rule="nonzero"/>
  <defs>
    <linearGradient id="_Linear1" x1="0" y1="0" x2="1" y2="0" gradientUnits="userSpaceOnUse" gradientTransform="matrix(1 0 0 -1 0 0)">
      <stop offset="0" stop-color="#2f61a0"/>
      <stop offset="0" stop-color="#2f61a0"/>
      <stop offset="1" stop-color="#1a5197"/>
    </linearGradient>
    <linearGradient id="_Linear2" x1="0" y1="0" x2="1" y2="0" gradientUnits="userSpaceOnUse" gradientTransform="matrix(1 0 0 -1 0 -.02)">
      <stop offset="0" stop-color="#f2b079"/>
      <stop offset="1" stop-color="#d48f55"/>
    </linearGradient>
    <linearGradient id="_Linear3" x1="0" y1="0" x2="1" y2="0" gradientUnits="userSpaceOnUse" gradientTransform="matrix(1 0 0 -1 0 0)">
      <stop offset="0" stop-color="#915872"/>
      <stop offset=".33" stop-color="#915872"/>
      <stop offset="1" stop-color="#7a4a60"/>
    </linearGradient>
    <linearGradient id="_Linear4" x1="0" y1="0" x2="1" y2="0" gradientUnits="userSpaceOnUse" gradientTransform="matrix(1 0 0 -1 0 -.006)">
      <stop offset="0" stop-color="#2f61a0"/>
      <stop offset="0" stop-color="#2f61a0"/>
      <stop offset="1" stop-color="#1a5197"/>
    </linearGradient>
    <linearGradient id="_Linear5" x1="0" y1="0" x2="1" y2="0" gradientUnits="userSpaceOnUse" gradientTransform="matrix(1 0 0 -1 0 -.076)">
      <stop offset="0" stop-color="#f1adb3"/>
      <stop offset="1" stop-color="#d4858d"/>
    </linearGradient>
    <linearGradient id="_Linear6" x1="0" y1="0" x2="1" y2="0" gradientUnits="userSpaceOnUse" gradientTransform="matrix(1 0 0 -1 0 0)">
      <stop offset="0" stop-color="#2f61a0"/>
      <stop offset="1" stop-color="#1a5197"/>
    </linearGradient>
  </defs>
</svg>