<svg viewBox="0 0 285 207" xmlns="http://www.w3.org/2000/svg" fill-rule="evenodd" clip-rule="evenodd" stroke-miterlimit="10">
  <path d="M1.429 206.873c-5.248-34.117 12.461-52.242 38.044-46.612C6.97 39.445 191.337 6.742 191.337 85.945c20.644-12.73 53.441 17.417 28.517 70.907 20.333-7.916 34.107 29.944 31.484 50.02H1.429z" fill="#c8dcf2" fill-rule="nonzero"/>
  <path d="M14.253 206.873c25.301-18.973 83.041-36.041 69.419-8.772 16.218-7.106 20.76 8.772 20.76 8.772H14.252z" fill="#5488c4" fill-rule="nonzero"/>
  <path d="M36.737 157.282c-12.594-15.353-9.39-49.147-7.415-63.037" fill="none" stroke="#1a5197" stroke-width=".49671360000000003"/>
  <path d="M27.746 115.803c-.097.239.155.47.383.35 3.035-1.581 15.423-8.456 11.29-13.252-4.16-4.823-10.317 9.544-11.673 12.902M28.261 100.415c.076.247.418.269.52.031 1.358-3.14 6.637-16.287.407-17.403-6.271-1.122-1.992 13.91-.927 17.372M30.718 144.594c-.096.241.154.472.384.353 3.034-1.582 15.423-8.458 11.287-13.253-4.16-4.824-10.314 9.543-11.67 12.9M28.304 131.034c-.097.24.153.472.383.353 3.035-1.584 15.423-8.459 11.288-13.253-4.16-4.825-10.315 9.543-11.671 12.9M30.094 144.76c.257-.021.346-.369.132-.529-2.825-2.117-14.725-10.563-17.033-4.376-2.32 6.228 13.29 5.22 16.9 4.906M27.001 120.215c.171.105.38-.042.337-.24-.678-2.997-4.393-17.991-10.192-13.955-5.799 4.038 7.237 12.559 9.855 14.195M28.18 135.317a.222.222 0 00.279-.304c-1.303-2.785-8.131-16.642-12.934-11.46-4.805 5.182 9.748 10.725 12.656 11.764" fill="#4c7cb3" fill-rule="nonzero"/>
  <path d="M70.987 206.442l-17.537.189-4.957.068-15.817.172c-5.385-1.79-11.823-10.72-15.264-21.254a51.054 51.054 0 0019.637 7.04c-8.691-3.442-16.196-9.209-21.806-16.506-1.326-10.636 1.24-21.236 11.36-26.76 4.783-2.599 10.807 1.772 16.864 9.07a51.184 51.184 0 001.515 15.42 50.537 50.537 0 011.273-11.858c12.719 17.071 24.732 44.419 24.732 44.419" fill="#76a5db" fill-rule="nonzero"/>
  <path d="M53.45 206.63l-4.956.07c-1.068-1.55-2.1-3.1-3.099-4.682l-1.6-2.633a93.307 93.307 0 01-3.907-7.348 122.043 122.043 0 01-4.82-11.238 67.676 67.676 0 01-1.119-3.116c-.17-.464-.324-.947-.48-1.41-1.774-5.37-3.236-10.843-4.2-16.402 1.394 5.457 3.254 10.773 5.404 15.954.344.826.69 1.635 1.068 2.444a66.068 66.068 0 001.636 3.528 118.967 118.967 0 004.784 9.035 85.409 85.409 0 003.924 6.23c.498.74 1.013 1.463 1.53 2.186a107.835 107.835 0 004.028 5.231c.585.74 1.188 1.446 1.807 2.152" fill="#a0c2e8" fill-rule="nonzero"/>
  <path d="M37.376 181.798a30.988 30.988 0 01-2.307-.998c-1.86-.844-3.613-1.858-5.318-2.926a48.214 48.214 0 01-4.577-3.304c-1.447-1.205-2.84-2.478-3.975-3.959 1.34 1.275 2.89 2.307 4.473 3.254a47.097 47.097 0 008.278 3.82c.604.223 1.19.413 1.79.585a66.068 66.068 0 001.636 3.528M45.395 202.02a19.076 19.076 0 002.22-2.772c1.154-1.755 2.014-3.647 2.633-5.575 1.258-3.907 1.584-7.985 1.188-11.927-.172 3.958-1.1 7.848-2.788 11.289a20.702 20.702 0 01-2.564 4.028c-.69.86-1.464 1.653-2.288 2.324l1.599 2.632z" fill="#a0c2e8" fill-rule="nonzero"/>
  <path d="M203.781 206.873s18.406-16.752 26.487-12.511c8.083 4.24 2.428 12.511 2.428 12.511H203.78z" fill="#4c7cb3" fill-rule="nonzero"/>
  <path d="M233.807 165.789l-.074-.002a43.3 43.3 0 0013.239-5.998c1.762-12.52.282-24.429-6.445-27.417-3.283-1.46-8.058-1.515-13.56.873a43.347 43.347 0 00-6.405 22.688 42.889 42.889 0 01-1.662-11.92c0-2.064.149-4.09.427-6.078-11.662 9.264-24.84 29.592-34.044 68.938h24.626s17.973-5.613 27.956-20.589c3.714-5.572 6.69-13.725 8.348-22.04a43.507 43.507 0 01-12.406 1.545" fill="#76a5db" fill-rule="nonzero"/>
  <path d="M235.36 138.994c-6.816 14.768-12.313 26.166-18.542 37.145a300.3 300.3 0 01-6.395 10.68l-1.423 2.23c-3.61 5.631-7.625 11.443-12.297 17.822h-3.536c5.484-7.113 10.17-13.538 14.423-19.769.466-.673.914-1.333 1.363-2.007a325.093 325.093 0 005.422-8.343c.45-.733.9-1.453 1.349-2.186 6.53-10.56 12.49-21.583 19.636-35.572" fill="#a0c2e8" fill-rule="nonzero"/>
  <path d="M216.818 176.139c-.45.793-.899 1.572-1.363 2.365a21.212 21.212 0 01-1.079-1.75c-.166-.286-.329-.586-.48-.885-1.048-2.187-1.826-4.463-2.396-6.77-.538-2.306-.854-4.642-1.034-6.978-.163-2.322-.21-4.674-.03-6.98.077 2.321.361 4.628.765 6.89a44.78 44.78 0 001.737 6.65c.748 2.065 1.662 4.043 2.786 5.885.03.075.076.136.12.21.314.464.628.913.974 1.363M210.421 186.818c-.465.734-.943 1.483-1.423 2.23a13.302 13.302 0 01-1.408-1.946c-.059-.104-.135-.223-.194-.329-.93-1.617-1.513-3.354-1.991-5.077-.466-1.723-.766-3.46-.975-5.213-.194-1.736-.314-3.489-.3-5.226.51 3.429 1.363 6.83 2.696 9.96.598 1.378 1.273 2.711 2.127 3.878.106.15.21.3.33.45.36.464.733.884 1.138 1.273" fill="#a0c2e8" fill-rule="nonzero"/>
  <path d="M207.961 130.693c.025.253-.278.4-.46.224-2.41-2.337-12.133-12.27-6.904-15.622 5.262-3.372 7.027 11.862 7.364 15.398M207.426 135.05a.217.217 0 01-.249-.318c1.475-2.63 9.165-15.69 13.488-10.272 4.324 5.42-10.32 9.784-13.24 10.59M203.643 145.055c-.204-.029-.26-.294-.09-.426 2.594-2.026 15.817-11.926 17.433-4.61 1.616 7.317-14.214 5.47-17.343 5.036" fill="#4376b5" fill-rule="nonzero"/>
  <path d="M187.894 167.182c20.591-13.92 25.403-63.256 25.403-63.256" fill="none" stroke="#1a5197" stroke-width=".49671360000000003"/>
  <path d="M220.042 90.183a62.737 62.737 0 01-.573 3.191c-1.373 6.785-3.649 12.72-6.555 17.253-.223.35-.768.273-.894-.123-1.727-5.414-2.74-11.531-2.843-18.007-.013-.366-.013-.731-.013-1.096 0-.804.013-1.608.037-2.4 3.642-.535 6.579-.183 10.452.998.145.05.279.11.39.184" fill="#fa97c5" fill-rule="nonzero"/>
  <path d="M220.382 92.205c-.304.414-.61.804-.914 1.169-1.157 1.425-2.363 2.607-4.275 3.739a1.433 1.433 0 01-1.694-.17c-1.729-1.572-3.106-2.874-4.324-4.446-.34-.415-.657-.84-.96-1.292-.574-.864-.088-2.058.948-2.204h.037c3.643-.535 6.578-.183 10.451 1 .146.048.28.108.39.181.645.44.84 1.365.341 2.023" fill="#e87daf" fill-rule="nonzero"/>
  <path d="M163.192 206.873c15.222-18.973 49.961-36.041 41.762-8.772 9.76-7.106 12.491 8.772 12.491 8.772h-54.253z" fill="#5488c4" fill-rule="nonzero"/>
  <path d="M119.791 27.255c-28.255 3.716-17.85 19.982-54.674 24.513-12.902 1.588-29.056 7.114-29.056 27.245 0 10.266 6.631 20.03 20.143 22.762 27.498 5.561 7.55-11.156 48.104 10.507 18.965 10.131 34.006 3.26 43.329-10.138 18.776-26.982 14.37-80.441-27.846-74.889" fill="#63375b" fill-rule="nonzero"/>
  <path d="M195.174 126.728l-2.996 26.615h-15.994v53.53H71.446v-53.53h-15.98l-2.996-26.615c0-9.39 7.429-17.088 16.804-17.419l32.203-1.138 6.094-.21.3-.015a3.25 3.25 0 002.74-1.721c3.417-6.426 4.51-15.007 4.074-26.615h18.452c-.419 11.622.676 20.189 4.09 26.615a3.232 3.232 0 002.742 1.737l.656.03 6.172.209 31.572 1.108c9.377.33 16.805 8.028 16.805 17.42" fill="#1a5197" fill-rule="nonzero"/>
  <path d="M146.797 108.2l-22.271 46.431-23.05-46.461 6.096-.208c4.298 5.377 10.14 9.973 17.584 9.973 6.184 0 11.351-4.312 15.47-9.944l6.171.21z" fill="#ffdaa5" fill-rule="nonzero"/>
  <path d="M115.98 175.116v31.755h-3.47l3.47-31.755z" fill="#124687" fill-rule="nonzero"/>
  <path d="M1.212-.196L.47-1.336-.542 1.336 1.212-.196z" fill="url(#_Linear1)" fill-rule="nonzero" transform="scale(-9.9156 9.9156) rotate(-22.479 27.294 37.132)"/>
  <path d="M-.521-.665L.79.665l.128-.812-1.439-.518z" fill="url(#_Linear2)" fill-rule="nonzero" transform="scale(15.3034 -15.3034) rotate(44.582 14.772 5.784)"/>
  <path d="M-.204-.983c-.349.227-.622.52-.643.887-.024.443.23.805.535 1.079L-.31.965A.193.193 0 01-.198.808C.195.626.709.589 1.397.653l.061-1.097C.766-.457.26-.55-.11-.775a.192.192 0 01-.095-.168l.001-.04z" fill="url(#_Linear3)" fill-rule="nonzero" transform="scale(16.79475 -16.79475) rotate(86.82 6.964 .827)"/>
  <path d="M.926.19C.663.224.335.412.282.609A.779.779 0 00.027.103.082.082 0 010 .039l.012-.204A.47.47 0 01.48-.609h.027a.47.47 0 01.469.444L1 .102A.084.084 0 01.926.19z" fill="url(#_Linear4)" fill-rule="nonzero" transform="matrix(41.24818 0 0 -41.24818 103.34 63.747)"/>
  <path d="M114.078 61.541a1.705 1.705 0 11-3.411-.002 1.705 1.705 0 013.41.002M136.524 61.54a1.704 1.704 0 11-3.408.001 1.704 1.704 0 013.408 0" fill="#63375b" fill-rule="nonzero"/>
  <path d="M124.406 60.628c-.884 3.014-.463 6.026 1.566 9.084" fill="none" stroke="#63375b" stroke-width=".49671360000000003" stroke-linecap="round" stroke-linejoin="round" stroke-miterlimit="4"/>
  <path d="M-1.976 1.105c.837.083 1.462.336 2.111.842C.501 1.579 1.18.857 1.337.405c.352-1.013-.373-1.79-1-2.008-.627-.218-1.898-.099-2.253.923-.208.597-.179 1.072-.118 1.363.028.14.048.28.058.422z" fill="url(#_Linear5)" fill-rule="nonzero" transform="scale(13.30345 -13.30345) rotate(-19.179 -36.452 -23.258)"/>
  <path d="M.192-.816a1.897 1.897 0 01-.271.152C.128-.118.216.222.192.782c0 0 .092.028.235.067A2.817 2.817 0 00.192-.816z" fill="url(#_Linear6)" fill-rule="nonzero" transform="scale(17.988 -17.988) rotate(-79.378 -3.048 -6.405)"/>
  <path d="M79.145 201.735c-2.203.435-4.868.554-7.699.3v-48.692H59.764c6.665-10.14 11.098-29.836 18.811-34.163 3.116 8.492 18.197 49.53 19.517 56.166 2.949 14.901-9.332 24.472-18.947 26.39" fill="#124687" fill-rule="nonzero"/>
  <path d="M-1.976 1.105c.837.083 1.462.336 2.111.842C.501 1.579 1.18.857 1.337.405c.352-1.013-.373-1.79-1-2.008-.627-.218-1.898-.099-2.253.923-.208.597-.179 1.072-.118 1.363.028.14.048.28.058.422z" fill="url(#_Linear7)" fill-rule="nonzero" transform="scale(13.30345 -13.30345) rotate(-19.179 -36.452 -23.258)"/>
  <path d="M.192-.816a1.897 1.897 0 01-.271.152C.128-.118.216.222.192.782c0 0 .092.028.235.067A2.817 2.817 0 00.192-.816z" fill="url(#_Linear8)" fill-rule="nonzero" transform="scale(17.988 -17.988) rotate(-79.378 -3.048 -6.405)"/>
  <path d="M162.849 66.979H89.588a.749.749 0 100 1.498h5.638c1.932 0 3.747 1.018 4.675 2.711 2.639 4.81 2.445 12.237-.587 16.867a5.395 5.395 0 01-4.514 2.442h-3.09a.748.748 0 100 1.498h65.21a.749.749 0 000-1.498h-4.478c-1.775 0-3.453-.865-4.444-2.337-3.287-4.872-3.821-11.559-.46-17.086a5.413 5.413 0 014.613-2.597h10.698a.748.748 0 100-1.498" fill="#fff" fill-rule="nonzero"/>
  <path d="M115.98 175.116l46.063-36.904-4.205-15.088 11.18-14.142-3.849-.135-12.24 13.789-35.067 46.487-1.881 5.993z" fill="#124687" fill-rule="nonzero"/>
  <path d="M146.797 108.2l-22.271 46.431-8.547 14.366v6.119c15.34-16.364 24.244-25.289 42.362-38.83l-5.414-13.65 12.242-13.79-18.372-.645zM101.477 108.171l-12.968.458 9.407 13.384-7.491 12.19 27.43 26.058 5.081-8.834-21.46-43.256z" fill="#2f61a0" fill-rule="nonzero"/>
  <path d="M117.855 160.26l2.123 2.016 4.549-7.644-1.593-3.206-5.079 8.834z" fill="#1a5197" fill-rule="nonzero"/>
  <path d="M176.184 155.485v51.014c-9.916-1.739-21.343-9.616-21.343-24.504 0-7.593 6.41-21.971 9.99-29.386 3.908 1.333 7.652 2.292 11.353 2.876" fill="#124687" fill-rule="nonzero"/>
  <path d="M.497 1.574A3.028 3.028 0 00-1.212.97c-.027-.414-.054-1.204.089-1.558.321-.793 1.165-.878 1.655-.679.491.198 1.191.938.868 1.738-.19.467-.457.737-.646.88a2.49 2.49 0 00-.257.223z" fill="url(#_Linear9)" fill-rule="nonzero" transform="scale(16.67417 -16.67417) rotate(-22.036 -21.705 -32.34)"/>
  <path d="M.559-1.292c.138.091.283.173.434.243C.661-.177.521.368.559 1.263c0 0-.147.045-.376.107C.045.406.153-.384.559-1.292z" fill="url(#_Linear10)" fill-rule="nonzero" transform="scale(11.24815 -11.24815) rotate(79.378 16.346 2.533)"/>
  <path d="M88.22 93.523c-5.242 1.482-12.28 1.423-12.28 1.423l7.038 53.723c-9.81 2.277-16.13 1.858-26.465 0l5.063-56.989a18.29 18.29 0 016.156-12.13l14.543-12.747c8.283-6.38 8.553 1.302 6.666 4.224-.106.195-.241.375-.39.524.345-.03.672 0 .973.075 1.976.524 2.965 3.22 1.722 5.57a4.61 4.61 0 01-.284.482c.268.014.524.059.748.163 1.828.75 2.441 3.924 1.77 5.872a2.32 2.32 0 01-.182.433c.12.092.225.196.329.301 2.396 2.471-.374 7.639-5.407 9.076" fill="#f0adb4" fill-rule="nonzero"/>
  <path d="M88.55 71.551c.15-.149.285-.329.39-.523l-4.493 1.422a.37.37 0 00-.24.464.37.37 0 00.36.27.31.31 0 00.105-.03l4.852-1.528a2.982 2.982 0 00-.973-.075m2.41 6.127c.106-.15.196-.315.285-.48l-5.092 1.543a.365.365 0 00-.254.464.367.367 0 00.358.269c.031 0 .076 0 .106-.014l5.346-1.617a1.984 1.984 0 00-.749-.165m2.338 6.47a2.33 2.33 0 00.18-.435L88.4 85.211a.379.379 0 00-.254.464.37.37 0 00.36.27c.045 0 .076-.015.104-.015l5.018-1.483c-.105-.105-.21-.21-.329-.3" fill="#63375b" fill-rule="nonzero"/>
  <path d="M191.624 148.67c-10.333 1.858-16.64 2.277-26.449 0l7.023-53.724s-7.023.06-12.282-1.422c-5.016-1.439-7.801-6.59-5.42-9.062.104-.105.225-.21.345-.315a2.056 2.056 0 01-.18-.42c-.659-1.9-.075-5.045 1.707-5.854.255-.121.525-.182.823-.196a4.56 4.56 0 01-.255-.434c-1.257-2.276-.374-4.884 1.455-5.542h.015a2.592 2.592 0 011.181-.15 2.214 2.214 0 01-.223-.42v-.013c-.39-.854-.36-1.858-.031-2.802.93-2.665 4.419-3.37 6.546-1.512l14.527 12.745a18.293 18.293 0 016.156 12.133l5.062 56.988z" fill="#f0adb4" fill-rule="nonzero"/>
  <path d="M159.049 84.672l-4.388-.944c.045.15.105.286.18.419-.12.106-.24.21-.345.315l4.39.944c.03.014.059.014.088.014.166 0 .33-.12.36-.298a.387.387 0 00-.285-.45m2.457-6.395l-4.568-1.034c.074.15.164.3.254.434-.3.014-.568.075-.824.196l4.973 1.138c.03 0 .061.014.075.014.18 0 .329-.12.376-.3a.376.376 0 00-.286-.448m3.056-6.141l-5.198-1.004c.059.15.135.285.225.419a2.596 2.596 0 00-1.183.15l6.02 1.168c.015 0 .045.015.06.015a.385.385 0 00.374-.313c.045-.196-.088-.39-.298-.435" fill="#63375b" fill-rule="nonzero"/>
  <path d="M79.416 25.244a1.567 1.567 0 00-2.153-.51c-.274.174-.457.575-.682 1.005a6.71 6.71 0 00-5.199-2.459c-1.651 0-3.163.6-4.334 1.586-.084-.05-.169-.096-.248-.158-.903-.854-.88-2.32-1.455-2.82a1.855 1.855 0 00-2.612.194 1.843 1.843 0 00.183 2.604c.565.49 2.017.308 2.985 1.057.056.055.098.117.15.177a6.694 6.694 0 00.36 8.604c-.061.159-.131.314-.237.45-.55.56-1.482.573-1.797.933a1.174 1.174 0 00.112 1.664c.49.432 1.241.387 1.671-.105.32-.366.176-1.293.676-1.914.11-.116.245-.197.38-.273a6.684 6.684 0 004.166 1.453 6.686 6.686 0 004.433-1.677c.467.634.618 1.467 1.028 1.754a1.502 1.502 0 002.09-.37 1.494 1.494 0 00-.361-2.085c-.368-.26-1.1-.18-1.799-.339a6.682 6.682 0 00.875-6.438c.513-.022.985-.01 1.27-.187a1.556 1.556 0 00.498-2.146" fill="#fa97c5" fill-rule="nonzero"/>
  <path d="M79.416 25.244a1.567 1.567 0 00-2.153-.51c-.274.174-.457.575-.682 1.005a6.71 6.71 0 00-5.199-2.459c-1.651 0-3.163.6-4.334 1.586-.084-.05-.169-.096-.248-.158-.903-.854-.88-2.32-1.455-2.82a1.855 1.855 0 00-2.612.194 1.843 1.843 0 00.183 2.604c.565.49 2.017.308 2.985 1.057.056.055.098.117.15.177a6.694 6.694 0 00.36 8.604c-.061.159-.131.314-.237.45-.55.56-1.482.573-1.797.933a1.174 1.174 0 00.112 1.664c.49.432 1.241.387 1.671-.105.32-.366.176-1.293.676-1.914.11-.116.245-.197.38-.273a6.684 6.684 0 004.166 1.453 6.686 6.686 0 004.433-1.677c.467.634.618 1.467 1.028 1.754a1.502 1.502 0 002.09-.37 1.494 1.494 0 00-.361-2.085c-.368-.26-1.1-.18-1.799-.339a6.682 6.682 0 00.875-6.438c.513-.022.985-.01 1.27-.187a1.556 1.556 0 00.498-2.146z" fill="none" stroke="#e87daf" stroke-width=".49671360000000003" stroke-linecap="round" stroke-linejoin="round"/>
  <path d="M72.315 29.69c-.013.225.004.455.074.68.35.876 1.391 1.267 1.583 1.812a1.406 1.406 0 01-.861 1.79 1.4 1.4 0 01-1.788-.854c-.188-.536.344-1.51.085-2.402a2.122 2.122 0 00-.4-.603M71.626 25.338c.15-.17.278-.36.362-.58.264-.905-.313-1.857-.129-2.403a1.408 1.408 0 011.785-.876 1.4 1.4 0 01.877 1.776c-.181.537-1.2.973-1.547 1.837a2.06 2.06 0 00-.058.72M67.587 30.43a1.946 1.946 0 00-.643-.234c-.94-.074-1.754.687-2.327.617a1.407 1.407 0 01-1.22-1.568c.092-.77.79-1.315 1.559-1.222.563.069 1.198.977 2.114 1.14.245.015.486-.025.717-.09" fill="#fa97c5" fill-rule="nonzero" stroke="#e87daf" stroke-width=".49671360000000003" stroke-linecap="round" stroke-linejoin="round"/>
  <path d="M10.627 100.06c.537-.207.809-.811.602-1.348-.079-.204-.318-.373-.572-.573a4.49 4.49 0 001.555-1.437c.104.172.205.326.33.395a.934.934 0 001.273-.353.94.94 0 00-.352-1.28c-.155-.088-.396-.077-.658-.07.034-.122.087-.232.112-.358a4.475 4.475 0 00-.503-3.04c.045-.049.085-.1.135-.144.674-.485 1.633-.288 2.032-.603a1.237 1.237 0 00-1.532-1.94c-.393.308-.454 1.283-1.067 1.825-.042.03-.09.051-.133.076a4.456 4.456 0 00-1.25-.97c0-.005.005-.007.006-.01A.935.935 0 0010 89.055a.94.94 0 00-1.18.606c-.008.021.001.052-.003.077a4.464 4.464 0 00-2.655.637 1.128 1.128 0 01-.267-.211c-.3-.43-.19-1.043-.388-1.295a.787.787 0 00-1.106-.135.795.795 0 00-.139 1.11c.2.256.828.278 1.172.681.063.087.1.185.132.284a4.46 4.46 0 00-1.471 2.552 4.459 4.459 0 00.548 3.116c-.475.228-1.039.222-1.28.454a1.006 1.006 0 00-.018 1.42.999.999 0 001.414.022c.216-.21.255-.7.446-1.139a4.46 4.46 0 004.113 1.377c-.05.338-.116.646-.034.855.208.536.807.803 1.344.595" fill="#fa97c5" fill-rule="nonzero"/>
  <path d="M248.13 123.793a1.045 1.045 0 01-.601-1.348c.08-.204.318-.373.573-.573a4.509 4.509 0 01-1.557-1.438c-.104.173-.203.326-.328.396a.938.938 0 01-.922-1.633c.156-.088.395-.077.658-.071-.034-.121-.086-.231-.111-.357a4.474 4.474 0 01.501-3.04c-.043-.049-.084-.1-.135-.144-.672-.486-1.631-.288-2.03-.604a1.237 1.237 0 011.532-1.94c.39.31.453 1.284 1.066 1.826.042.03.089.05.134.076.349-.393.774-.719 1.25-.97-.002-.004-.007-.007-.007-.01a.932.932 0 01.605-1.175.941.941 0 011.182.606c.007.021-.002.052.001.077.956-.065 1.88.16 2.656.637a1.16 1.16 0 00.267-.212c.298-.43.19-1.043.387-1.294a.787.787 0 011.106-.135.792.792 0 01.138 1.11c-.2.256-.827.278-1.17.681a.986.986 0 00-.132.284 4.46 4.46 0 011.472 2.552 4.459 4.459 0 01-.548 3.115c.473.229 1.038.222 1.279.455a1.004 1.004 0 01-1.396 1.442c-.216-.21-.256-.7-.445-1.14a4.47 4.47 0 01-4.114 1.378c.048.338.117.645.034.855a1.04 1.04 0 01-1.345.594M.028 150.21a.614.614 0 01.4-.77c.122-.038.286.011.473.055a2.637 2.637 0 01.09-1.242c-.118.016-.225.026-.303-.006a.55.55 0 01.411-1.02c.1.039.182.152.275.275.044-.06.075-.124.123-.18a2.623 2.623 0 011.58-.884c.006-.037.015-.074.015-.113-.023-.487-.464-.855-.465-1.155a.728.728 0 01.725-.726.723.723 0 01.726.72c.002.293-.424.678-.449 1.158.002.031.01.06.016.089.307.017.613.093.902.218l.001-.006a.552.552 0 01.916.612c-.008.012-.025.018-.036.03.382.414.615.92.682 1.452.06.022.126.04.194.044.306-.019.548-.294.736-.297a.466.466 0 01.006.93c-.19.001-.429-.278-.739-.289-.064.003-.121.024-.178.044a2.628 2.628 0 01-2.265 2.497c.07.301.278.559.259.755a.588.588 0 01-.644.526.585.585 0 01-.528-.64c.017-.175.227-.374.359-.62a2.624 2.624 0 01-2.138-1.387c-.136.148-.253.29-.378.33a.61.61 0 01-.766-.4M162.889 25.148a.776.776 0 011.094-.076c.121.107.179.317.255.545a3.36 3.36 0 011.4-.72c-.095-.117-.177-.227-.194-.33a.692.692 0 01.571-.799c.379-.063.74.191.803.571.021.13-.045.295-.118.479.094.006.184-.004.278.012a3.32 3.32 0 011.994 1.124c.045-.019.092-.034.134-.06.51-.344.616-1.064.937-1.263a.92.92 0 01.966 1.565c-.317.194-1.012-.01-1.546.278-.031.023-.058.05-.086.074.185.345.303.724.359 1.12l.008-.002c.383.015.68.338.666.722a.7.7 0 01-.724.67c-.017-.001-.037-.015-.054-.018a3.313 3.313 0 01-1.12 1.69.846.846 0 00.08.24c.222.319.678.398.804.6a.588.588 0 01-.997.62c-.127-.204.017-.647-.177-.99a.826.826 0 00-.164-.164 3.313 3.313 0 01-2.158.377 3.312 3.312 0 01-2.033-1.175c-.281.273-.42.667-.643.776a.746.746 0 01-.65-1.34c.2-.097.552 0 .906-.021a3.327 3.327 0 01-.332-2.07c.069-.418.216-.805.42-1.151-.25-.053-.48-.084-.606-.193a.772.772 0 01-.073-1.09M41.244 46.544a2.075 2.075 0 10-4.148 0 2.074 2.074 0 004.148 0M212.453 68.589a2.075 2.075 0 10-2.074 2.072 2.074 2.074 0 002.074-2.072" fill="#a0c2e8" fill-rule="nonzero"/>
  <defs>
    <linearGradient id="_Linear1" x1="0" y1="0" x2="1" y2="0" gradientUnits="userSpaceOnUse" gradientTransform="matrix(1 0 0 -1 0 0)">
      <stop offset="0" stop-color="#f2b079"/>
      <stop offset="1" stop-color="#d48f55"/>
    </linearGradient>
    <linearGradient id="_Linear2" x1="0" y1="0" x2="1" y2="0" gradientUnits="userSpaceOnUse" gradientTransform="matrix(1 0 0 -1 0 0)">
      <stop offset="0" stop-color="#f2b079"/>
      <stop offset="1" stop-color="#d48f55"/>
    </linearGradient>
    <linearGradient id="_Linear3" x1="0" y1="0" x2="1" y2="0" gradientUnits="userSpaceOnUse" gradientTransform="matrix(1 0 0 -1 0 0)">
      <stop offset="0" stop-color="#f1adb3"/>
      <stop offset="1" stop-color="#d4858d"/>
    </linearGradient>
    <linearGradient id="_Linear4" x1="0" y1="0" x2="1" y2="0" gradientUnits="userSpaceOnUse" gradientTransform="matrix(1 0 0 -1 0 0)">
      <stop offset="0" stop-color="#f1adb3"/>
      <stop offset="1" stop-color="#d4858d"/>
    </linearGradient>
    <linearGradient id="_Linear5" x1="0" y1="0" x2="1" y2="0" gradientUnits="userSpaceOnUse" gradientTransform="matrix(1 0 0 -1 0 .126)">
      <stop offset="0" stop-color="#2f61a0"/>
      <stop offset="1" stop-color="#124687"/>
    </linearGradient>
    <linearGradient id="_Linear6" x1="0" y1="0" x2="1" y2="0" gradientUnits="userSpaceOnUse" gradientTransform="scale(1 -1) rotate(-80.786 .233 0)">
      <stop offset="0" stop-color="#1a5197"/>
      <stop offset="1" stop-color="#124687"/>
    </linearGradient>
    <linearGradient id="_Linear7" x1="0" y1="0" x2="1" y2="0" gradientUnits="userSpaceOnUse" gradientTransform="matrix(1 0 0 -1 0 .126)">
      <stop offset="0" stop-color="#2f61a0"/>
      <stop offset="1" stop-color="#1a5197"/>
    </linearGradient>
    <linearGradient id="_Linear8" x1="0" y1="0" x2="1" y2="0" gradientUnits="userSpaceOnUse" gradientTransform="scale(1 -1) rotate(-80.786 .233 0)">
      <stop offset="0" stop-color="#1a5197"/>
      <stop offset="1" stop-color="#124687"/>
    </linearGradient>
    <linearGradient id="_Linear9" x1="0" y1="0" x2="1" y2="0" gradientUnits="userSpaceOnUse" gradientTransform="matrix(1 0 0 -1 0 .108)">
      <stop offset="0" stop-color="#2f61a0"/>
      <stop offset="1" stop-color="#124687"/>
    </linearGradient>
    <linearGradient id="_Linear10" x1="0" y1="0" x2="1" y2="0" gradientUnits="userSpaceOnUse" gradientTransform="scale(-1 1) rotate(-85.449 0 .616)">
      <stop offset="0" stop-color="#1a5197"/>
      <stop offset="1" stop-color="#124687"/>
    </linearGradient>
  </defs>
</svg>