<svg viewBox="0 0 257 233" xmlns="http://www.w3.org/2000/svg" fill-rule="evenodd" clip-rule="evenodd" stroke-miterlimit="10">
  <path d="M211.008 47.673l-66.022.908c1.614-3.67 7.97-14.267 13.752-14.267 5.12 0 2.03 7.252 5.416 7.252 4.881 0 8.185-15.526 15.469-15.526 2.648 0 5.255 1.595 5.255 5.326 0 1.733-.397 3.64-.397 5.374 0 3.276 1.828 4.7 3.251 4.7 2.6 0 6.42-3.473 9.178-3.473 1.411 0 2.402.5 2.402 1.895 0 .977-.415 2.168-.415 3.162 0 1.17.773 1.808 1.427 1.808 1.549 0 5.537-2.731 8.217-2.731 1.516 0 2.613.874 2.613 3.61 0 .581-.055 1.26-.146 1.962" fill="#c8dcf2" fill-rule="nonzero"/>
  <path d="M32.217 56.989C44.291 74.215 52.545 94.067 58.2 112.512M3.567 54.198c21.37 12.386 34.01 40.701 41.206 65.64" fill="none" stroke="#10132b" stroke-width=".9998182000000001"/>
  <path d="M28.685 57.596a4.08 4.08 0 01-.196-.6c-.57-2.363 1.27-4.49 3.39-5.002 2.448-.59 4.246 1.064 4.834 3.502.609 2.523-.888 4.119-2.78 4.575-1.957.473-4.338-.274-5.248-2.475M4.792 46.57l-.12.01c-3.294.302-4.917 3.696-4.642 6.697.24 2.623 1.928 4.947 5.214 4.647 2.723-.249 3.415-3.342 3.172-6-.255-2.797-1.6-5.49-3.624-5.353" fill="#fa97c4" fill-rule="nonzero"/>
  <path d="M23.278 127.922c3.239.373 22.938 26.687 22.938 26.687s-16.461-40.684-8.366-42.736c7.47-1.895 27.573 31.161 30.638 36.287.256.433.395.663.395.663l-.395-.663c-3.83-6.482-33.94-58.333-18.765-61.482 16.191-3.359 40.478 58.786 40.478 58.786 1.56 3.773 2.932 9.2 3.857 13.35l-66.462-.846s-7.555-30.42-4.318-30.046" fill="#81a4e3" fill-rule="nonzero"/>
  <path d="M41.06 157.17c-.197.007-.405.012-.625.014-1.549.016-3.629-.081-5.82-.06-5.623.055-11.97.89-11.916 6.406.133 13.667 61.412.211 61.54 13.261.032 3.269-3.654 7.149-3.622 10.304.04 4.21 7.378 5.343 11.582 5.302 5.412-.053 11.304-1.346 16.531-1.397 17.839-.175 13.883 15.007 44.784 14.705 51.62-.506-.15-26.035 57.605-26.601 2.158-.02 4.346-.031 6.539-.053 11.269-.11 38.455-.935 38.342-12.442-.109-11.002-20.865-10.966-31.85-10.858-12.24.119-23.627 1.76-95.73 2.467-25.403.248-50.886-1.55-76.206-1.302-3.721.036-7.44.116-11.154.255" fill="#c8dcf2" fill-rule="nonzero"/>
  <path d="M207.937 157.473H69.447a2.847 2.847 0 01-2.847-2.847v-91.26a2.847 2.847 0 012.847-2.847h138.49a2.846 2.846 0 012.847 2.847v91.26a2.846 2.846 0 01-2.847 2.847z" fill="none" stroke="#23263c" stroke-width=".9998182000000001" stroke-linecap="round" stroke-linejoin="round"/>
  <path d="M67.731 61.363l67.009 62.565c2.323 2.169 5.58 2.169 7.903 0l67.009-62.565M209.111 156.968l-50.927-47.55M119.199 109.418l-50.928 47.55" fill="none" stroke="#23263c" stroke-width=".9998182000000001" stroke-linecap="round" stroke-linejoin="round"/>
  <path d="M.146 1.388c-.543-.001-.944-.381-.942-.941.001-.364.154-.659.431-.935a.684.684 0 00.167-.228l.7.001a.692.692 0 00.166.23c.276.277.427.574.426.938-.002.558-.403.935-.944.935H.146z" fill="url(#_Radial1)" fill-rule="nonzero" transform="matrix(33.9206 0 0 -33.9206 69.707 81.737)"/>
  <path d="M85.935 110.197l.029 9.43c.014 5.161-4.155 9.344-9.302 9.373h-3.446c-5.147.013-9.344-4.155-9.358-9.302l-.029-9.445a11.32 11.32 0 00-.822-4.225l23.722-.042a11.466 11.466 0 00-.794 4.211" fill="#374161" fill-rule="nonzero"/>
  <path d="M63.832 114.392a2.127 2.127 0 01-.007-4.255l22.116-.066h.007a2.127 2.127 0 01.007 4.254l-22.116.067h-.007zM63.851 122.028a2.127 2.127 0 01-.007-4.254l22.115-.067h.007a2.128 2.128 0 01.006 4.254l-22.113.067h-.008z" fill="#46537a" fill-rule="nonzero"/>
  <path d="M90.776 73.274c-2.666.009-2.692-8.953-5.359-8.945-2.665.008-2.638 8.97-5.303 8.977-2.665.009-2.692-8.953-5.357-8.945-2.666.008-2.64 8.969-5.305 8.977-2.67.008-2.698-8.953-5.368-8.945-2.67.008-2.644 8.97-5.314 8.977" fill="none" stroke="#fefefe" stroke-width=".9998182000000001" stroke-linecap="round" stroke-linejoin="round"/>
  <path d="M239.622 166.734a6.632 6.632 0 006.456-5.106c.819-3.48 1.546-6.976 1.546-10.473 0-6.483-2.296-12.81-8.88-12.81-2.782 0-5.782 1.149-8.225 2.91-1.88-11.387-21.048-36.801-34.333-36.801-8.797 0-15.453 8.7-15.824 24.496-4.278-7.694-8.42-10.834-12.147-10.834-9.203 0-15.883 19.141-15.883 36.133 0 4.747.586 8.884 1.692 12.485h85.598z" fill="#a7c2ed" fill-rule="nonzero"/>
  <path d="M218.203 129.941c-2.668 12.279-8.374 26.343-16.478 37.016" fill="none" stroke="#c8dcf2" stroke-width=".9998182000000001" stroke-linecap="round" stroke-linejoin="round"/>
  <path d="M237.715 148.307c-1.162 6.418-3.885 12.6-7.361 18.428M231.312 148.02c-.072 3.165 1.608 6.639 3.664 9.542M206.946 122.356c2.063 6.676 4.685 12.06 8.717 16.986M168.479 130.075c2.444 13.468 7.832 25.254 14.62 36.658M163.51 132.498c2.03 1.593 4.076 2.876 6.311 3.717M178.105 146.294c-.305 1.958-1.303 4.163-2.512 6.198M207.694 157.779a32.983 32.983 0 009.209-2.022" fill="none" stroke="#c8dcf2" stroke-width=".9998182000000001" stroke-linecap="round" stroke-linejoin="round" stroke-miterlimit="4"/>
  <path d="M.662-.455c.378.328.557.842.007 1.299L.662.841C.464.392.663-.256.158-.739c.178.057.356.157.504.284z" fill="url(#_Linear2)" fill-rule="nonzero" transform="scale(-44.4355 44.4355) rotate(50.506 -5.038 -1.945)"/>
  <path d="M158.32 187.754c-9.802-19.464-37.627-30.959-39.948-61.916 5.295 7.787 18.023 11.367 28.19 18.412 7.548 5.226 13.679 12.363 14.33 24.566.299 5.272-.457 11.504-2.572 18.938" fill="#6c8bd2" fill-rule="nonzero"/>
  <path d="M158.13 188.099c8.462-41.668 55.907-30.004 52.426-84.265" fill="none" stroke="#374bbd" stroke-width=".9998182000000001" stroke-linecap="round" stroke-linejoin="round"/>
  <path d="M210.778 108.808c7.123-15.846 7.389-31.98-1.434-30.928-8.822 1.054-4.294 18.388 1.434 30.928M206.717 129.4c-2.624-13.841-9.925-24.688-15.281-19.889-6.36 6.053 4.26 16.148 15.281 19.888M209.675 121.757c5.893-11.912 15.276-19.919 18.927-14.2 4.244 7.112-7.964 13.594-18.927 14.2M198.666 143.112c10.307 7.674 20.855 14.388 23.709 5.83 2.855-8.559-11.913-9.807-23.709-5.83M190.802 148.482s2.806-25.587-8.218-22.39c-11.023 3.197 8.218 22.39 8.218 22.39M175.097 160.347c14.695 10.095 26.179 11.846 27.09 5.757 1.222-8.162-14.071-9.328-27.09-5.757M169.15 166.196c.457-11.196 6.788-19.394 2.952-24.429-3.834-5.035-20.33 2.25-2.952 24.43" fill="#374bbd" fill-rule="nonzero"/>
  <path d="M125.075 145.242c2.814 4.36 6.029 8.426 9.503 12.277 3.433 3.887 7.06 7.617 10.578 11.494 3.532 3.86 6.933 7.904 9.914 12.3.709 1.125 1.427 2.244 2.118 3.379.634 1.172 1.288 2.334 1.904 3.517.552 1.216 1.12 2.426 1.656 3.65l.69 1.884c.106.318.253.62.324.95.028.343-.064.728-.569 1.233a.828.828 0 01-.703.235l-.024-.004c-.728-.107-1.041-.335-1.235-.605-.152-.283-.228-.592-.345-.887l-.642-1.79-1.553-3.479c-.583-1.131-1.2-2.245-1.8-3.37l-2.011-3.26c-2.781-4.3-6.081-8.281-9.45-12.227-3.388-3.933-6.881-7.821-10.178-11.9-3.255-4.103-6.378-8.366-8.835-13.011a.381.381 0 01.658-.386" fill="#c8dcf2" fill-rule="nonzero"/>
  <defs>
    <radialGradient id="_Radial1" cx="0" cy="0" r="1" gradientUnits="userSpaceOnUse" gradientTransform="matrix(1 0 0 -1 0 .672)">
      <stop offset="0" stop-color="#ffd9ba"/>
      <stop offset="1" stop-color="#f2a463"/>
    </radialGradient>
    <linearGradient id="_Linear2" x1="0" y1="0" x2="1" y2="0" gradientUnits="userSpaceOnUse" gradientTransform="scale(-1 1) rotate(50.506 0 -1)">
      <stop offset="0" stop-color="#6c8bd2"/>
      <stop offset="1" stop-color="#4b72cb"/>
    </linearGradient>
  </defs>
</svg>
