<svg viewBox="0 0 285 207" xmlns="http://www.w3.org/2000/svg" fill-rule="evenodd" clip-rule="evenodd" stroke-linecap="round" stroke-linejoin="round" stroke-miterlimit="10">
  <path d="M281.942 207.003H26.586c-62.991-73.856 24.504-110.087 38.042-87.538-4.383-38.171 40.573-70.709 81.143-56.797 60.289-34.78 115.347 51.005 95.643 86.36 29.563 1.738 45.788 30.151 40.528 57.975" fill="#c8dcf2" fill-rule="nonzero"/>
  <path d="M138.323 110.656h44.23c-.424-5.554-3.988-10.137-8.633-5.287.674-5.037-4.07-5.734-7.93-1.937 6.733-9.934-3.438-18.885-15.684-.352-.201-4.539-10.452-3.319-11.983 7.576" fill="#fff" fill-rule="nonzero"/>
  <path d="M137.918 131.227c2.065 3.821 4.058 7.316 5.402 11.323 3.767-2.617 6.995-6.457 6.995-10.243 0-2.528-1.098-5.076-1.098-7.621 0-5.622 5.792-8.685 5.792-14.412 0-1.518-.426-2.758-1.123-3.883-3.492 12.338-13.861 12.163-15.968 24.836" fill="#5488c4" fill-rule="nonzero"/>
  <path d="M4.294-3.364c-1.062-.782-2.078-1.621-2.832-2.717C1.611-1.936-1.257-.997-.878.732c.084.38.3.744.383 1.124.231 1.053-.776 1.335-.503 2.578.076.347.22.67.294 1.007.045.205.064.416.027.64.981-.489.32-1.444.956-2.236.435-.543 1.186-.685 1.643-1.278.707-.918-.603-1.021 1.061-2.63C4.164-1.205 4.385-1.95 4.294-3.364z" fill="url(#_Linear1)" fill-rule="nonzero" transform="scale(8.02626 -8.02626) rotate(12.381 88.27 8.33)"/>
  <path d="M58.76 120.515c3.203-2.352 7.08-3.965 10.981-4.455.114-.944.181-1.886.181-2.833 0-11.478-9.294-10.31-9.294-17.09 0-1.275.303-2.563.303-3.874 0-4.948-4.3-4.443-6.431-6.73-2.54-2.73-1.648-9.261-5.263-9.261-.461 0-.996.106-1.621.34.706 1.216.905 2.702.905 4.29 0 2.064-.337 4.302-.337 6.343 0 7.18 5.45 4.974 5.45 11.27 0 2.791-1.034 4.987-1.034 8.291 0 5.312 2.576 9.906 6.16 13.71M61.325 165.145c.032-9.535.183-19.852 3.352-28.774-4.386-7.421-12.094-8.531-16.617-16.218-1.798-3.056-.557-6.716-2.522-9.82-2.709-4.276-8.422-3.565-8.422-10.766 0-1.302.156-2.602.156-3.907 0-8.312-6.426-6.323-8.636-9.584-1.76-2.594-.943-11.852-5.877-11.852-1.06 0-1.848.622-1.848 1.938 0 2.781 2.055 4.211 2.055 7.663 0 2.517-.913 4.846-.913 7.308 0 6.332 5.605 6.044 5.61 11.472v.007c0 3.216-1.88 6.683-1.88 10.004 0 7.986 10.714 7.157 10.714 15.123 0 2.286-.81 4.628-.81 6.87 0 10.694 8.385 3.352 9.174 19.474.354 7.219 10.161 9.032 16.464 11.062" fill="#76a5db" fill-rule="nonzero"/>
  <path d="M56.71 152.61c-2.112-4.463-6.676-7.947-10.101-12.776-.844-1.217-1.611-2.52-2.192-3.935-.576-1.4-.96-2.835-1.256-4.244-.588-2.816-.86-5.551-1.631-8.087-.378-1.251-.901-2.503-1.552-3.557-.687-1.053-1.631-2.012-2.627-2.966-.994-.958-2.048-1.92-2.964-3.071-.941-1.135-1.587-2.567-1.888-3.974-.643-2.851-.342-5.665-.495-8.41-.076-1.371-.263-2.744-.757-4.024-.484-1.282-1.314-2.429-2.374-3.336a8.42 8.42 0 012.623 3.23c.593 1.284.876 2.691 1.046 4.084.327 2.784.233 5.613.999 8.179.646 2.646 2.74 4.331 4.892 6.12 1.069.906 2.17 1.865 3.093 3.088.895 1.26 1.523 2.568 2.043 3.945 1.026 2.743 1.488 5.559 2.212 8.144.694 2.624 1.762 4.864 3.422 6.887 3.213 4.092 8.139 7.213 11.323 12.696l-3.815 2.008z" fill="#9bc5f2" fill-rule="nonzero"/>
  <path d="M2.658-2.07c-.154.399-.178.874-.138 1.285a.599.599 0 00-.242.112c-.217.172-.242.475-.602.762-.452.359-.64.065-.949.312-.273.217-.345.635-.628.86-.383.306-.649.022-1.327.562a3.472 3.472 0 00-.409.386c.113-.335.205-.708.442-.897.152-.122.367-.188.517-.307.33-.263.222-.937.571-1.215.173-.137.451-.117.634-.263.411-.327-.007-.886.53-1.314.404-.322 1.128-.372 1.601-.283z" fill="url(#_Linear2)" fill-rule="nonzero" transform="matrix(6.332 10.64926 10.64926 -6.332 150.714 151.292)"/>
  <path d="M1.201-3.319C.265-2.533.214-1.283.664-.727c-1.457.524-1.315 2.244.537 2.102L3.888.923 1.201-3.319z" fill="url(#_Linear3)" fill-rule="nonzero" transform="scale(7.4963 -7.4963) rotate(-57.639 -20.813 -15.584)"/>
  <path d="M33.462 207.002h18.475c-6.867-26.84-26.857-48.266-34.376-48.266-11.228 0-10.13 20.461-13.926 31.812 6.404-5.787 13.797-16.96 19.397-16.96 6.354 0 9.305 23.925 10.43 33.414" fill="#5488c4" fill-rule="nonzero"/>
  <path d="M65.19 193.997l-1.626 13.006H36.518l1.896-13.006h26.775z" fill="#8b546d" fill-rule="nonzero"/>
  <path d="M.942-1.43l-3.957-1.344-.126.612-1.21-.41-.096.519-.475 2.569c-.082.448.142.898.552 1.098.258.126.505.236.746.335.451.184.885.327 1.352.45.093.025.188.048.284.072a1.573 1.573 0 001.789-.855L.942-1.43z" fill="url(#_Linear4)" fill-rule="nonzero" transform="scale(20.96467 -20.96467) rotate(-18.759 -21.484 -24.63)"/>
  <path d="M73.553 207.004h-9.989l1.626-13.007 1.35-10.95 3.592-28.86 3.42 52.817z" fill="#e68f58" fill-rule="nonzero"/>
  <path d="M69.356 185.288v6.467a2.245 2.245 0 01-2.242 2.242H36.761a2.245 2.245 0 01-2.242-2.242v-6.467a2.245 2.245 0 012.242-2.242h30.353a2.245 2.245 0 012.242 2.242M125.32 133.75l-17.277-.56-16.296 3.65s-9.975-20.78-9.975-23.167a7.44 7.44 0 011.552-4.527c10.191-.618 19.777-.531 29.866.173 6.61 7.186 12.13 24.432 12.13 24.432" fill="#ffdaa5" fill-rule="nonzero"/>
  <path d="M117.414 55.572c-2.814 1.138-3.743 5.253-7.833 4.904-4.091-.353-11.221-.703-15.195 2.57-3.975 3.273-2.69 14.962-2.69 14.962l-3.731-.728c-5.76-2.33-7.816 6.854-.697 8.076v23.584c1.719 11.61 9.104 19.45 22.049 27.411 4.478-4.38 2.822-16.77 1.76-27.163l-2.012-10.053c10.566-2.25 17.858-10.715 16.325-22.266-1.145-8.62-2.034-14.472-3.839-22.072.01-.051.012-.102.02-.153-1.688-.187-3.107.503-4.157.928" fill="#8b546d" fill-rule="nonzero"/>
  <path d="M94.385 63.046c3.975-3.272 11.105-2.922 15.195-2.571 4.091.35 5.018-3.766 7.832-4.904 1.052-.425 2.47-1.115 4.158-.928.83-4.728-3.758-8.606-7.15-7.386-1.37-3.153-7.812-4.25-10.691-1.782-.549-2.33-7.13-2.468-8.226 1.782-5.894-.958-9.39 3.494-9.733 8.638-6.58 3.7-4.799 13.57 2.193 21.385l3.733.728s-1.287-11.69 2.689-14.962" fill="#383a44" fill-rule="nonzero"/>
  <path d="M116.166 161.135a2.686 2.686 0 11-5.372-.003 2.686 2.686 0 015.372.003M116.702 177.65a2.685 2.685 0 11-5.37-.002 2.685 2.685 0 015.37.001M117.238 194.164a2.685 2.685 0 11-5.37.002 2.685 2.685 0 015.37-.002" fill="#fff" fill-rule="nonzero"/>
  <path d="M107.152 207.004h-3.606l1.62-61.011 1.986 61.01z" fill="#e68f58" fill-rule="nonzero"/>
  <path d="M110.862 70.968s-.763 4.789.625 7.147c1.04 1.528 1.735 1.528 1.735 2.36 0 .832-2.846 2.151-2.846 2.151" fill="none" stroke="#63375b" stroke-width=".5030095"/>
  <path d="M104.721 75.269c.17.965-.332 1.861-1.12 1.998-.79.139-1.566-.532-1.734-1.498-.169-.965.332-1.862 1.12-2 .79-.136 1.565.534 1.734 1.5M118.77 73.57c0 .94-.62 1.702-1.388 1.702-.766 0-1.385-.762-1.385-1.702 0-.939.62-1.7 1.385-1.7.768 0 1.388.761 1.388 1.7" fill="#383a44" fill-rule="nonzero"/>
  <path d="M105.03 86.194a3.99 3.99 0 00-7.98 0 3.989 3.989 0 003.991 3.987 3.986 3.986 0 003.988-3.987" fill="#a36380" fill-rule="nonzero"/>
  <path d="M186.773 40.731h-38.151a6.447 6.447 0 00-6.447 6.447v22.547a6.447 6.447 0 006.447 6.447h17.873l3.183 5.29 2.179-5.29h14.916a6.446 6.446 0 006.447-6.447V47.178a6.446 6.446 0 00-6.447-6.447z" fill="#fff" fill-rule="nonzero" stroke="#1a5197" stroke-width=".5030095"/>
  <path d="M158.192 57.844a2.298 2.298 0 10-4.596 0 2.298 2.298 0 004.596 0M169.311 57.844a2.298 2.298 0 10-4.596 0 2.298 2.298 0 004.596 0M180.432 57.843a2.298 2.298 0 10-4.596 0 2.298 2.298 0 004.596 0" fill="#1a5197" fill-rule="nonzero"/>
  <path d="M63.117 61.238l6.798-.317M62.041 49.242l9.957 2.055M68.203 38.18l7.272 4.584M79.725 32.032l2.53 6.322M93.789 31.4l-.157 4.583" fill="none" stroke="#1a5197" stroke-width="1.006019" stroke-miterlimit="4"/>
  <path d="M185.307 129.338c0 3.995 3.781 6.51 3.781 10.548 0 6.985-10.19 9.586-10.19 16.887 0 4.628 3.134 8.321 3.134 12.848 0 6.525-7.101 8.207-7.101 13.812v.057c.044 3.995 5.518 5.648 5.518 10.563 0 5.792-5.576 6.913-5.576 10.995 0 .589.115 1.236.36 1.954h-37.524c2.27-6.798 7.17-10.074 9.872-18.05 2.07-6.065-.329-11.512 3.565-17.29 4.413-6.496 14.3-6.913 14.3-16.858 0-1.063-.057-2.17-.057-3.233 0-9.069 7.041-8.422 10.735-13.093 3.263-4.153.806-7.818 2.687-11.9 2.56-5.605 8.74-7.358 10.35-16.499.012.26.012.504.012.748 0 6.093-3.735 11.9-3.866 18.352v.159z" fill="#76a5db" fill-rule="nonzero"/>
  <path d="M183.31 131.782c-1.208 4.441-2.485 8.94-4.758 13.035-.544 1.035-1.207 2.012-1.925 2.96-.719.906-1.567 1.754-2.286 2.602-1.465 1.653-1.509 3.981-1.494 6.237.014.963.115 1.94.215 2.932.13 1.323.26 2.645.26 4.01.028.949-.043 1.911-.202 2.889v.014c-.244 1.466-.704 2.889-1.552 4.211-1.409 2.141-3.392 3.55-4.786 5.174a13.19 13.19 0 00-.949 1.221v.015a13.68 13.68 0 00-1.35 2.472 14.427 14.427 0 00-.647 1.926c-1.064 4.24-.79 8.766-.633 13.423a27.341 27.341 0 01-.143 4.599c-.13 1.15-.316 2.27-.56 3.406a36.189 36.189 0 01-1.122 4.096h-3.907c1.077-2.645 1.91-5.332 2.312-8.135.158-.862.244-1.739.273-2.644.029-.446.029-.877.029-1.322.072-4.556-.042-9.4 1.365-14.128a16.228 16.228 0 012.745-5.274c.316-.402.632-.762.977-1.121l.144-.144c1.696-1.71 3.521-2.96 4.7-4.599 1.207-1.71 1.681-3.894 1.753-6.108.029-.632.029-1.264 0-1.911v-.029c-.058-1.61-.201-3.262-.173-4.944v-.029l.101-1.782c.086-.603.13-1.178.273-1.782.216-1.193.848-2.4 1.669-3.29.817-.877 1.651-1.625 2.398-2.487a19.082 19.082 0 001.97-2.774c2.4-3.909 3.908-8.335 5.302-12.719" fill="#9bc5f2" fill-rule="nonzero"/>
  <path d="M206.182 72.368c-4.16-4.724-3.97-10.96-3.97-13.416 0-2.457 4.538-8.504 20.032-8.504 15.495 0 22.11 9.637 23.243 15.495 1.134 5.857-.19 13.227 2.268 18.519 2.456 5.292 13.982 7.558 18.52 16.63 4.534 9.07-4.538 17.385-1.136 23.62 2.892 5.301 13.932 9.364 13.932 24.07 0 8.987-7.429 5.955-10.364 9.72-2.543 3.262-1.68 10.763-9.035 10.763-5.23 0-10.165-5.458-10.488-10.539-8.435-31.365-38.844-81.634-43.002-86.358" fill="#63375b" fill-rule="nonzero"/>
  <path d="M249.06 172.152l-20.94-5.476c-2.989-10.089-3.952-18.123-2.917-30.928l-6.54 39.968-22.304-1.308c-2.328-8.695-5.776-18.813-5.776-24.015 0-5.95 6.394-24.705 9.47-33.386a11.845 11.845 0 017.803-7.387c3.766-1.135 9.557-2.155 18.152-2.155a60.154 60.154 0 0117.476 2.615c8.968 2.702 15.349 10.707 15.938 20.063 1.107 17.246-1.998 29.85-10.362 42.009" fill="#2f61a0" fill-rule="nonzero"/>
  <path d="M249.059 172.152l-1.709 7.745-22.35-3.85 3.12-9.37 20.939 5.475z" fill="#fff" fill-rule="nonzero"/>
  <path d="M-.09 5.928l.793-.665a2.056 2.056 0 00.142-3.045C-.139 1.24-1.012.388-1.937-.493a221.064 221.064 0 00-2.709-2.534 1.168 1.168 0 01-.294-.438c-.272-.704-.6-1.413-.988-2.25-.071-.151-.3-.099-.296.069.023.951.064 1.782.074 2.519a.26.26 0 01-.207.256 4.01 4.01 0 01-.423.055.287.287 0 00-.268.291.29.29 0 00.171.264c.955.428 2.05 1.086 2.43 1.535l.604 1.01L-2.33 2.82l.43.718-.004.005L-.09 5.928z" fill="url(#_Linear5)" fill-rule="nonzero" transform="scale(7.56702 -7.56702) rotate(-62.525 -8.163 -35.918)"/>
  <path d="M228.12 166.675l-3.118 9.37-.015.044-6.323-.374 6.54-39.968c-1.036 12.806-.073 20.84 2.916 30.928" fill="#1a5197" fill-rule="nonzero"/>
  <path d="M251.604 207.002h-62.547s6.654-9.126 8.74-17.088c9.14 3.133 17.906 6.022 27.907 9.213 7.59 2.428 15.566-1.28 18.8-8.164 3.074 4.47 5.016 8.954 7.1 16.04" fill="#2f61a0" fill-rule="nonzero"/>
  <path d="M-1.344 1.236c-.09-.15-.216-.261.09-.282.094-.41.311-.892 1.039-.718l.169-.906c-.139-.362-.25-.88-.349-1.457-.024-.136.161-.203.229-.082.381.677.723 1.214 1.168 1.864l-.21.782c-.336 1.254-1.611.697-1.848 1.577-.051.193-.218.374-.218.374-.001-.03-.201-.174-.051-1.048a.15.15 0 00-.019-.104z" fill="url(#_Linear6)" fill-rule="nonzero" transform="scale(15.62648 -15.62648) rotate(-15.018 -16.848 -56.173)"/>
  <path d="M217.994 82.41a3.38 3.38 0 10-3.379 3.377 3.378 3.378 0 003.38-3.378" fill="#e08e98" fill-rule="nonzero"/>
  <path d="M210.268 73.691c0 .94-.552 1.705-1.23 1.705-.682 0-1.233-.765-1.233-1.705 0-.941.551-1.704 1.233-1.704.678 0 1.23.763 1.23 1.704" fill="#63375b" fill-rule="nonzero"/>
  <path d="M132.402 34.378a1.92 1.92 0 10-3.84-.001 1.92 1.92 0 003.84 0M3.839 123.585a1.92 1.92 0 10-3.84-.002 1.92 1.92 0 003.84.002M259.215 74.608a1.918 1.918 0 10-3.839 0 1.92 1.92 0 103.839 0" fill="#a0c2e8" fill-rule="nonzero"/>
  <defs>
    <linearGradient id="_Linear1" x1="0" y1="0" x2="1" y2="0" gradientUnits="userSpaceOnUse" gradientTransform="matrix(1 0 0 -1 0 0)">
      <stop offset="0" stop-color="#2f61a0"/>
      <stop offset="0" stop-color="#2f61a0"/>
      <stop offset="1" stop-color="#1a5197"/>
    </linearGradient>
    <linearGradient id="_Linear2" x1="0" y1="0" x2="1" y2="0" gradientUnits="userSpaceOnUse" gradientTransform="matrix(1 0 0 -1 0 .05)">
      <stop offset="0" stop-color="#2f61a0"/>
      <stop offset="0" stop-color="#2f61a0"/>
      <stop offset="1" stop-color="#1a5197"/>
    </linearGradient>
    <linearGradient id="_Linear3" x1="0" y1="0" x2="1" y2="0" gradientUnits="userSpaceOnUse" gradientTransform="scale(1 -1) rotate(-63.495 1.398 0)">
      <stop offset="0" stop-color="#2f61a0"/>
      <stop offset="0" stop-color="#2f61a0"/>
      <stop offset="1" stop-color="#1a5197"/>
    </linearGradient>
    <linearGradient id="_Linear4" x1="0" y1="0" x2="1" y2="0" gradientUnits="userSpaceOnUse" gradientTransform="matrix(1 0 0 -1 0 -.13)">
      <stop offset="0" stop-color="#f2b079"/>
      <stop offset="1" stop-color="#d48f55"/>
    </linearGradient>
    <linearGradient id="_Linear5" x1="0" y1="0" x2="1" y2="0" gradientUnits="userSpaceOnUse" gradientTransform="matrix(1 0 0 -1 0 .062)">
      <stop offset="0" stop-color="#f1adb3"/>
      <stop offset="1" stop-color="#d4858d"/>
    </linearGradient>
    <linearGradient id="_Linear6" x1="0" y1="0" x2="1" y2="0" gradientUnits="userSpaceOnUse" gradientTransform="matrix(1 0 0 -1 0 .058)">
      <stop offset="0" stop-color="#f1adb3"/>
      <stop offset="1" stop-color="#d4858d"/>
    </linearGradient>
  </defs>
</svg>