<svg viewBox="0 0 1822 1116" xmlns="http://www.w3.org/2000/svg" fill-rule="evenodd" clip-rule="evenodd" stroke-miterlimit="10">
  <path d="M1110.05 120.096l-366.505 5.038c8.958-20.371 44.241-79.196 76.337-79.196 28.425 0 11.271 40.254 30.071 40.254C877.05 86.192 895.387 0 935.824 0c14.7 0 29.171 8.863 29.171 29.571 0 9.617-2.204 20.208-2.204 29.833 0 18.188 10.146 26.096 18.046 26.096 14.437 0 35.637-19.287 50.954-19.287 7.829 0 13.329 2.783 13.329 10.525 0 5.425-2.3 12.033-2.3 17.55 0 6.5 4.288 10.033 7.92 10.033 8.6 0 30.738-15.158 45.613-15.158 8.413 0 14.505 4.854 14.505 20.046 0 3.225-.305 6.987-.809 10.887M1811.504 1115.324c45.342-214.65-69.563-276.308-129.954-219.016 95.987-279.388-35.992-366.805-133.692-281.1 80.558-339.38-245.113-162.834-311.959-82.276-142.262-255.392-461.075-145.696-539.92 58.275-70.28-159.404-222.826-20.566-260.534 65.134-32.567-56.559-87.4-13.859-109.834 45.954-155.45-109.392-277.63 244.483-325.613 413.03h1811.506z" fill="#c8dcf2" fill-rule="nonzero"/>
  <path d="M1486.475 562.761c.137 1.45-1.58 2.292-2.625 1.28-13.792-13.375-69.442-70.217-39.513-89.396 30.108-19.3 40.217 67.879 42.138 88.116M1483.416 587.695a1.245 1.245 0 01-1.425-1.821c8.45-15.054 52.454-89.788 77.196-58.78 24.742 31.022-59.058 55.993-75.77 60.6M1461.779 644.95c-1.163-.163-1.484-1.684-.517-2.443 14.846-11.591 90.517-68.241 99.763-26.379 9.25 41.875-81.346 31.304-99.246 28.821" fill="#4376b5" fill-rule="nonzero"/>
  <path d="M1371.655 771.577c117.83-79.657 145.37-361.998 145.37-361.998" fill="none" stroke="#1a5197" stroke-width="4.16667"/>
  <path d="M1555.616 330.932c-.975 6.204-2.02 12.338-3.275 18.263-7.858 38.829-20.883 72.8-37.516 98.733-1.284 2-4.392 1.563-5.113-.696-9.887-30.987-15.68-66-16.27-103.058-.067-2.092-.067-4.18-.067-6.271 0-4.6.066-9.204.204-13.733 20.841-3.067 37.646-1.046 59.808 5.716.838.28 1.604.625 2.23 1.046" fill="#fa97c5" fill-rule="nonzero"/>
  <path d="M1557.57 342.499c-1.741 2.37-3.487 4.6-5.229 6.691-6.625 8.155-13.52 14.917-24.466 21.4-3.067 1.813-7.038 1.463-9.688-.975-9.896-8.991-17.775-16.45-24.746-25.445a96.272 96.272 0 01-5.504-7.388c-3.275-4.95-.487-11.779 5.438-12.617h.208c20.842-3.066 37.642-1.045 59.804 5.717.838.28 1.604.63 2.23 1.046 3.695 2.508 4.812 7.808 1.953 11.57" fill="#e87daf" fill-rule="nonzero"/>
  <path d="M1426.854 1115.324c87.112-108.579 285.908-206.254 239-50.2 55.846-40.666 71.48 50.2 71.48 50.2h-310.48z" fill="#5488c4" fill-rule="nonzero"/>
  <path d="M1387.512 1115.324s105.342-95.858 151.583-71.595c46.246 24.266 13.888 71.595 13.888 71.595h-165.471z" fill="#4c7cb3" fill-rule="nonzero"/>
  <path d="M1559.341 880.216l-.429-.008c27.375-7.146 52.88-18.925 75.767-34.33 10.087-71.646 1.617-139.791-36.884-156.9-18.787-8.354-46.112-8.67-77.604 4.996-23.191 37.808-36.596 82.263-36.65 129.846-6.258-21.683-9.516-44.567-9.516-68.225 0-11.808.854-23.408 2.441-34.775-66.725 53.017-142.142 169.346-194.817 394.504h140.934s102.842-32.116 159.975-117.82c21.262-31.884 38.287-78.538 47.775-126.126a249.336 249.336 0 01-70.992 8.838" fill="#76a5db" fill-rule="nonzero"/>
  <path d="M1568.225 726.882c-39 84.513-70.459 149.738-106.113 212.567a1196.24 1196.24 0 01-7.8 13.542c-9.258 15.854-18.77 31.625-28.8 47.567-2.658 4.2-5.4 8.487-8.142 12.775-20.654 32.225-43.629 65.479-70.37 101.996h-20.226c31.371-40.713 58.196-77.484 82.538-113.142a917.13 917.13 0 007.8-11.484c10.717-15.941 20.996-31.8 31.03-47.741 2.57-4.2 5.14-8.317 7.712-12.517 37.37-60.425 71.483-123.508 112.37-203.563" fill="#a0c2e8" fill-rule="nonzero"/>
  <path d="M1462.112 939.445c-2.575 4.542-5.142 9-7.8 13.542-2.23-3.259-4.283-6.6-6.175-10.03a96.006 96.006 0 01-2.742-5.058c-5.995-12.512-10.454-25.537-13.712-38.737-3.088-13.2-4.888-26.571-5.917-39.942-.937-13.287-1.196-26.742-.17-39.942.429 13.284 2.058 26.484 4.37 39.425 2.4 13.03 5.659 25.8 9.946 38.055 4.283 11.829 9.513 23.145 15.942 33.687.17.43.429.77.687 1.2 1.8 2.658 3.596 5.23 5.571 7.8M1425.512 1000.558c-2.658 4.2-5.4 8.487-8.142 12.77-3.083-3.512-5.741-7.283-8.058-11.141-.342-.6-.77-1.283-1.113-1.888-5.316-9.254-8.658-19.196-11.4-29.054-2.654-9.854-4.37-19.8-5.575-29.825-1.108-9.946-1.795-19.97-1.712-29.917 2.917 19.63 7.8 39.084 15.43 57 3.428 7.884 7.287 15.513 12.17 22.2.6.855 1.2 1.713 1.887 2.571a66.561 66.561 0 006.513 7.284" fill="#a0c2e8" fill-rule="nonzero"/>
  <path d="M703.912 1049.325C595.667 968.702 561.418 740.55 551.665 645.696" fill="none" stroke="#1a5197" stroke-width="4.16667"/>
  <path d="M576.611 790.462c-.246 1.741 1.788 2.858 3.104 1.691 17.421-15.408 87.859-81.062 52.73-105.916-35.346-25.005-52.392 79.858-55.834 104.225M554.79 688.124c.909 1.508 3.188 1.092 3.475-.646 3.805-22.941 17.088-118.317-25.85-115.454-43.2 2.875 9.68 95.013 22.375 116.1M643.416 975.5c-.246 1.741 1.787 2.858 3.104 1.691 17.425-15.408 87.858-81.063 52.729-105.917-35.342-25.004-52.388 79.859-55.833 104.225M605.257 890.016c-.25 1.742 1.788 2.858 3.104 1.692 17.421-15.409 87.859-81.063 52.73-105.917-35.346-25.004-52.392 79.858-55.834 104.225M639.566 977.616c1.666-.57 1.67-3 0-3.708-22.1-9.338-114.438-45.542-119.509-.942-5.104 44.875 96.213 12.633 119.509 4.65M578.936 820.778c1.3.425 2.438-.9 1.821-2.12-9.375-18.671-58.462-111.48-90.087-75.35-31.642 36.145 68.312 70.97 88.266 77.47M611.47 918.462a1.503 1.503 0 001.325-2.459c-13.146-16.241-80.9-96.437-104.088-54.395-23.2 42.062 81.88 54.766 102.763 56.854" fill="#4c7cb3" fill-rule="nonzero"/>
  <path d="M788.695 674.374c-1.638-11.017-11.192-75.346 25.679-114.942 33.517-35.996 75.975-19.958 91.713-47.691 26.291-46.355-81.175-110.842-69.705-200.538 7.671-59.963 65.609-108.654 121.063-124.73 44.804-12.983 113.704-12.128 144.288 25.68 17.458 21.587 8.458 37.933 33.016 67.254 24.659 29.442 42.45 23.375 57.475 48.913 18.525 31.495-2.637 50.77 14.671 78.258 19.804 31.454 53.875 16.346 78.259 46.467 28.279 34.925-4.555 71.254 20.791 106.387 28.954 40.134 88.992 16.554 114.942 52.58 21.988 30.533-29.038 64.729-12.23 113.72 12.26 35.73 42.163 33.446 53.805 72.146 8.904 29.605 1.42 64.259-15.896 86.821-24.633 32.092-69.412 40.025-123.504 39.13-147.83-2.459-508.2-73.284-534.367-249.455" fill="#383a44" fill-rule="nonzero"/>
  <path d="M1.789.793L-.079-.887l-.396-.353-1.017-.904c.278.511.461.842.818 1.288a17.076 17.076 0 01-.54 1.582.467.467 0 00.121.518l.021.02.155.136.051.044.052.044c.055.047.112.093.17.14l.091.072.069.055.024.018a5.923 5.923 0 01.095.074c.059.046.12.092.182.138a.481.481 0 00.52.037c.541-.295.934-.521 1.437-.9a.214.214 0 00.015-.329z" fill="url(#_Linear1)" fill-rule="nonzero" transform="scale(248.31545 -248.31545) rotate(-41.987 -3.284 -6.574)"/>
  <path d="M1073.483 1115.324H847.32C794.199 928.87 804.682 790.741 894.753 553.3c71.688-.092 145.859 3.375 227.496 9.77-79.058 217.276-96.383 364.647-48.766 552.255" fill="#fff" fill-rule="nonzero"/>
  <path d="M.916.253c.147-.733.893-2.551 1.526-4.015l-1.261-.252-2.923-.566C.509-2.207.144 2.641 1.018 4.58c0 0-.364-3.017-.102-4.327z" fill="url(#_Linear2)" fill-rule="nonzero" transform="scale(44.2098 -44.2098) rotate(-11.31 -98.379 -90.987)"/>
  <path d="M977.37 1115.324H713.986c36.513-45.483 71.955-66.8 116.1-69.641 23.367-1.421 49.038 2.308 78.705 10.304 21.854-5.775 42.375-11.017 62.183-15.725a577.379 577.379 0 016.396 75.062" fill="#f0adb4" fill-rule="nonzero"/>
  <path d="M1344.591 1115.324H977.37c-.538-27.445-3.017-52.854-6.396-75.062 28.958-7.017 56.404-13.054 83.767-18.296 53.12-10.396 106.33-18.387 171.263-26.204-18.209-81.104-31.8-129.338-56.846-204.309 0 0-77.38-244.196 69.55-200.937 19.1 13.95 34.02 33.666 42.191 56.854 50.813 144.433 85.813 251.388 115.659 404.796 6.304 32.692-18.654 63.158-51.967 63.158" fill="#2f61a0" fill-rule="nonzero"/>
  <path d="M.498-.268A6.294 6.294 0 00.271.755a.35.35 0 01.077.088c.066.106.055.223-.039.258-.112.042-.174-.089-.205-.193a.799.799 0 00-.436.46C-.454 1.215-.757 1-.976.947c-.054-.765.374-1.121.763-.975l.038-.437a16.012 16.012 0 01-.286-.094l-.005-.178c.121-.188.237-.357.355-.535a.127.127 0 01.206-.008C.38-.916.6-.627.846-.278l.002.102C.728-.207.612-.237.498-.268z" fill="url(#_Linear3)" fill-rule="nonzero" transform="scale(167.00268 -167.00268) rotate(-18.759 -5.888 -19.55)"/>
  <path d="M945.816 316.424c.133 34.008-9.792 47.054-34.417 59.875-8.233 4.287 9.554 12.075 16.5 15.558" fill="none" stroke="#63375b" stroke-linecap="round" stroke-linejoin="round" stroke-width="4.16667"/>
  <path d="M1005.1 398.549c0-10.954-8.88-19.838-19.838-19.838-10.959 0-19.83 8.884-19.83 19.838 0 10.958 8.871 19.842 19.83 19.842 10.958 0 19.837-8.884 19.837-19.842" fill="#e08e98" fill-rule="nonzero"/>
  <path d="M1002.398 338.815c-1.199 6.266-6.741 10.466-12.376 9.383-5.636-1.074-9.235-7.027-8.029-13.287 1.194-6.262 6.737-10.466 12.367-9.385 5.64 1.08 9.236 7.028 8.038 13.29M916.51 332.352c-1.197 6.262-6.74 10.466-12.375 9.384-5.635-1.078-9.235-7.027-8.033-13.288 1.197-6.261 6.74-10.466 12.37-9.384 5.64 1.079 9.237 7.027 8.039 13.288" fill="#383a44" fill-rule="nonzero"/>
  <path d="M748.224 1077.166H587.811v-.18h-40.783l-110.971-285.12c-3.358-8.609-11.75-14.192-20.996-14.009l-387.238 8.667c-1.95.03-3.72.613-5.187 1.617l-.333.216L5.732 799.4a9.605 9.605 0 015.187-1.616l7.48-.15 379.787-8.484a21.964 21.964 0 0120.992 14.004l106.567 273.834h-21.021v38.337h243.5c5.767 0 10.437-4.67 10.437-10.437v-17.283c0-5.763-4.67-10.438-10.437-10.438" fill="#81a4e3" fill-rule="nonzero"/>
  <path d="M-.833-.958l1.354.043c.033.001.055.024.064.056L1.081.91a.037.037 0 01-.001.021v.001a.037.037 0 01-.038.024L-.37.817A.097.097 0 01-.454.744L-.868-.872l-.008-.032a.039.039 0 01.001-.024.044.044 0 01.042-.03z" fill="url(#_Linear4)" fill-rule="nonzero" transform="scale(227.62035 -227.62035) rotate(-74.358 -2.129 -2.814)"/>
  <path d="M218.293 963.506c6.388 16.252 23.602 24.703 38.458 18.863 14.86-5.832 21.721-23.738 15.338-39.992-6.387-16.261-23.604-24.706-38.458-18.872-14.859 5.832-21.723 23.744-15.338 40.001" fill="#fff" fill-rule="nonzero" opacity=".6"/>
  <path d="M355.898 214.034c-5.537 3.16-7.467 10.21-4.304 15.754 3.163 5.535 10.212 7.462 15.748 4.302 5.545-3.163 7.468-10.21 4.31-15.752-3.162-5.54-10.216-7.469-15.754-4.304" fill="#a0c2e8" fill-rule="nonzero"/>
  <path d="M140.899 537.036c-9.858 5.626-13.29 18.182-7.663 28.04 5.626 9.857 18.176 13.287 28.04 7.662 9.857-5.626 13.285-18.18 7.66-28.037-5.623-9.86-18.18-13.291-28.037-7.665" fill="#c9def5" fill-rule="nonzero"/>
  <path d="M1331.726 324.194c-6.294 1.015-10.571 6.939-9.56 13.233 1.016 6.298 6.94 10.58 13.239 9.563 6.297-1.016 10.575-6.94 9.559-13.237-1.012-6.295-6.941-10.58-13.238-9.56" fill="#a0c2e8" fill-rule="nonzero"/>
  <path d="M1390.276 266.448c-12.501 2.016-20.999 13.782-18.982 26.283 2.016 12.5 13.78 20.994 26.282 18.978 12.5-2.016 20.995-13.777 18.983-26.279-2.02-12.5-13.782-20.998-26.283-18.982" fill="#c9def5" fill-rule="nonzero"/>
  <path d="M512.67 418.34c0 71.25-75.45 128.946-168.492 128.946-17.913 0-35.192-2.141-51.359-6.104-11.729 37.963-44.383 66.734-84.404 72.992 25.838-17.117 42.796-46.358 42.796-79.57 0-3.01-.158-6.022-.396-8.955-37.175-18.942-63.879-48.82-72.279-83.613-1.9-7.687-2.854-15.612-2.854-23.695 0-4.2.242-8.325.792-12.363 8.162-65.388 80.129-116.583 167.704-116.583 93.042 0 168.492 57.775 168.492 128.946" fill="#fa97c5" fill-rule="nonzero"/>
  <path d="M766.64 82.54H503.704c-18.133 0-33.358 13.65-35.325 31.68l-26.646 244.212c-1.717 15.771 10.633 29.538 26.496 29.538h131.97l64.593 102.266-4.759-102.266h71.134c18.133 0 33.358-13.65 35.325-31.675l26.641-244.217c1.721-15.767-10.625-29.538-26.491-29.538z" fill="none" stroke="#23263c" stroke-linecap="round" stroke-linejoin="round" stroke-width="4.16667"/>
  <path d="M1346.108 163.547c0-38.763-31.425-70.183-70.184-70.183-38.762 0-70.183 31.42-70.183 70.183 0 38.754 31.42 70.175 70.183 70.175 38.759 0 70.184-31.42 70.184-70.175" fill="#76a5db" fill-rule="nonzero"/>
  <path d="M1300.433 181.37l-24.509-17.826v-49.012" fill="none" stroke="#fff" stroke-linecap="round" stroke-linejoin="round" stroke-width="4.16667"/>
  <path d="M320.844 455.92h38.021v33.541h-38.02V455.92zm36.717-9.438h-35.504v-3.55c0-6.041.687-10.946 2.054-14.716 1.371-3.763 3.408-7.209 6.121-10.321 2.712-3.113 8.792-8.596 18.262-16.446 5.042-4.113 7.567-7.88 7.567-11.304 0-3.425-1.012-6.088-3.037-7.988-2.021-1.9-5.088-2.85-9.205-2.85-4.42 0-8.075 1.463-10.975 4.392-2.895 2.925-4.75 8.037-5.558 15.32l-36.254-4.483c1.25-13.329 6.092-24.058 14.533-32.187 8.442-8.13 21.384-12.192 38.821-12.192 13.575 0 24.542 2.833 32.888 8.5 11.333 7.667 17 17.88 17 30.65 0 5.292-1.467 10.4-4.388 15.321-2.925 4.92-8.912 10.933-17.942 18.033-6.291 4.984-10.262 8.984-11.908 12.005-1.65 3.02-2.475 6.958-2.475 11.816" fill="#fff" fill-rule="nonzero"/>
  <path d="M621.72 306.015h-40.371l11.108-97.366h40.367l-11.104 97.366zM640.095 170.035c-1.03 12.687-12.146 22.97-24.834 22.97-12.683 0-22.129-10.283-21.1-22.97 1.025-12.683 12.142-22.97 24.83-22.97 12.683 0 22.133 10.287 21.104 22.97" fill="#23263c" fill-rule="nonzero"/>
  <defs>
    <linearGradient id="_Linear1" x1="0" y1="0" x2="1" y2="0" gradientUnits="userSpaceOnUse" gradientTransform="matrix(1 0 0 -1 0 -.031)">
      <stop offset="0" stop-color="#2f61a0"/>
      <stop offset="0" stop-color="#2f61a0"/>
      <stop offset="1" stop-color="#1a5197"/>
    </linearGradient>
    <linearGradient id="_Linear2" x1="0" y1="0" x2="1" y2="0" gradientUnits="userSpaceOnUse" gradientTransform="matrix(1 0 0 -1 0 0)">
      <stop offset="0" stop-color="#2f61a0"/>
      <stop offset="0" stop-color="#2f61a0"/>
      <stop offset="1" stop-color="#1a5197"/>
    </linearGradient>
    <linearGradient id="_Linear3" x1="0" y1="0" x2="1" y2="0" gradientUnits="userSpaceOnUse" gradientTransform="matrix(1 0 0 -1 0 .02)">
      <stop offset="0" stop-color="#f1adb3"/>
      <stop offset="1" stop-color="#d4858d"/>
    </linearGradient>
    <linearGradient id="_Linear4" x1="0" y1="0" x2="1" y2="0" gradientUnits="userSpaceOnUse" gradientTransform="matrix(1 0 0 -1 0 0)">
      <stop offset="0" stop-color="#a0b5e8"/>
      <stop offset="1" stop-color="#839cdb"/>
    </linearGradient>
  </defs>
</svg>
