<svg viewBox="0 0 285 207" xmlns="http://www.w3.org/2000/svg" fill-rule="evenodd" clip-rule="evenodd" stroke-miterlimit="10">
  <path d="M53.323 35.635h58.784c-.564-7.383-5.302-13.473-11.476-7.027.897-6.695-5.407-7.622-10.54-2.576 8.95-13.203-4.567-25.097-20.843-.467-.268-6.031-13.893-4.41-15.925 10.07M65.066 42.585c-10.83 6.446-5.063 9.062-4.132 9.062 4.039 0 4.79-5.055 4.132-9.062M73.832 50.339c-9.765 5.813-4.562 8.172-3.725 8.172 3.643 0 4.32-4.559 3.725-8.172M97.602 42.967c-9.766 5.813-4.565 8.172-3.727 8.172 3.645 0 4.32-4.559 3.727-8.172M87.236 46.118c-10.708 6.374-5.004 8.962-4.087 8.962 3.996 0 4.738-5 4.087-8.962M78.731 41.565c-6.277 3.736-2.935 5.252-2.396 5.252 2.344 0 2.777-2.929 2.396-5.252M217.703 206.703C267.24 169.487 242.73 71.79 201.019 70.73c-13.904-43.1-84.349-50.38-101.497-4.724-24.099-3.921-43.101 28.11-31.514 61.667-32.443-3.955-48.663 39.722-28.736 79.092l178.43-.06z" fill="#c8dcf2" fill-rule="nonzero"/>
  <path d="M252.096 186.024c0 11.514-9.333 20.85-20.849 20.85-11.515 0-20.848-9.336-20.848-20.85 0-11.515 9.333-20.848 20.848-20.848 11.516 0 20.849 9.333 20.849 20.848" fill="#c8dcf2" fill-rule="nonzero"/>
  <path d="M-.534.978H.701A.057.057 0 00.758.921V-.921a.057.057 0 00-.057-.057H-.534a.057.057 0 00-.032.009l-.009.008a.051.051 0 00-.017.04V.921c0 .011.003.023.01.032l.02.018a.05.05 0 00.028.007z" fill="url(#_Linear1)" fill-rule="nonzero" transform="matrix(0 13.45832 13.45832 0 111.915 25.617)"/>
  <path d="M125.076 18.532l-13.153 11.79-13.168-11.607v-.29c0-.153.045-.306.122-.429l.107-.122a.724.724 0 01.536-.23h.338l12.05 10.627 11.851-10.628h.551c.152 0 .307.047.43.138l.244.276.092.475z" fill="#fff" fill-rule="nonzero"/>
  <path d="M107.248 206.759c-14.338-17.872-47.06-33.95-39.34-8.263-9.192-6.694-11.764 8.263-11.764 8.263h51.104zM199.59 206.759c8.857-11.037 29.064-20.967 24.297-5.104 5.677-4.134 7.266 5.104 7.266 5.104H199.59z" fill="#5488c4" fill-rule="nonzero"/>
  <path d="M114.403 206.759H75.272c-7.735-4.223-13.233-11.564-17.078-18.967 4.427-.143 8.744-1.057 12.73-2.71-4.096.425-8.35.157-12.587-.9a48.014 48.014 0 01-2.142-.612c-4.286-10.004-5.86-20.401-6.019-26.561 5.562.866 10.775 2.142 15.628 3.75.235 3.339.914 6.6 2.033 9.687-.175-2.882.03-5.828.583-8.774 25.755 9.374 41.005 28.183 45.983 45.087" fill="#76a5db" fill-rule="nonzero"/>
  <path d="M99.69 206.554l-4.033-.048a173.69 173.69 0 01-2.552-2.41 233.52 233.52 0 01-7.357-7.403c-.613-.646-1.23-1.292-1.812-1.938-7.041-7.515-13.579-15.423-19.755-23.6 6.932 8.225 14.256 16.133 22.04 23.506l2.268 2.11a205.643 205.643 0 006.206 5.576 310.178 310.178 0 004.995 4.207" fill="#a0c2e8" fill-rule="nonzero"/>
  <path d="M86.22 194.66c-.756.047-1.527.08-2.284.095a66.62 66.62 0 01-2.488.047c-5.105-.016-10.225-.724-15.124-2.41 4.696 2.174 9.83 3.433 15.028 3.97 1.467.157 2.93.267 4.396.33.913.033 1.827.064 2.741.08l-2.269-2.111z" fill="#a0c2e8" fill-rule="nonzero"/>
  <path d="M187.15 135.275c18.375-15.064 22.528-55.468 23.464-72.226" fill="none" stroke="#1a5197" stroke-width=".4956224"/>
  <path d="M207.415 88.71a.33.33 0 01-.532.323c-3.19-2.566-16.114-13.535-10.142-18.192 6.011-4.687 9.868 13.612 10.674 17.87M209.54 77.198a.33.33 0 01-.616-.086c-.858-4.003-3.974-20.666 3.6-20.515 7.62.152-.925 16.789-2.984 20.6M203.193 106.453a.33.33 0 01-.532.322c-3.19-2.566-16.114-13.534-10.14-18.193 6.01-4.686 9.865 13.613 10.672 17.87M197.878 122.139c-.298-.087-.32-.514-.031-.652 3.81-1.823 19.75-8.948 21.008-1.146 1.265 7.849-16.814 3.01-20.977 1.798M207.254 94.062a.265.265 0 01-.337-.358c1.496-3.36 9.367-20.083 15.223-13.989 5.862 6.097-11.43 13.04-14.886 14.347M202.335 111.506a.265.265 0 01-.254-.421c2.18-2.965 13.438-17.623 17.86-10.42 4.425 7.208-13.95 10.302-17.606 10.841" fill="#4c7cb3" fill-rule="nonzero"/>
  <path d="M66.802 112.217c-.03.296.324.47.54.262 2.827-2.743 14.236-14.397 8.101-18.329-6.173-3.957-8.247 13.916-8.64 18.067M67.43 117.329a.254.254 0 00.291-.374c-1.732-3.085-10.753-18.409-15.826-12.051-5.074 6.361 12.109 11.48 15.535 12.425M71.866 129.068c.239-.032.305-.345.105-.5-3.041-2.376-18.557-13.992-20.453-5.409-1.896 8.586 16.679 6.419 20.348 5.91" fill="#4376b5" fill-rule="nonzero"/>
  <path d="M90.346 155.03C66.186 138.7 60.54 80.81 60.54 80.81" fill="none" stroke="#1a5197" stroke-width=".4956224"/>
  <path d="M52.627 64.685c.2 1.271.415 2.529.672 3.743 1.61 7.962 4.281 14.928 7.69 20.245.263.409.901.32 1.049-.144 2.028-6.354 3.215-13.53 3.336-21.13.014-.428.014-.857.014-1.286 0-.944-.014-1.885-.042-2.815-4.273-.629-7.718-.215-12.262 1.171-.17.058-.329.129-.457.216" fill="#fa97c5" fill-rule="nonzero"/>
  <path d="M52.226 67.057c.356.485.716.943 1.072 1.372 1.358 1.671 2.772 3.058 5.016 4.386.63.372 1.444.301 1.988-.2 2.027-1.842 3.642-3.371 5.072-5.216.401-.485.771-.986 1.13-1.514.671-1.015.1-2.415-1.116-2.587h-.042c-4.273-.629-7.718-.214-12.262 1.172a1.949 1.949 0 00-.457.214c-.757.514-.986 1.6-.401 2.373" fill="#e87daf" fill-rule="nonzero"/>
  <path d="M110.676 58.11c-3.866-31.897 46.841-50.278 49.91-14.778 5.705-1.017 12.77 3.569 8.694 15.287 6.521-2.038 14.129 4.586 9.51 16.56 10.867 6.878-1.902 23.184-14.672 17.07-16.845 7.643-38.58 8.153-50.533-3.567-20.649 4.076-16.222-15.032-2.909-30.572" fill="#63375b" fill-rule="nonzero"/>
  <path d="M.045.551L-.289.402-.443.33A.188.188 0 01-.551.139L-.5-.319l.324.036-.016.143.321-.692.917.425-.32.692L.825.18l.237.225L.745.74a.19.19 0 01-.216.041L.375.71C.247.648.147.599.045.551z" fill="url(#_Linear2)" fill-rule="nonzero" transform="scale(81.42488 -81.42488) rotate(-24.864 -3.212 -4.102)"/>
  <path d="M117.705 101.468l-8.999 14.898 29.112 26.384 27.065-23.7-10.508-17.357-36.67-.225z" fill="#fff" fill-rule="nonzero"/>
  <path d="M123.167 113.073c3.465-11.878 3.671-19.22 3.671-30.01-12.287 3.008-18.132-7.027-18.132-18.573 0-3.262.424-6.65 1.45-9.91l.266-.804c2.206-6.395 6.807-12.319 15.124-16.051 5.025 12.523 9.798 19.408 17.943 23.11 2.331 1.056 3.766 3.433 3.544 5.986-1.228 14.698-.52 27.017 1.67 44.36l-25.536 1.892z" fill="#f0adb4" fill-rule="nonzero"/>
  <path d="M119.834 53.138c-1.048 3.102-2.685 5.556-5.199 8.26-.45.486-.324 1.259.256 1.58.737.408 1.497.618 2.543.864" fill="none" stroke="#63375b" stroke-width=".4956224" stroke-linecap="round" stroke-linejoin="round"/>
  <path d="M128.946 57.822c-1.48 0-2.78-.996-3.161-2.423a.392.392 0 01.279-.483.396.396 0 01.48.277 2.488 2.488 0 003.587 1.541.393.393 0 11.375.693 3.272 3.272 0 01-1.56.395M114.897 53.92c-.63.975-1.67 1.526-2.694 1.526-.331 0-.646-.062-.96-.172a2.761 2.761 0 01-1.089-.694l.268-.803a.304.304 0 01.174.11c.237.3.551.52.913.645.978.363 2.096-.077 2.725-1.054a.42.42 0 01.553-.11c.173.125.22.362.11.551" fill="#63375b" fill-rule="nonzero"/>
  <path d="M114.77 71.116c1.727.985 3.175 1.454 5.658 1.485" fill="none" stroke="#63375b" stroke-width=".4956224" stroke-linecap="round" stroke-linejoin="round"/>
  <path d="M133.356 68.1a3.764 3.764 0 10-7.53 0 3.766 3.766 0 007.53 0" fill="#e08e98" fill-rule="nonzero"/>
  <path d="M-.677 1.57l1.069-.405A.524.524 0 00.375.182c-.739-.251-1.506-.449-1.827-.578a19.29 19.29 0 00-.337-.786.437.437 0 00-.188-.204 3.861 3.861 0 00-.295-.147.071.071 0 00-.101.066l.003.151a.16.16 0 00.075.133c.09.06.154.115.247.211a2.772 2.772 0 00-.335-.019.137.137 0 00-.137.126l-.02.272c-.002.019.017.033.035.027.068-.024.093-.133.146-.193a.064.064 0 01.083-.009.434.434 0 01.176.239c.007.023-.013.045-.036.038-.182-.056-.34-.088-.433-.015-.019.015-.014.046.009.052.169.047.258.126.419.204.023.011.047.024.07.037.606.359.922.574 1.395.827L-.975.73l.298.84z" fill="url(#_Linear3)" fill-rule="nonzero" transform="matrix(.52288 29.8041 29.8041 -.52288 47.09 176.834)"/>
  <path d="M65.04 156.369l8.854 15.915 1.085-2.093c.782-1.509.5-3.349-.7-4.552l-9.24-9.27zM12.217 118.334a.574.574 0 01-.41.174.616.616 0 01-.425-.19c-3.025-3.197-5.75-7.481-7.924-11.437h1.356c2.471 4.412 5.024 8.082 7.435 10.619a.596.596 0 01-.032.834" fill="#e08e98" fill-rule="nonzero"/>
  <path d="M-.846-1.583l1.069.343a.514.514 0 01.034.966c-.712.283-1.454.517-1.763.66-.109.315-.188.525-.291.788a.43.43 0 01-.173.21 4.053 4.053 0 01-.282.159.07.07 0 01-.103-.059l-.005-.149a.162.162 0 01.067-.135c.085-.062.146-.12.232-.219a2.74 2.74 0 01-.329.036.133.133 0 01-.139-.116l-.035-.267a.026.026 0 01.033-.028c.068.02.099.126.154.182a.062.062 0 00.081.005.413.413 0 00.161-.244c.006-.023-.015-.043-.037-.035-.176.064-.329.104-.424.036-.019-.013-.017-.043.006-.051.163-.055.247-.137.401-.221.022-.013.045-.026.066-.04.576-.383.875-.61 1.327-.883l-.3-.098.25-.84z" fill="url(#_Linear4)" fill-rule="nonzero" transform="scale(30.345 -30.345) rotate(-88.025 .759 -6.924)"/>
  <path d="M211.82 156.37l-8.853 15.913-1.085-2.092a3.907 3.907 0 01.7-4.552l9.239-9.27zM273.408 106.881c-2.173 3.954-4.9 8.24-7.94 11.437a.558.558 0 01-.424.189.63.63 0 01-.41-.172.599.599 0 01-.017-.837c2.394-2.535 4.962-6.206 7.42-10.617h1.37z" fill="#e08e98" fill-rule="nonzero"/>
  <path d="M-.418.222L-.5.134l.68-.78.081.057a.504.504 0 01.189.251l.336.984-.971-.28A.494.494 0 01-.418.222z" fill="url(#_Linear5)" fill-rule="nonzero" transform="scale(-31.55075 31.55075) rotate(48.814 -6.064 -3.094)"/>
  <path d="M137.818 142.75v64.013h2.665l.655-64.013 26.753-23.895-13.518-17.162 5.31 17.162-21.865 23.895z" fill="#1a5197" fill-rule="nonzero"/>
  <path d="M220.302 185.936c-2.403.157-4.726.64-6.905 1.424.222-.014.443-.014.666-.014 1.891.04 3.72.3 5.495.73-2.337 6.267-5.613 11.815-11.083 18.683H182.34l-5-.013h-21.317c5.3-17.364 22.323-27.937 41.238-31.489a27.77 27.77 0 00-.182 2.965c0 3.21.587 6.278 1.67 9.099-.025-.223-.025-.445-.025-.666 0-4.374 1.095-8.486 3.027-12.103 7.154-.913 14.452-.847 21.411.21-.85 4.19-1.736 7.807-2.86 11.174" fill="#76a5db" fill-rule="nonzero"/>
  <path d="M176.518 202.868a64.47 64.47 0 00.822 3.877h-1.722a59.063 59.063 0 01-.392-3.708c-.34-4.321-.065-8.706 1.004-12.859-.64 4.243-.468 8.538.288 12.69M215.785 179.304c-8.394 5.979-16.383 12.532-23.536 19.87-.458.47-.915.952-1.372 1.434a103.87 103.87 0 00-2.31 2.508 134.114 134.114 0 00-3.173 3.643h-3.054a171.724 171.724 0 014.805-4.988c1.147-1.137 2.309-2.26 3.484-3.356a20.422 20.422 0 01-.116-1.265c-.327-4.322-.066-8.694 1.004-12.846-.64 4.244-.457 8.524.288 12.69.012.09.039.194.053.286a150.849 150.849 0 019.006-7.558c4.804-3.72 9.816-7.167 14.921-10.418" fill="#a0c2e8" fill-rule="nonzero"/>
  <path d="M111.54 194.786c-1.386.08-2.73.36-3.982.812.134-.013.254 0 .388 0a15.32 15.32 0 013.155.413c-1.332 3.609-3.222 6.792-6.366 10.746H74.56c3.05-10 12.836-16.072 23.717-18.123-.067.56-.107 1.132-.107 1.704 0 1.85.345 3.623.971 5.233-.025-.119-.025-.252-.025-.371 0-2.517.638-4.888 1.743-6.965 4.115-.52 8.325-.493 12.32.119-.495 2.41-1 4.488-1.64 6.432" fill="#4c7cb3" fill-rule="nonzero"/>
  <path d="M1 .365A2.694 2.694 0 01.539.031a6.637 6.637 0 01-.41-.394L.127-.365H0l.07.063c.143.128.29.251.443.366.154.113.313.223.487.301z" fill="url(#_Linear6)" fill-rule="nonzero" transform="matrix(15.75305 0 0 -15.75305 89.422 201.005)"/>
  <path d="M120.607 206.762c4.34-15.346 5.84-31.797 6.354-40.98l.973.056c-.512 9.173-2.01 25.548-6.328 40.924h-.999z" fill="#c8dcf2" fill-rule="nonzero"/>
  <path d="M124.272 191.283c.057.302-.288.514-.528.32-3.168-2.547-15.997-13.436-10.068-18.06 5.968-4.653 9.797 13.513 10.596 17.74M126.381 179.854a.33.33 0 01-.613-.085c-.85-3.974-3.943-20.514 3.575-20.364 7.564.15-.919 16.665-2.962 20.449M116.681 206.762c-4.716-4.246-11.926-11.917-7.194-15.608 5.23-4.078 8.819 9.378 10.163 15.608h-2.969zM124.114 196.595a.263.263 0 01-.336-.355c1.487-3.336 9.299-19.936 15.115-13.886 5.817 6.051-11.349 12.945-14.78 14.241M124.653 206.762c4.147-4.241 9.367-7.986 12.053-3.612.825 1.344.85 2.546.323 3.612h-12.376z" fill="#c8dcf2" fill-rule="nonzero"/>
  <path d="M39.29 184.033a8.984 8.984 0 00-8.985-8.985 8.984 8.984 0 00-8.985 8.985 8.984 8.984 0 008.985 8.984 8.984 8.984 0 008.985-8.984" fill="#5488c4" fill-rule="nonzero"/>
  <path d="M30.403 187.968l-4.624-4.296 1.693-1.825 2.736 2.542 2.983-3.45 1.882 1.63-4.67 5.4z" fill="#fff" fill-rule="nonzero"/>
  <path d="M248.786 172.293a5.099 5.099 0 10-10.198 0 5.099 5.099 0 0010.198 0" fill="#5488c4" fill-rule="nonzero"/>
  <path d="M243.743 174.524l-2.624-2.437.962-1.035 1.552 1.442 1.691-1.956 1.07.923-2.65 3.063z" fill="#fff" fill-rule="nonzero"/>
  <path d="M170.552 27.558h26.936a4.551 4.551 0 014.55 4.552v15.917a4.551 4.551 0 01-4.55 4.552h-12.619l-2.249 5.545-1.538-5.545h-10.53A4.552 4.552 0 01166 48.027V32.11a4.552 4.552 0 014.552-4.552z" fill="#fff" fill-rule="nonzero" stroke="#1a5197" stroke-width=".4956224" stroke-linecap="round" stroke-linejoin="round"/>
  <path d="M175.03 40.02a2.003 2.003 0 114.005.001 2.003 2.003 0 01-4.005 0M182.628 40.02a2 2 0 012.003-2.001 2.002 2.002 0 11-2.003 2.001M190.227 40.02a2.003 2.003 0 114.005.001 2.003 2.003 0 01-4.005 0" fill="#1a5197" fill-rule="nonzero"/>
  <defs>
    <linearGradient id="_Linear1" x1="0" y1="0" x2="1" y2="0" gradientUnits="userSpaceOnUse" gradientTransform="matrix(1 0 0 -1 0 0)">
      <stop offset="0" stop-color="#f2b079"/>
      <stop offset="1" stop-color="#d48f55"/>
    </linearGradient>
    <linearGradient id="_Linear2" x1="0" y1="0" x2="1" y2="0" gradientUnits="userSpaceOnUse" gradientTransform="matrix(1 0 0 -1 0 -.017)">
      <stop offset="0" stop-color="#2f61a0"/>
      <stop offset="0" stop-color="#2f61a0"/>
      <stop offset="1" stop-color="#1a5197"/>
    </linearGradient>
    <linearGradient id="_Linear3" x1="0" y1="0" x2="1" y2="0" gradientUnits="userSpaceOnUse" gradientTransform="matrix(1 0 0 -1 0 .015)">
      <stop offset="0" stop-color="#f1adb3"/>
      <stop offset="1" stop-color="#d4858d"/>
    </linearGradient>
    <linearGradient id="_Linear4" x1="0" y1="0" x2="1" y2="0" gradientUnits="userSpaceOnUse" gradientTransform="matrix(1 0 0 -1 0 -.016)">
      <stop offset="0" stop-color="#f1adb3"/>
      <stop offset="1" stop-color="#d4858d"/>
    </linearGradient>
    <linearGradient id="_Linear5" x1="0" y1="0" x2="1" y2="0" gradientUnits="userSpaceOnUse" gradientTransform="matrix(1 0 0 -1 0 0)">
      <stop offset="0" stop-color="#f1adb3"/>
      <stop offset="1" stop-color="#d4858d"/>
    </linearGradient>
    <linearGradient id="_Linear6" x1="0" y1="0" x2="1" y2="0" gradientUnits="userSpaceOnUse" gradientTransform="matrix(1 0 0 -1 0 0)">
      <stop offset="0" stop-color="#2f61a0"/>
      <stop offset="1" stop-color="#1a5197"/>
    </linearGradient>
  </defs>
</svg>