<svg viewBox="0 0 285 207" xmlns="http://www.w3.org/2000/svg" fill-rule="evenodd" clip-rule="evenodd" stroke-linecap="round" stroke-linejoin="round" stroke-miterlimit="10">
  <path d="M11.36 207.004c-3.172-26.572 3.309-38.513 17.45-25.992-8.203-38.093 15.826-82.026 26.652-58.909-1.095-64.797 93.61-105.748 120.572-25.536 10.373-12.33 21.665 8.146 19.15 25.536 18.723-17.834 32.748 24.898 23.007 46.702 11.38-12.902 22.853 20.93 19.613 38.199H11.36z" fill="#c8dcf2" fill-rule="nonzero"/>
  <path d="M77.6 206.5H34.996s-42.398-25.62-33.859-35.382c8.43-9.635 40.304 22.89 41.178 23.78-.794-1.145-33.622-48.876-13.414-55.812 9.461-3.556 21.24 45.7 21.938 48.667-.508-3.174-8.81-55.906 11.016-53.255 2.65.476 3.937 3.984 4.349 8.936.048.555.096 1.127.112 1.715.11 2.238.063 4.698-.08 7.255l-.095 1.618a130.85 130.85 0 01-.557 5.906c-.063.586-.126 1.19-.205 1.776-.238 2-.509 4-.794 5.906-.096.556-.175 1.127-.255 1.667-.333 2.032-.65 3.969-.968 5.713-.11.557-.205 1.097-.285 1.62-.858 4.588-1.54 7.62-1.54 7.62s15.572-22.874 21.668-19.208C89.299 168.673 77.6 206.5 77.6 206.5" fill="#76a5db" fill-rule="nonzero"/>
  <path d="M66.202 143.434a1.51 1.51 0 01-.22.11c-1.684.842-3.414 1.462-5.318 2.24 1.888.459 3.888.11 5.65-.636a28.11 28.11 0 00-.112-1.714m-.476 9.064c-.841.174-1.73.333-2.587.667-.856.317-1.745.81-2.27 1.603.889-.238 1.716-.317 2.556-.397.84-.08 1.698-.175 2.587-.317.047-.016.08-.016.127-.032.033-.54.063-1.08.095-1.62-.175.032-.333.065-.508.096m-.871 7.715c-1.27.555-2.397 1.096-3.795 1.745 1.428.604 3.016.287 4.318-.254.079-.588.142-1.19.205-1.778-.238.097-.49.191-.728.287m-1.334 7.65c-1.144.35-2.223.667-3.46 1.287 1.252.635 2.649.57 3.889.238.126-.032.252-.08.379-.112.08-.54.16-1.11.255-1.666-.366.079-.714.159-1.063.254m-.762 7.191c-1.27.22-2.571.445-3.89 1.095 1.35.588 2.747.65 4.128.476.031 0 .047-.015.078-.015.08-.525.175-1.064.287-1.62a7.836 7.836 0 00-.603.064M15.924 175.09c-.79.952-1.393 1.937-1.788 3.226 1.3-.423 2.2-1.32 2.985-2.185.419-.502.802-.997 1.163-1.537a71.05 71.05 0 00-1.058-.673 7.487 7.487 0 00-1.302 1.169M82.442 183.465c-1.885-.225-3.786-.295-5.727.132 1.812.819 3.663 1.166 5.518 1.441.292.036.585.063.879.093.102-.5.202-1 .3-1.5-.325-.058-.646-.119-.97-.166M10.478 171.623c-.442 1.19-.698 2.296-.982 3.65.66-.283 1.157-.808 1.545-1.348.402-.545.675-1.143.92-1.738.12-.331.186-.667.274-.998a30.49 30.49 0 00-1.31-.575c-.162.336-.31.673-.447 1.01M44.586 168.885a6.7 6.7 0 00-1.883 2.462l-.025.054-.053.032.028.018-.102.223.217-.132.017-.01v-.157l.047.145c1.14-.198 2.02-.794 2.765-1.42.13-.117.252-.233.377-.35-.148-.487-.297-.978-.449-1.47-.335.18-.657.381-.94.605M27.904 184.19a10.731 10.731 0 00-1.924 2.607c.633.012 1.2-.206 1.697-.479.506-.268.932-.625 1.332-.99a8.096 8.096 0 001.256-1.619c-.261-.224-.52-.446-.786-.671-.599.314-1.117.728-1.575 1.151M24.486 179.005c-.347-.266-.695-.527-1.044-.788a8.954 8.954 0 00-1.299.945c-.906.859-1.686 1.842-2.084 3.154 1.3-.443 2.246-1.194 3.15-1.979.448-.421.878-.851 1.277-1.332M84.951 170.518c-.109.016-.218.03-.328.045-1.762.29-3.527.549-5.348 1.19 1.835.612 3.73.63 5.585.378.025-.003.051-.011.077-.016.019-.554.026-1.09.014-1.597M81.798 179.37c.786.076 1.572.088 2.357.084.083-.528.164-1.05.236-1.562-1.863.086-3.725.354-5.597.904.998.352 2.006.493 3.004.574M34.878 187.778c-.68.18-1.25.573-1.712 1.022-.631.674-1.097 1.415-1.263 2.48 1.07-.197 1.773-.78 2.387-1.362.45-.477.843-.954 1.178-1.602-.19-.175-.393-.359-.59-.538M36.223 154.628c1.375-.628 2.566-1.345 3.73-2.15a94.745 94.745 0 00-.626-1.459c-1.219.974-2.399 2.095-3.104 3.609M41.639 160.9c-.878.892-1.536 1.883-1.894 3.17 1.277-.44 2.165-1.261 2.998-2.03l.575-.585c-.164-.48-.332-.956-.498-1.432-.427.252-.83.545-1.181.877M46.58 176.991c-.445.55-.84 1.162-.915 2.125.96-.08 1.589-.525 2.11-1.082.15-.184.284-.39.403-.607-.124-.456-.252-.915-.382-1.39a4.24 4.24 0 00-1.216.954M34.777 144.837c-.395.62-.79 1.231-1.144 1.878l-1.092 1.991c.813-.186 1.484-.698 2.055-1.22.585-.529 1.061-1.14 1.503-1.772.117-.185.22-.377.33-.567-.286-.5-.574-.975-.862-1.427-.273.367-.537.737-.79 1.117" fill="#5488c4" fill-rule="nonzero"/>
  <path d="M48.673 193.474s-12.099-61.062 5.181-75.839M61.332 196.007s-41.936-70.41-23.15-82.942" fill="none" stroke="#63375b" stroke-width=".501802"/>
  <path d="M40.608 110.736c-.808.465-2.685-.056-3.141 1.872-.256 1.08.248 2.303 1.691 2.643 1.58.374 2.844-.726 3.135-1.953.244-1.024-.193-2.14-1.685-2.562M54.964 115.001c-1.643-.284-3.021.933-3.327 2.224-.243 1.03.193 2.103 1.72 2.5l.054.013c1.457.344 2.598-.741 2.896-1.993.247-1.045-.096-2.206-1.343-2.744" fill="#fa97c5" fill-rule="nonzero"/>
  <path d="M233.458 207.004s20.561-12.426 16.42-17.159c-4.143-4.734-19.97 11.539-19.97 11.539s16.42-23.668 6.508-27.07c-4.733-1.777-10.65 23.667-10.65 23.667s4.585-27.219-5.325-25.887c-5.03.888.148 24.111.148 24.111s-7.544-11.094-10.503-9.32c-2.958 1.777 2.717 20.119 2.717 20.119h20.655z" fill="#5488c4" fill-rule="nonzero"/>
  <path d="M.568-.649c-.155.113-.163.346-.089.467-.241.045-.218.373.089.415l.445.014-.445-.896z" fill="url(#_Linear1)" fill-rule="nonzero" transform="scale(53.05694 -53.05694) rotate(-63.595 -2.006 -2.354)"/>
  <path d="M213.751 168.593c-1.245.62-2.616 1.08-4.031 1.433-1.795.44-3.678.69-5.605.805a143.485 143.485 0 01-3.802 6.696c-.28.46-.545.917-.826 1.375l-1.494 2.383-.018.003c-5.304 8.263-11.418 15.972-17.955 23.328L176.908 202c7.43-7.459 14.446-15.305 20.493-23.862l.012.007a86.753 86.753 0 00-.97-4.847c-.857-3.693-1.915-7.424-3.978-10.91 2.423 3.333 3.94 7.106 5.216 10.804.355 1.03.692 2.064 1.014 3.1a144.673 144.673 0 003.514-5.375 71.65 71.65 0 001.264-2.054c4.265-6.985 8.043-14.298 11.633-21.693-3.048 7.386-6.284 14.717-9.998 21.78 1.407.057 2.79.03 4.156-.1 1.425-.144 2.826-.4 4.155-.82a14.661 14.661 0 001.937-.735c.615-.297 1.2-.625 1.803-.955-.523.407-1.043.833-1.601 1.219-.57.378-1.157.734-1.807 1.034" fill="#a0c2e8" fill-rule="nonzero"/>
  <path d="M196.443 173.298c-.858-3.693-1.916-7.424-3.977-10.91 2.421 3.333 3.94 7.106 5.214 10.804.356 1.032.694 2.064 1.014 3.1a142.87 142.87 0 003.514-5.375c.439-.677.849-1.36 1.264-2.052 4.266-6.985 8.045-14.299 11.635-21.695-3.048 7.386-6.285 14.717-10 21.778a30.56 30.56 0 004.156-.097c1.427-.145 2.826-.4 4.155-.822a14.39 14.39 0 001.937-.734c.615-.297 1.2-.625 1.804-.955-.524.409-1.043.833-1.602 1.22-.569.377-1.157.733-1.806 1.033-1.248.62-2.617 1.082-4.03 1.435-1.797.438-3.68.688-5.605.803a144.82 144.82 0 01-3.804 6.696c-.28.46-.544.917-.824 1.375-.502.798-.995 1.586-1.495 2.383l-.019.003c-5.303 8.263-11.418 15.972-17.954 23.33L176.907 202c7.43-7.46 14.446-15.306 20.494-23.863l.011.007a85.727 85.727 0 00-.97-4.847m8.124 33.705c10.627-14.505 17.31-31.347 19.837-49.337a31.622 31.622 0 01-7.088-.466 19.82 19.82 0 001.016-.09c2.267-.24 4.39-.76 6.339-1.488.94-7.618 1.144-15.43.6-23.341a121.614 121.614 0 00-12.342 6.066 117.525 117.525 0 00-9.967 6.31c-1.512 4.99-1.235 10.658.962 16.192-2.988-4.138-4.756-8.58-5.396-12.91-19.667 15.356-32.522 35.989-38.212 59.064h44.251z" fill="#76a5db" fill-rule="nonzero"/>
  <path d="M105.42 127.612h94.62c-.91-9.14-8.534-16.683-18.471-8.7 1.442-8.29-8.705-9.438-16.964-3.19 14.403-16.347-7.354-31.076-33.55-.579-.432-7.467-22.362-5.46-25.636 12.47" fill="#fff" fill-rule="nonzero"/>
  <path d="M.996-.359c.022.05-.045.133-.08.076.01.223-.217.172-.31.042.048.156-.055.155-.105.034C.6.224 0 .197 0-.359h.996z" fill="url(#_Linear2)" fill-rule="nonzero" transform="matrix(62.57187 0 0 -62.57187 157.333 184.57)"/>
  <path d="M174.955 170.808c.022.215-.235.34-.388.19-2.052-1.988-10.326-10.438-5.875-13.29 4.476-2.87 5.978 10.091 6.263 13.1M176.367 166.316a.184.184 0 01-.21-.27c1.255-2.239 7.797-13.349 11.473-8.74 3.68 4.613-8.779 8.325-11.263 9.01M173.974 175.653c-.173-.024-.221-.25-.078-.362 2.208-1.724 13.457-10.147 14.832-3.923 1.375 6.227-12.094 4.654-14.754 4.285" fill="#4376b5" fill-rule="nonzero"/>
  <path d="M157.335 203.02c17.519-11.843 21.612-53.82 21.612-53.82" fill="none" stroke="#1a5197" stroke-width=".501802" stroke-linecap="butt" stroke-linejoin="miter"/>
  <path d="M184.684 137.51c-.146.922-.3 1.834-.487 2.716-1.167 5.772-3.104 10.821-5.576 14.678-.19.297-.654.232-.761-.105-1.47-4.606-2.331-9.81-2.419-15.32-.01-.311-.01-.623-.01-.932 0-.684.01-1.368.03-2.042 3.1-.456 5.597-.156 8.892.85.123.04.24.094.331.155" fill="#fa97c5" fill-rule="nonzero"/>
  <path d="M184.974 139.23c-.26.353-.517.684-.777.995-.985 1.213-2.008 2.218-3.637 3.181a1.22 1.22 0 01-1.44-.144c-1.47-1.338-2.643-2.446-3.678-3.784-.291-.351-.56-.714-.82-1.098-.487-.736-.072-1.75.81-1.875h.03c3.098-.456 5.597-.155 8.89.85.125.041.24.093.333.155.55.374.715 1.16.29 1.72" fill="#e87daf" fill-rule="nonzero"/>
  <path d="M75.096 103.581h25.762c-.248-3.234-2.324-5.905-5.03-3.078.394-2.935-2.369-3.342-4.618-1.13 3.922-5.786-2.002-11-9.135-.205-.117-2.644-6.089-1.932-6.98 4.413" fill="#fff" fill-rule="nonzero"/>
  <path d="M210.106 105.631a1.914 1.914 0 10-3.828 0 1.914 1.914 0 003.828 0M12.749 152.368a1.915 1.915 0 10-3.83 0 1.915 1.915 0 003.83 0M94.176 49.182a1.916 1.916 0 10-3.832.004 1.916 1.916 0 003.832-.004" fill="#a0c2e8" fill-rule="nonzero"/>
  <path d="M.277-.67a.236.236 0 01.2-.104.43.43 0 01.257.089c-.005.273-.062.61-.057.724C.68.121.716.197.72.282.724.378.708.549.696.719A.284.284 0 01.568.76.289.289 0 01.299.628a5.36 5.36 0 00.055-.857C.345-.425.305-.546.277-.67z" fill="url(#_Linear3)" fill-rule="nonzero" transform="scale(-26.40711 26.40711) rotate(-87.469 -1.345 3.692)"/>
  <path d="M129.558 39.902c3.008 0 11.834-1.915 19.021-2.355-3.428-4.244-9.636-6.848-15.326-6.52-7.052.408-18.36 3.207-21.66 9.167 4.472-.53 8.95-1.159 11.497-1.159 2.248 0 4.287.867 6.468.867" fill="#ffe3bb" fill-rule="nonzero"/>
  <path d="M136.983 48.1c-7.967-.001-17.697 1.57-22.523 2.438 3.784 2.382 9.879 2.956 15.922 2.761 6.917-.223 14.522-.692 18.347-3.688-3.318-.59-6.544-1.512-11.746-1.512" fill="#c78e5d" fill-rule="nonzero"/>
  <path d="M.152-.332c-.009.076.007.154-.001.229-.01.088-.076.28-.093.433C.052.384.045.542.028.688a1.766 1.766 0 01-.03.2.155.155 0 01-.105.01C-.209.875-.262.784-.287.666c.129-.317.225-.839.225-.842.017-.153.005-.315.013-.471.069-.149.142-.258.2-.261a.115.115 0 01.091.034c.004.042.009.084.004.127-.013.121-.081.299-.094.415z" fill="url(#_Linear4)" fill-rule="nonzero" transform="scale(-35.68427 35.68427) rotate(83.703 -2.74 -1.128)"/>
  <path d="M151.842 53.804c-6.615-2.168-16.094-1.974-22.203-1.779-5.91.19-17.098 2.306-25.311 5.068 5.565.342 11.276 1.39 16.761 1.39.105 0 19.013-1.369 30.753-4.68" fill="#ed9d81" fill-rule="nonzero"/>
  <path d="M.364-1.078c.003.231.021.478.023.564C.39-.273.324.038.325.177c.002.119.042.238.044.358.002.183-.071.473-.068.664.001.069.017.133.031.197C.197 1.289.119.954.116.264.112-.515.109-1.23.374-1.396a3.202 3.202 0 00-.01.318z" fill="url(#_Linear5)" fill-rule="nonzero" transform="scale(-22.73943 22.73943) rotate(-89.265 -1.152 4.448)"/>
  <path d="M.44.217C.44.343.424.49.402.647.254.786.063.652.074.415.086.152.099-.38.136-.624a.276.276 0 01.241-.245c0 .119-.008.25-.008.336 0 .179.071.485.071.75z" fill="url(#_Linear6)" fill-rule="nonzero" transform="matrix(0 20.25893 20.25893 0 125.206 84.264)"/>
  <path d="M120.54 101.977c2.57.06 5.256-1.051 7.852-2.568-1.542-.023-12.497-1.03-18.816-1.854 3.13 3.712 5.415 4.29 10.964 4.422" fill="#ed9d81" fill-rule="nonzero"/>
  <path d="M-.269 1.599c.079-.326.143-.63.17-.895.055-.556-.029-1.215.008-1.59.019-.181.064-.454.089-.705a.728.728 0 01.529.227l.036.037C.583-.664.574.483.56.643c-.227.312-.516.604-.717.848a.663.663 0 01-.112.108z" fill="url(#_Linear7)" fill-rule="nonzero" transform="matrix(-.95498 9.5498 9.5498 .95498 122.79 93.444)"/>
  <path d="M132.486 103.985c-2.012-1.513-5.705-2.143-10.923-1.985-4.206.128-7.77.61-10.34 1.536 4.557.43 9.403.894 14.115.894 2.44 0 4.841-.128 7.148-.445" fill="#ffe3bb" fill-rule="nonzero"/>
  <path d="M123.56 109.81c-2.074-.055-4.032-.794-6.095-.794-1.67 0-5.843.522-8.857.522-.467 0-.94-.033-1.41-.057 1.465 2.652 7.171 4.023 13.375 3.812 7.04-.24 12.852-1.272 13.597-4.899-5.04.809-10.374 1.417-10.462 1.417-.048 0-.099 0-.149-.002" fill="#c78e5d" fill-rule="nonzero"/>
  <path d="M.7-.764c-.017.147-.022.3-.018.455.006.299.043.607.076.896C.703.75.619.852.499.871a.176.176 0 01-.113-.02L.38.762C.376.57.404.304.401.198.398.067.349-.057.342-.189v-.009c0-.006.031-.346.075-.667A.27.27 0 01.7-.764z" fill="url(#_Linear8)" fill-rule="nonzero" transform="scale(-15.7223 15.7223) rotate(-88.741 -.092 7.59)"/>
  <path d="M120.52 120.793c-10.405 0-13.717-1.251-18.857-1.8 4.012 3.255 16.964 4.363 23.462 4.362 7.305 0 20.38.281 21.766-3.96-9.547.773-23.216 1.398-26.37 1.398" fill="#c78e5d" fill-rule="nonzero"/>
  <path d="M109.145 114.341c1.23 0 2.254.172 5.25.172 3.745 0 7.437-.28 11.24-.282h.064c3.217 0 6.446.208 9.662.208 2.899 0 5.154-.184 7.082-.506-4.011-1.417-10.367-1.84-17.954-1.53-10.115.414-19.032-.076-22.494 2.003.482.016.992.023 1.517.023 2.009 0 4.21-.088 5.633-.088" fill="#ffe3bb" fill-rule="nonzero"/>
  <path d="M.445-1.634a.16.16 0 01.058-.01c.15.003.257.12.33.321a3.027 3.027 0 00-.033.5c.001.227.018.455.019.682v.005C.82.132.802.393.804.658c.001.211.014.283.014.37.001.101-.004.256-.004.398.001.037.001.073.003.107-.042.07-.097.11-.174.111-.056 0-.106-.031-.15-.086C.452 1.196.362.962.358.228.356.005.395-.96.445-1.634z" fill="url(#_Linear9)" fill-rule="nonzero" transform="scale(-14.16425 14.16425) rotate(-89.651 .1 8.838)"/>
  <path d="M148.924 145.692c.63 0-1.154.975 10.875-2.397-2.445-4.25-7.995-6.425-16.927-6.425-12.746 0-29.415-.245-42.898 6.619a41.564 41.564 0 00-3.612 2.064c4.884-1.355 11.784-2.66 25.605-2.66 17.549 0 19.056 2.8 26.957 2.8" fill="#ffe3bb" fill-rule="nonzero"/>
  <path d="M.444-1.095a.358.358 0 01.192.034c-.083.353-.057.3-.056.318.009.229.092.269.114.778C.711.436.682.637.648.78.533.977.399 1.055.294.974.35.703.452.445.439.128.424-.214.317-.45.263-.821c.026-.152.078-.267.181-.274z" fill="url(#_Linear10)" fill-rule="nonzero" transform="scale(-34.47088 34.47088) rotate(-87.571 .722 4.298)"/>
  <path d="M90.216 158.05c1.57 1.87 4.675 3.392 9.514 4.314 0 0 19.854-3.186 29.414-3.923 5.606-.43 15.592-.358 22.945-1.953-12.877-1.322-21.146-4.674-32.954-4.674-10.935 0-19.66 3.897-28.92 6.236" fill="#c78e5d" fill-rule="nonzero"/>
  <path d="M118.432 165.026c6.03 0 21.771-1.398 37.193-2.185-4.887-3.305-12.672-5.676-24.274-6.018-16.442-.483-32.498 3.338-40.174 9.113 4.085-.958 8.192-1.925 12.587-1.925 4.929 0 9.737 1.015 14.668 1.015" fill="#d7dae0" fill-rule="nonzero"/>
  <path d="M.731-1.02c0 .498-.02 1.007-.01 1.202.008.159.048.312.056.47.007.142-.018.276-.042.409-.067.099-.145.158-.232.163a.196.196 0 01-.106-.026C.381 1.028.299.844.291.681.284.543.396.008.374-.435.36-.717.292-.941.243-1.172a.172.172 0 01.116-.05c.128-.003.262.056.372.202z" fill="url(#_Linear11)" fill-rule="nonzero" transform="scale(-31.01134 31.01134) rotate(-87.138 1.152 5.138)"/>
  <path d="M103.643 179.118c-5.061 0-10.91-2.267-16.181-2.489 4.461 7.031 23.513 9.268 38.985 9.268 14.689 0 30.044-2.635 34.646-8.16-7.21-1.17-14.264-2.939-23.022-2.939-13.747 0-30.142 4.32-34.428 4.32" fill="#8b8aa1" fill-rule="nonzero"/>
  <path d="M1.182.205c-.167.226-.225.67-.56.708C.338.946.189.549.142.139.093-.287.112-.858.535-.907c.314-.036.64.374.686.775a.694.694 0 01-.039.337z" fill="url(#_Linear12)" fill-rule="nonzero" transform="scale(-9.29706 9.29706) rotate(-83.454 .055 8.747)"/>
  <path d="M.897-.148A.8.8 0 01.94.063C.958.362.77.549.589.559.32.575.261.267.246.003c-.023-.39.121-.566.28-.575.159-.009.334.148.371.424z" fill="url(#_Linear13)" fill-rule="nonzero" transform="scale(-7.73562 7.73562) rotate(-86.634 -6.222 16.269)"/>
  <path d="M106.948 190.43c6.19 0 7.474.393 11.787.393 18.195 0 27.424-5.468 55.344-5.468.34 0 .678.011 1.017.013-11.25-3.187-27.618-3.74-38.078-4.026-17.225-.472-37.518 4.01-47.191 3.775-4.947-.122-13.77.747-21.218 2.757 6.568.833 11.847 2.786 23.882 2.786 4.794 0 9.636-.23 14.457-.23" fill="#ffe3bb" fill-rule="nonzero"/>
  <path d="M136.026 202.233c-10.172 0-20.938-1.944-29.99-1.944-10.289 0-17.446 2.006-29.515 2.006-6.584 0-13.033-.493-19.549-.677 4.753 6.967 20.749 5.443 28.134 5.443h79.99c5.969 0 17.12.625 21.021-5.939-5.697-.846-11.286-2.053-17.556-2.053-11.032 0-20.56 3.164-32.535 3.164" fill="#c78e5d" fill-rule="nonzero"/>
  <path d="M.773-1.57l.001.03C.784-.723.627-.451.633.082c.002.126.014.164.016.345C.651.568.646.71.647.85c.005.352.064.506.091.698-.054.209-.139.382-.26.384a.245.245 0 01-.139-.038c-.007-.191-.024-.38-.026-.572C.308.968.364.758.361.457.357.192.297-.122.293-.42c-.004-.351.085-.631.081-.954-.002-.183-.039-.346-.066-.513a.32.32 0 01.164-.043c.144-.001.238.148.301.36z" fill="url(#_Linear14)" fill-rule="nonzero" transform="scale(-34.1597 34.1597) rotate(-89.301 1.365 4.914)"/>
  <path d="M121.682 127.028c8.667 0 21.384-2.313 35.252-4.69a76.742 76.742 0 00-10.588-.42c-9.826.3-33.117-.034-40.46-.034-6.41 0-29.385-1.345-35.11 3.203 5.578-.193 11.152-.575 16.723-.575 12.531 0 22.685 2.516 34.183 2.516" fill="#ed9d81" fill-rule="nonzero"/>
  <path d="M.301-1.973c.168.01.242.285.264.579C.454-.862.347-.375.335-.04c-.016.443.067.838.05 1.322-.008.215-.03.429-.046.644-.026.031-.057.048-.093.047a.185.185 0 01-.117-.044c.017-.19.041-.38.048-.571C.198.756.072.449.107-.521c.007-.19.059-.859.122-1.423a.101.101 0 01.072-.029z" fill="url(#_Linear15)" fill-rule="nonzero" transform="scale(25.9028 -25.9028) rotate(87.936 5.038 -.211)"/>
  <path d="M.417 1.327c-.006.185-.029.369-.046.554-.153-.126-.136-.513-.125-.859C.26.606.201-.082.215-.498c.013-.372.063-1.22.247-1.383-.06.548-.11 1.198-.116 1.382C.314.444.437.742.417 1.327z" fill="url(#_Linear16)" fill-rule="nonzero" transform="scale(26.6649 -26.6649) rotate(88.047 5.014 -.331)"/>
  <path d="M72.996 81.284c-4.81 0-6.12 1.974-15.215 1.974-.298 0-.595-.011-.893-.014 4.671.82 10.42 1.244 16.135 1.062 12.896-.409 24.154 3.685 30.294 3.89 6.143.205 4.914 1.023 17.607 1.023 12.69 0 41.85-3.276 53.426-5.935a178.292 178.292 0 0015.091-4.207c-26.573 2.488-68.039 5.408-68.146 5.408-10.604 0-48.154-3.201-48.3-3.201" fill="#c78e5d" fill-rule="nonzero"/>
  <path d="M104.38 73.97c40.62 0 41.184 1.936 52.508 1.936 11.652 0 19.362-4.256 26.344-4.256 1.947 0 3.664 1.314 5.536 1.314 2.912 0 8.628-1.625 15.314-3.438-4.131-2.59-24.159-.797-36.284-.982-13.508-.204-59.655 1.638-67.39 1.433-7.735-.205-34.755 1.433-42.534 1.229-4.846-.13-8.184 1.482-9.91 3.536 9.494.364 18.98 1.286 28.465 1.286 11.074 0 18.422-2.058 27.95-2.058" fill="#ffe3bb" fill-rule="nonzero"/>
  <path d="M.734-2.347c.012.001.022.009.031.023-.052.198-.1.368-.099.454 0 .056.039.106.039.164.002.207-.123.436-.122.782.002.336.059.352.066 1.556.001.283-.059.501-.057.829.001.281.03.562.042.844a.152.152 0 01-.116.04c-.056-.006-.106-.129-.137-.303L.38 2.015c-.001-.27.057-.309.056-.451C.436 1.56.336.447.334.132c0-.003.081-1.233.15-2.021.08-.246.175-.461.25-.458z" fill="url(#_Linear17)" fill-rule="nonzero" transform="scale(-33.73035 33.73035) rotate(-89.711 -.439 3.294)"/>
  <g>
    <path d="M.275.073C.31-.186.388-.31.489-.348c-.007.21.003.504-.01.696C.354.335.251.249.275.073z" fill="url(#_Linear18)" fill-rule="nonzero" transform="scale(-15.9512 15.9512) rotate(84.207 -7.567 .712)"/>
  </g>
  <g>
    <path d="M.468-.278c.151.003.272.117.253.365C.711.219.587.316.468.331.442.17.378-.071.343-.246a.207.207 0 01.125-.032z" fill="url(#_Linear19)" fill-rule="nonzero" transform="scale(18.81497 -18.81497) rotate(-82.773 -1.42 -6.324)"/>
  </g>
  <defs>
    <linearGradient id="_Linear1" x1="0" y1="0" x2="1" y2="0" gradientUnits="userSpaceOnUse" gradientTransform="scale(1 -1) rotate(-63.595 .592 0)">
      <stop offset="0" stop-color="#2f61a0"/>
      <stop offset="0" stop-color="#2f61a0"/>
      <stop offset="1" stop-color="#1a5197"/>
    </linearGradient>
    <linearGradient id="_Linear2" x1="0" y1="0" x2="1" y2="0" gradientUnits="userSpaceOnUse" gradientTransform="matrix(1 0 0 -1 0 -.134)">
      <stop offset="0" stop-color="#2f61a0"/>
      <stop offset="0" stop-color="#2f61a0"/>
      <stop offset="1" stop-color="#1a5197"/>
    </linearGradient>
    <linearGradient id="_Linear3" x1="0" y1="0" x2="1" y2="0" gradientUnits="userSpaceOnUse" gradientTransform="matrix(1 0 0 -1 0 -.007)">
      <stop offset="0" stop-color="#010000"/>
      <stop offset=".06" stop-color="#010000"/>
      <stop offset=".32" stop-color="#efa05e"/>
      <stop offset=".62" stop-color="#ffdaa5"/>
      <stop offset=".99" stop-color="#ffd293"/>
      <stop offset="1" stop-color="#ffd293"/>
    </linearGradient>
    <linearGradient id="_Linear4" x1="0" y1="0" x2="1" y2="0" gradientUnits="userSpaceOnUse" gradientTransform="matrix(1 0 0 -1 0 -.003)">
      <stop offset="0" stop-color="#eda287"/>
      <stop offset=".62" stop-color="#f0d2c5"/>
      <stop offset="1" stop-color="#fbbe96"/>
    </linearGradient>
    <linearGradient id="_Linear5" x1="0" y1="0" x2="1" y2="0" gradientUnits="userSpaceOnUse" gradientTransform="matrix(1 0 0 -1 0 0)">
      <stop offset="0" stop-color="#ef865e"/>
      <stop offset=".55" stop-color="#ef865e"/>
      <stop offset="1" stop-color="#e2815f"/>
    </linearGradient>
    <linearGradient id="_Linear6" x1="0" y1="0" x2="1" y2="0" gradientUnits="userSpaceOnUse" gradientTransform="matrix(1 0 0 -1 0 -.083)">
      <stop offset="0" stop-color="#010000"/>
      <stop offset=".06" stop-color="#010000"/>
      <stop offset=".55" stop-color="#ef865e"/>
      <stop offset=".94" stop-color="#3d2218"/>
      <stop offset="1" stop-color="#010000"/>
    </linearGradient>
    <linearGradient id="_Linear7" x1="0" y1="0" x2="1" y2="0" gradientUnits="userSpaceOnUse" gradientTransform="matrix(1 0 0 -1 0 .004)">
      <stop offset="0" stop-color="#ef865e"/>
      <stop offset=".55" stop-color="#ef865e"/>
      <stop offset=".94" stop-color="#3d2218"/>
      <stop offset="1" stop-color="#010000"/>
    </linearGradient>
    <linearGradient id="_Linear8" x1="0" y1="0" x2="1" y2="0" gradientUnits="userSpaceOnUse" gradientTransform="matrix(1 0 0 -1 0 0)">
      <stop offset="0" stop-color="#010000"/>
      <stop offset=".06" stop-color="#010000"/>
      <stop offset=".32" stop-color="#efa05e"/>
      <stop offset=".62" stop-color="#ffdaa5"/>
      <stop offset="1" stop-color="#ffd293"/>
    </linearGradient>
    <linearGradient id="_Linear9" x1="0" y1="0" x2="1" y2="0" gradientUnits="userSpaceOnUse" gradientTransform="matrix(1 0 0 -1 0 0)">
      <stop offset="0" stop-color="#010000"/>
      <stop offset=".06" stop-color="#010000"/>
      <stop offset=".32" stop-color="#efa05e"/>
      <stop offset=".62" stop-color="#ffdaa5"/>
      <stop offset=".99" stop-color="#ffd293"/>
      <stop offset="1" stop-color="#ffd293"/>
    </linearGradient>
    <linearGradient id="_Linear10" x1="0" y1="0" x2="1" y2="0" gradientUnits="userSpaceOnUse" gradientTransform="matrix(1 0 0 -1 0 -.045)">
      <stop offset="0" stop-color="#010000"/>
      <stop offset=".06" stop-color="#010000"/>
      <stop offset=".32" stop-color="#efa05e"/>
      <stop offset=".62" stop-color="#ffdaa5"/>
      <stop offset=".99" stop-color="#ffd293"/>
      <stop offset="1" stop-color="#ffd293"/>
    </linearGradient>
    <linearGradient id="_Linear11" x1="0" y1="0" x2="1" y2="0" gradientUnits="userSpaceOnUse" gradientTransform="matrix(1 0 0 -1 0 0)">
      <stop offset="0"/>
      <stop offset=".06"/>
      <stop offset=".32" stop-color="#9998b1"/>
      <stop offset=".62" stop-color="#c9cdd1"/>
      <stop offset="1" stop-color="#c0bdd0"/>
    </linearGradient>
    <linearGradient id="_Linear12" x1="0" y1="0" x2="1" y2="0" gradientUnits="userSpaceOnUse" gradientTransform="matrix(1 0 0 -1 0 .003)">
      <stop offset="0" stop-color="#010000"/>
      <stop offset=".06" stop-color="#010000"/>
      <stop offset=".32" stop-color="#efa05e"/>
      <stop offset=".74" stop-color="#ffdaa5"/>
      <stop offset="1" stop-color="#ffd293"/>
    </linearGradient>
    <linearGradient id="_Linear13" x1="0" y1="0" x2="1" y2="0" gradientUnits="userSpaceOnUse" gradientTransform="matrix(1 0 0 -1 0 -.006)">
      <stop offset="0" stop-color="#010000"/>
      <stop offset=".06" stop-color="#010000"/>
      <stop offset=".32" stop-color="#efa05e"/>
      <stop offset=".74" stop-color="#ffdaa5"/>
      <stop offset="1" stop-color="#ffd293"/>
    </linearGradient>
    <linearGradient id="_Linear14" x1="0" y1="0" x2="1" y2="0" gradientUnits="userSpaceOnUse" gradientTransform="matrix(1 0 0 -1 0 .001)">
      <stop offset="0" stop-color="#010000"/>
      <stop offset=".06" stop-color="#010000"/>
      <stop offset=".32" stop-color="#efa05e"/>
      <stop offset=".62" stop-color="#ffdaa5"/>
      <stop offset=".99" stop-color="#ffd293"/>
      <stop offset="1" stop-color="#ffd293"/>
    </linearGradient>
    <linearGradient id="_Linear15" x1="0" y1="0" x2="1" y2="0" gradientUnits="userSpaceOnUse" gradientTransform="matrix(1 0 0 -1 0 0)">
      <stop offset="0" stop-color="#eb8663"/>
      <stop offset=".62" stop-color="#f0d2c5"/>
      <stop offset="1" stop-color="#fbbe96"/>
    </linearGradient>
    <linearGradient id="_Linear16" x1="0" y1="0" x2="1" y2="0" gradientUnits="userSpaceOnUse" gradientTransform="matrix(1 0 0 -1 0 0)">
      <stop offset="0" stop-color="#ef865e"/>
      <stop offset=".55" stop-color="#ef865e"/>
      <stop offset="1" stop-color="#e2815f"/>
    </linearGradient>
    <linearGradient id="_Linear17" x1="0" y1="0" x2="1" y2="0" gradientUnits="userSpaceOnUse" gradientTransform="matrix(1 0 0 -1 0 0)">
      <stop offset="0" stop-color="#010000"/>
      <stop offset=".06" stop-color="#010000"/>
      <stop offset=".32" stop-color="#efa05e"/>
      <stop offset=".62" stop-color="#ffdaa5"/>
      <stop offset=".99" stop-color="#ffd293"/>
      <stop offset="1" stop-color="#ffd293"/>
    </linearGradient>
    <linearGradient id="_Linear18" x1="0" y1="0" x2="1" y2="0" gradientUnits="userSpaceOnUse" gradientTransform="matrix(1 0 0 -1 0 0)">
      <stop offset="0" stop-color="#010000"/>
      <stop offset=".06" stop-color="#010000"/>
      <stop offset=".55" stop-color="#ef865e"/>
      <stop offset=".94" stop-color="#3d2218"/>
      <stop offset="1" stop-color="#010000"/>
    </linearGradient>
    <linearGradient id="_Linear19" x1="0" y1="0" x2="1" y2="0" gradientUnits="userSpaceOnUse" gradientTransform="scale(1 -1) rotate(17.339 .536 0)">
      <stop offset="0" stop-color="#ef865e"/>
      <stop offset=".55" stop-color="#ef865e"/>
      <stop offset=".94" stop-color="#3d2218"/>
      <stop offset="1" stop-color="#010000"/>
    </linearGradient>
  </defs>
</svg>